<?xml version="1.0" encoding="utf-8"?>
<!-- Generator: Adobe Illustrator 19.0.0, SVG Export Plug-In . SVG Version: 6.00 Build 0)  -->
<svg version="1.1" id="Шар_1" xmlns="http://www.w3.org/2000/svg" xmlns:xlink="http://www.w3.org/1999/xlink" x="0px" y="0px"
	 viewBox="-474 476.6 49.4 49.4" style="enable-background:new -474 476.6 49.4 49.4;" xml:space="preserve">
<style type="text/css">
	.st0{fill:#FFFFFF;}
</style>
<g id="XMLID_12_">
	<g id="XMLID_6_">
		<path id="XMLID_8_" class="st0" d="M-449.3,526c-13.6,0-24.7-11.1-24.7-24.7s11.1-24.7,24.7-24.7s24.7,11.1,24.7,24.7
			S-435.7,526-449.3,526z M-449.3,477.6c-13.1,0-23.7,10.6-23.7,23.7s10.6,23.7,23.7,23.7s23.7-10.6,23.7-23.7
			S-436.2,477.6-449.3,477.6z"/>
	</g>
</g>
<g id="UhkzCV.tif">
	<g>
		<path class="st0" d="M-453.5,501.3c0-1.1,0-2.1,0-3.2c0.1,0,0.1,0,0.2,0c0.4,0,0.8,0,1.3,0c0.1,0,0.2,0,0.3,0c0-0.5,0-1,0-1.5
			c0-0.4,0-0.9,0.1-1.3c0.2-1.2,0.7-2.1,1.8-2.6c0.5-0.3,1.1-0.4,1.7-0.4c0.9,0,1.9,0,2.8,0c0,0,0.1,0,0.1,0c0,1,0,2.1,0,3.1
			c-0.7,0-1.3,0-1.9,0c-0.6,0-0.9,0.3-0.9,0.9c0,0.5,0,1,0,1.6c0,0.1,0,0.2,0,0.3c1,0,1.9,0,2.9,0c-0.1,1.1-0.2,2.1-0.3,3.2
			c-0.9,0-1.7,0-2.6,0c0,3,0,6,0,9c-1.3,0-2.5,0-3.8,0c0-3,0-6,0-9.1C-452.3,501.3-452.9,501.3-453.5,501.3z"/>
	</g>
</g>
</svg>
