<?xml version="1.0" encoding="utf-8"?>
<!-- Generator: Adobe Illustrator 19.0.0, SVG Export Plug-In . SVG Version: 6.00 Build 0)  -->
<svg version="1.1" id="Шар_1" xmlns="http://www.w3.org/2000/svg" xmlns:xlink="http://www.w3.org/1999/xlink" x="0px" y="0px"
	 viewBox="0 0 64.4 63" style="enable-background:new 0 0 64.4 63;" xml:space="preserve">
<style type="text/css">
	.st0{fill:#A2A2A2;}
	.st1{fill:#F4B000;}
	.st2{fill:#2D9AD4;}
	.st3{fill:none;}
	.st4{fill:#A8A7A8;}
	.st5{fill:#E62E22;}
</style>
<g id="XMLID_1_">
	<g id="si3OTC.tif">
		<g id="XMLID_5_">
			<path id="XMLID_48_" class="st0" d="M23.4,0c0.9,0,1.7,0,2.6,0c0,4,0,8,0,12c-0.8,0-1.7,0-2.6,0C23.4,8,23.4,4,23.4,0z"/>
			<path id="XMLID_47_" class="st1" d="M15.4,4.9c0.8,0,1.7,0,2.5,0c0,2.4,0,4.8,0,7.2c-0.8,0-1.7,0-2.5,0
				C15.4,9.7,15.4,7.4,15.4,4.9z"/>
			<path id="XMLID_46_" class="st2" d="M34,12.1c-0.9,0-1.7,0-2.5,0c0-2.4,0-4.8,0-7.2c0.8,0,1.7,0,2.5,0C34,7.3,34,9.7,34,12.1z"/>
		</g>
	</g>
	<g id="XMLID_6_">
		<path id="XMLID_8_" class="st3" d="M46.1,19.4c0-0.2-0.3-0.4-0.4-0.4c-0.3-0.1-0.6,0-0.8,0c-6.7,0-13.3,0-20,0c-0.4,0-0.8,0-1.2,0
			c-4.2,0-8.4,0-12.5,0c-2.3,0-4.6,0-6.9,0c-0.4,0-0.7,0-0.7,0.6c-0.1,1.9-0.4,3.8-0.5,5.7c-0.3,4.2-0.1,8.4,0.5,12.6
			c0.4,2.5,0.8,5,1.4,7.4c0.7,2.5,1.6,4.9,2.5,7.3c1,2.7,2.5,5.2,4.2,7.5c0.1,0.2,0.5,0.3,0.7,0.3c3.1,0,6.2,0.1,9.2,0.1
			c2.2,0,4.4,0,6.6,0c3,0,5.9,0,8.9,0.1c0.5,0,0.7-0.2,1-0.5c1.2-2,2.6-4,3.6-6.1c1.1-2.3,1.9-4.7,2.6-7.1c0.7-2.5,1.3-5.1,1.7-7.7
			c0.3-1.7,0.4-3.4,0.5-5.1c0.1-1.6,0.2-3.3,0.2-4.9c0-1.9-0.1-3.8-0.2-5.8C46.4,21.9,46.2,20.6,46.1,19.4z"/>
		<path id="XMLID_16_" class="st4" d="M46.9,46.6c0.5-2.6,1.1-5.2,1.5-7.8c0.3-1.9,0.4-3.9,0.6-5.8c0.1-1.4,0.1-2.9,0.1-4.3
			c0-1.7-0.1-3.3-0.2-5c0-0.2,0.1-0.4,0.2-0.5c-0.3-2-0.6-3-0.6-3c-0.1-0.8-0.3-1.8-0.5-2.8c-0.2-0.9-0.5-1.1-1.4-1.1
			c-14.8,0-29.6,0-44.4,0c-0.8,0-1.3,0.4-1.4,1.2c-0.3,2.7-0.8,5.5-0.9,8.2c-0.3,5.8,0.1,11.5,1.4,17.2c1.6,7.1,4.1,13.7,8.6,19.4
			c0.4,0.5,0.8,0.7,1.4,0.7c5.7,0,11.4,0,17.1,0c3.1,0,6.2,0,9.3,0c0.5,0,0.9-0.1,1.2-0.6c2.4-3.1,4.3-6.6,5.8-10.3
			c0-0.1,0.1-0.2,0.2-0.3c0.4-2.1,1.9-5.3,1.9-5.3C47,46.6,46.9,46.6,46.9,46.6z M46.5,33.8c-0.1,1.7-0.2,3.4-0.5,5.1
			c-0.5,2.6-1,5.2-1.7,7.7c-0.7,2.4-1.6,4.8-2.6,7.1c-1,2.1-2.4,4.1-3.6,6.1c-0.2,0.4-0.5,0.5-1,0.5c-3,0-5.9-0.1-8.9-0.1
			c-2.2,0-4.4,0-6.6,0c-3.1,0-6.2,0-9.2-0.1c-0.2,0-0.6-0.1-0.7-0.3c-1.7-2.3-3.2-4.8-4.2-7.5c-0.9-2.4-1.8-4.8-2.5-7.3
			c-0.6-2.4-1-4.9-1.4-7.4C2.8,33.6,2.6,29.4,3,25.1c0.1-1.9,0.4-3.8,0.5-5.7c0-0.5,0.3-0.6,0.7-0.6c2.3,0,4.6,0,6.9,0
			c4.2,0,8.4,0,12.5,0c0.4,0,0.8,0,1.2,0c6.7,0,13.3,0,20,0c0.3,0,0.6,0,0.8,0c0.2,0.1,0.4,0.3,0.4,0.4c0.2,1.3,0.3,2.5,0.4,3.8
			c0.1,1.9,0.2,3.8,0.2,5.8C46.7,30.5,46.6,32.1,46.5,33.8z"/>
		<path id="XMLID_19_" class="st5" d="M45.4,51.5c5.1-4.2,9.7-8.9,13.6-14.1c2.2-2.9,4.1-5.9,5-9.5c0.8-3,0.3-5.8-2-8
			c-2.4-2.4-5.3-2.8-8.4-1.9c-1.7,0.5-3.3,1.4-5,2.1c0,0,0.3,1,0.6,3c0,0,0,0,0,0c2.2-1.5,4.6-2.8,7.4-2.8c2.9,0,5.6,2.9,4.9,6
			c-0.6,2.7-1.8,5.1-3.3,7.3c-3.2,4.8-7,9-11.2,12.9c0,0-1.5,3.2-1.9,5.3C45.2,51.7,45.3,51.6,45.4,51.5z"/>
	</g>
</g>
</svg>
