<?xml version="1.0" encoding="utf-8"?>
<!-- Generator: Adobe Illustrator 19.0.0, SVG Export Plug-In . SVG Version: 6.00 Build 0)  -->
<svg version="1.1" id="Шар_1" xmlns="http://www.w3.org/2000/svg" xmlns:xlink="http://www.w3.org/1999/xlink" x="0px" y="0px"
	 viewBox="0 0 68 68" style="enable-background:new 0 0 68 68;" xml:space="preserve">
<style type="text/css">
	.st0{fill:#FFFFFF;}
</style>
<g id="_x39_ASaO8.tif">
	<g id="XMLID_8_">
		<path id="XMLID_117_" class="st0" d="M34.8,0c1,0.1,2,0.2,2.9,0.4c6.3,1,11.5,4,15.6,8.8c3.3,3.8,5.4,8.3,6.1,13.3
			c0.9,6.3-0.3,12.3-3.7,17.7c-0.2,0.4-0.5,0.6-0.9,0.7c-1.2,0.1-2.4,0.3-3.8,0.5c3.4-4.1,5.2-8.7,5.5-14c-3.5,0-7,0-10.6,0
			c-0.1,3.8-0.9,7.6-2.3,11.2c2.2,0.8,4.3,1.6,6.3,2.8c-0.9,0.3-1.7,0.5-2.5,0.7c-0.2,0.1-0.5,0-0.7-0.1c-1.3-0.5-2.6-1.1-4-1.6
			c-1.6,3.3-3.6,6.2-6.3,8.8c0.7-0.1,1.4-0.2,2.3-0.4c-0.7,0.6-1.3,1.1-1.9,1.7c-0.6,0.5-1.1,1.2-1.7,1.7c-0.3,0.2-0.7,0.3-1,0.3
			c-3.2,0.1-6.4-0.4-9.4-1.4c-6.1-2.2-10.8-6-14.1-11.6c-0.1-0.2-0.2-0.4-0.3-0.6c1.1,0,2.2,0,3.3,0c0.2,0,0.4,0.2,0.5,0.3
			c0.6,0.7,1.1,1.4,1.6,2.1c0.3,0.4,0.5,0.4,0.9,0.1c1.3-0.7,2.6-1.3,3.9-2c0.4-0.2,0.6-0.2,0.9,0.1c0.4,0.4,1,0.7,1.4,1.1
			c-1.7,0.8-3.5,1.6-5.2,2.4c1.9,2.6,9,6,12.4,6c-1-1.2-2.2-2.4-3.1-3.6c-1-1.3-1.8-2.7-2.8-4.1c1,0.2,1.7,0.3,2.5,0.5
			c0.2,0,0.4,0.3,0.5,0.5c1.2,1.8,2.5,3.5,4.1,5c0.3,0.3,0.6,0.5,1,0.9c0-0.4,0-0.6,0-0.8c0-2.2,0-4.3,0-6.5c0-0.3,0.2-0.6,0.4-0.8
			c0.8-0.9,1.6-1.7,2.3-2.6c0.2-0.3,0.4-0.4,0.7-0.4c1.8,0.3,3.6,0.5,5.4,0.8c0.4,0.1,0.5-0.1,0.6-0.4c0.9-2.3,1.5-4.6,1.8-7
			c0.1-1,0.2-2.1,0.3-3.2c-0.3,0-0.5,0-0.8,0c-2.7,0-5.3,0-8,0c-0.3,0-0.6-0.2-0.8-0.4c-0.6-0.5-1-1-1.6-1.5
			c-0.3-0.2-0.4-0.5-0.4-0.9c0-2.7,0-5.5,0-8.2c0-0.2,0-0.5,0-0.8c-1.1-0.1-2.1-0.2-3.2-0.3c-1.2-0.2-2.4-0.4-3.5-0.6
			c-0.4-0.1-0.6,0-0.7,0.4c-1,2.8-1.7,5.7-1.9,8.7c0,0.7-0.2,1.3-0.9,1.7c-0.6,0.3-1.1,0.8-1.5,1.3c-0.4,0.5-0.8,0.6-1.4,0.6
			c-2.7,0-5.4,0-8.2,0c-0.2,0-0.5,0-0.8,0c0.1,1,0.2,1.9,0.3,3c-1-0.2-1.9-0.3-2.8-0.5c-0.2,0-0.4-0.5-0.4-0.8
			c-0.1-1.1-0.2-2.2-0.1-3.3c0.2-5.4,1.7-10.3,4.9-14.7c4.3-5.9,10-9.5,17.2-10.7c1-0.2,1.9-0.3,2.9-0.4C33,0,33.9,0,34.8,0z
			 M10.3,25.2c3.6,0,7.1,0,10.6,0c0.1-3.9,0.9-7.6,2.3-11.2c-0.2-0.1-0.4-0.1-0.6-0.2c-1.9-0.9-3.9-1.8-5.8-2.7
			c-0.4-0.2-0.6-0.2-0.9,0.1c-2,2.4-3.5,5.1-4.5,8.1C10.8,21.2,10.5,23.2,10.3,25.2z M43.8,14.1c1.3,3.5,2.1,7.2,2.2,11.1
			c3.6,0,7.1,0,10.6,0c-0.3-5.5-2.3-10.3-5.8-14.3C48.4,12,46.1,13.1,43.8,14.1z M44,25.2c-0.1-0.6-0.1-1.1-0.1-1.7
			c-0.2-2.9-0.9-5.8-1.9-8.5c-0.1-0.4-0.3-0.4-0.7-0.4c-1.6,0.3-3.2,0.5-4.8,0.7c-0.6,0.1-1.3,0.1-1.9,0.2c0,3.3,0,6.4,0,9.6
			C37.7,25.2,40.8,25.2,44,25.2z M49.2,9.3C45.6,6,41.5,4.1,36.7,3.5c2.6,2.5,4.7,5.4,6.2,8.7C45.1,11.4,47.2,10.5,49.2,9.3z
			 M24.1,12.1c1.6-3.3,3.6-6.2,6.2-8.7C25.5,4.1,21.4,6,17.8,9.3C19.8,10.5,21.8,11.4,24.1,12.1z M40.8,39.8
			c-2.1-0.3-4.2-0.5-6.3-0.8c0,3.1,0,6.1,0,9.1C36.4,47,40.2,42,40.8,39.8z M40.9,12.7c-1.6-3.2-3.6-5.9-6.3-8.2c0,3.1,0,6,0,9.1
			c1.6-0.2,3.1-0.4,4.6-0.5C39.7,13,40.2,12.8,40.9,12.7z M26,12.7c2.2,0.3,4.3,0.6,6.4,0.8c0-3.1,0-6.1,0-9.2
			C29.7,6.8,27.6,9.5,26,12.7z"/>
		<path id="XMLID_114_" d="M49.8,68c-0.6-0.3-1.1-0.6-1.7-0.9C47.9,67,47.7,67,47.5,67c-1.9,0.3-3.7-0.9-3.8-2.7
			c-0.2-2,1.2-3.6,3.1-3.6c1.9,0,3.4,1.6,3.3,3.5c0,0.2,0,0.3,0,0.7c0.3-0.2,0.4-0.3,0.6-0.5c2.2-2.4,4.4-4.7,6.5-7.1
			c1.7-2,1.9-4.3,0.9-6.6c-1-2.3-2.9-3.5-5.5-3.5c-1.7,0-3.1,0.5-4.4,1.6c-2.4,2.2-4.9,4.2-7.4,6.4c-0.1,0.1-0.2,0.2-0.4,0.4
			c0.3,0,0.5,0.1,0.7,0.1c1.4-0.1,2.6,0.7,3.2,1.9c0.5,1.3,0.2,2.7-0.9,3.6c-1,0.9-2.5,1-3.7,0.4c-1.2-0.7-1.8-2-1.5-3.4
			c0-0.2,0-0.6-0.2-0.8c-1.1-1.5-1-3.1,0.4-4.3c2.7-2.3,5.3-4.6,8-6.9c1.4-1.2,3-1.8,4.8-2c3-0.4,5.9-0.8,8.9-1.2
			c0.2,0,0.5-0.2,0.7-0.3c1.7-2.2,3.2-4.4,3.8-7.1c0.8-3.2,0-6.1-1.7-8.8c-0.2-0.3-0.3-0.8-0.4-1.1c-0.1-1.4-0.2-2.7-0.3-4.1
			c0.1,0.1,0.2,0.1,0.3,0.2c2.9,2.6,4.8,5.6,5.4,9.5c0.1,0.4,0.1,0.7,0.2,1.1c0,0.6,0,1.2,0,1.7c-0.2,0.8-0.3,1.7-0.5,2.5
			c-0.8,3-2.5,5.6-4.3,8.1c-0.2,0.2-0.3,0.4-0.4,0.7c-0.5,3.2-0.9,6.4-1.3,9.6c-0.2,1.8-0.8,3.3-2.1,4.6c-2.1,2.3-4.2,4.6-6.3,6.9
			c-0.7,0.8-1.4,1.5-2.5,1.8C50.3,68,50.1,68,49.8,68z M59.2,48.3c0.1-0.6,0.2-1.4,0.3-2.2c-0.8,0.1-1.6,0.2-2.2,0.3
			C58,47.1,58.6,47.7,59.2,48.3z"/>
		<path id="XMLID_110_" d="M0,27.5c0.1-0.5,0.2-1.1,0.4-1.6c0.7-2.6,2.5-4.4,4.7-5.9c-0.2,1.3-0.3,2.6-0.5,3.8
			c0,0.2-0.2,0.4-0.3,0.6c-2,2.3-1.4,5.8,1.3,7.2c1.5,0.8,3.1,1.1,4.8,1.3c3.3,0.3,6.5,0,9.8-0.4c0.4,0,0.5-0.2,0.6-0.6
			c0.5-3,2.1-5,5-5.8c4.6-1.3,9.1,2.4,8.6,7.2c-0.3,3.1-2.4,5.4-5.5,6.1c-2.8,0.6-5.8-0.8-7.2-3.3c-0.3-0.6-0.7-0.6-1.2-0.6
			c-2.9,0.4-5.8,0.6-8.7,0.5C9,36,6.4,35.6,3.9,34.4c-2.1-1.1-3.5-2.7-3.8-5.1C0.1,29.2,0,29.1,0,29C0,28.5,0,28,0,27.5z M31.2,32.8
			c0-2.1-1.7-3.8-3.7-3.8c-2.1,0-3.8,1.7-3.8,3.8c0,2.1,1.7,3.8,3.7,3.8C29.5,36.5,31.2,34.8,31.2,32.8z"/>
		<path id="XMLID_91_" d="M27.4,34.8c-1.2,0-2.1-0.9-2.1-2c0-1.2,0.9-2.1,2.1-2.1c1.2,0,2.1,0.9,2.1,2.1
			C29.5,33.9,28.6,34.8,27.4,34.8z"/>
	</g>
</g>
</svg>
