<?xml version="1.0" encoding="utf-8"?>
<!-- Generator: Adobe Illustrator 19.0.0, SVG Export Plug-In . SVG Version: 6.00 Build 0)  -->
<svg version="1.1" id="Шар_1" xmlns="http://www.w3.org/2000/svg" xmlns:xlink="http://www.w3.org/1999/xlink" x="0px" y="0px"
	 viewBox="0 0 60.1 63" style="enable-background:new 0 0 60.1 63;" xml:space="preserve">
<style type="text/css">
	.st0{fill:#EAAB00;}
	.st1{fill:none;}
	.st2{fill:#A2A2A2;}
	.st3{fill:#E62E22;}
</style>
<g id="XMLID_1_">
	<g id="XMLID_7_">
		<path id="XMLID_13_" class="st0" d="M36.7,15.7c-4.3,0-7.8-3.5-7.8-7.8S32.4,0,36.7,0s7.8,3.5,7.8,7.8S41,15.7,36.7,15.7z
			 M36.7,2.4c-3,0-5.4,2.4-5.4,5.4s2.4,5.4,5.4,5.4c3,0,5.4-2.4,5.4-5.4S39.7,2.4,36.7,2.4z"/>
	</g>
	<g id="XMLID_17_">
		<path id="XMLID_20_" class="st1" d="M51.3,39.3c-0.1-0.6,0.1-1.2-0.1-1.4c-0.8-1-1.9-2.1-2.7-3.2c-1.4-1.8-3.1-3.4-5-4.8
			c-0.2,1.1-0.4,2.2-0.5,3.2c-0.1,0.4,0,0.7,0.4,1c1.1,0.8,2.1,1.6,3.1,2.5c1.6,1.5,3.2,3.1,4.7,4.6c0.2-0.3,0.2-1,0.1-1.6
			c-0.4-0.3-0.7-0.5-0.8-0.6L51.3,39.3z"/>
		<path id="XMLID_21_" class="st1" d="M48.7,24.2c-4.5-3.5-9.7-5.4-15.4-5.7c-3.4-0.2-6.8,0.3-10.1,1.3c-2.6,0.7-5.1,1.8-7.5,3.1
			c-1.4-2-2.7-4-4.1-6c0.2-0.2,0.3-0.3,0.5-0.4c1.7-1.5,2.2-3.4,1.8-5.6c-0.6-2.6-2-4.7-4.4-6.1C7.2,3.5,4.6,4,3.3,6
			c-0.8,1.2-1.1,2.6-0.8,4c0.5,2.6,1.6,4.8,3.8,6.2c1.3,0.9,2.8,1.2,4.3,0.9c0.4-0.1,0.7,0,0.9,0.4c0.7,1.1,1.4,2.1,2.1,3.1
			c0.5,0.8,1,1.6,1.6,2.3c-1.6,1.9-1.8,2.8-0.9,4c0.8,1.2,1.5,1.3,3.9,0.4c0.7,0.9,1.3,1.8,2,2.8c0.1,0,0.1-0.1,0.2-0.1
			c-0.7-0.9-1.3-1.9-2-2.8c3.6-2,7.4-3,11.4-3.5c-0.1,1.6-0.2,3.2-0.3,4.8c-0.1,2-0.3,4-0.3,6c0,0.4-0.2,0.6-0.5,0.8
			c-5.1,2.9-9.7,6.4-13.5,10.8c-2.6,3-4.6,6.3-6,10c-0.5,1.3-0.1,3,1.9,3.3c1.5,0.2,2.3-0.2,2.9-1.6c0.5-1.2,1.1-2.4,1.7-3.6
			c2.1-3.8,5-6.9,8.4-9.6c3.3-2.7,6.8-4.9,10.6-6.7c0.2-0.1,0.6-0.2,0.8-0.1c4.5,2.6,8.4,5.8,11.4,10c2.1,3,3.4,6.3,3.6,10
			c0.1,1.5,0.8,2.3,2.2,2.5c1.4,0.2,2.9-0.6,2.9-2.4c0-0.7,0-1.5-0.1-2.2c-0.5-3.4-1.7-6.5-3.4-9.4c-2.8-4.5-6.6-8.1-11-11
			c-0.4-0.3-0.5-0.6-0.4-1.1c0.3-1.4,0.5-2.9,0.7-4.3c0.2-1.4,0.4-2.8,0.7-4.2c2.3,1.2,4.4,2.7,6.3,4.5c2,1.9,3.6,4,5.2,6.3
			c0.3,0.4,0.8,0.7,1.2,0.9c1.2,0.4,2.3-0.1,3-1.1c0.7-1,0.4-2-0.2-2.9C54.7,29.9,52,26.7,48.7,24.2z"/>
	</g>
	<path id="XMLID_26_" class="st2" d="M56.4,28.2c-2.4-3-5.3-5.6-8.5-7.6c-2.4-1.5-4.9-2.6-7.6-3.4c-0.2-0.1-0.3-0.1-0.6-0.2
		c-2.3-1.1-6.6-1-6.6-1c-0.3,0-0.5,0-0.7,0c-5.4-0.1-10.4,1.2-15.3,3.3c-0.5,0.2-0.8,0.2-1-0.3c-0.3-0.6-1-1.1-1.1-1.7
		c-0.1-0.5,0.5-1.1,0.7-1.7C17,11.6,16.3,8.1,13.6,5c-1.4-1.7-3.2-2.8-5.4-3.2C8,1.7,7.7,1.6,7.5,1.6H5.8c-0.1,0-0.1,0.1-0.2,0.1
		C4.3,1.9,3.1,2.4,2.2,3.4C0.5,5.1-0.1,7.3,0,9.7c0.1,2.4,0.9,4.6,2.5,6.4c1.9,2.2,4.2,3.5,7.1,3.7c0.2,0,0.5,0.2,0.7,0.4
		c0.5,0.7,0.9,1.4,1.4,2.1c0.3,0.4,0.3,0.7,0.1,1.2c-0.7,1.9-0.8,3.8,0.7,5.4c1.1,1.2,2.5,1.7,4.2,1.6c0.4,0,0.6,0.1,0.8,0.4
		c0.6,0.9,1.3,1.8,1.9,2.8c1.5-1,3-2,4.5-3c-0.6-0.8-1.2-1.7-1.8-2.6c1.7-0.5,3.2-1,4.9-1.4c0,0.3,0,0.4,0,0.6
		c-0.1,2-0.2,3.9-0.4,5.9c0,0.2-0.3,0.5-0.5,0.7c-4.6,2.8-8.9,6.1-12.5,10.2c-2.8,3.1-5,6.5-6.6,10.3c-0.5,1.1-0.9,2.3-0.7,3.6
		c0.3,2.1,1.9,3.8,3.9,4.2c2.5,0.5,4.9-0.8,5.8-3.1c1.3-3.2,3.1-6.1,5.5-8.6c3.7-4,8-7,12.9-9.4c0.2-0.1,0.5-0.1,0.7,0
		c3.3,2.1,6.3,4.5,8.7,7.7c2.2,2.8,3.6,6,3.8,9.6c0.1,1.2,0.5,2.2,1.3,3c0.9,1,2,1.6,3.3,1.9c0.4,0,0.9-0.1,1.3-0.1
		c0.7-0.3,1.5-0.6,2.1-1c1.8-1.3,2.4-3.2,2.1-5.4c-0.4-3-1.2-5.8-2.4-8.5c-0.1-0.1-0.2-0.3-0.3-0.5C53.9,45,52,42.3,51,41
		c-1.5-1.4-2.9-2.9-4.5-4.4c-1-0.9-2-1.7-3.1-2.5c-0.4-0.3-0.5-0.6-0.4-1c0.2-1,0.3-2.1,0.5-3.2c2,1.4,3.6,3,5,4.8
		c0.5,0.6,1.1,1.2,1.6,1.8c0.1,0.2,0.7,1,0.8,1.1c2,1.7,2.5,2.1,3.6,2.4c0.6,0.1,1.6-0.1,2.2-0.3l0.7-0.3c1.5-1,2.3-2.3,2.5-4.1
		c0-0.1,0.1-0.1,0.1-0.2v-0.8C59.7,31.8,57.9,30.1,56.4,28.2z M57.3,36.2c-0.7,1-1.8,1.5-3,1.1c-0.5-0.1-0.9-0.5-1.2-0.9
		c-1.6-2.2-3.2-4.4-5.2-6.3c-1.9-1.8-3.9-3.2-6.3-4.5c-0.2,1.4-0.4,2.8-0.7,4.2c-0.2,1.4-0.4,2.9-0.7,4.3c-0.1,0.5,0,0.8,0.4,1.1
		c4.4,3,8.2,6.5,11,11c1.8,2.9,2.9,6.1,3.4,9.4c0.1,0.7,0.1,1.4,0.1,2.2c0,1.8-1.4,2.5-2.9,2.4c-1.4-0.2-2.1-1-2.2-2.5
		c-0.2-3.7-1.6-7-3.6-10c-3-4.3-6.9-7.5-11.4-10c-0.2-0.1-0.5,0-0.8,0.1c-3.8,1.8-7.3,4-10.6,6.7c-3.3,2.7-6.2,5.9-8.4,9.6
		c-0.7,1.2-1.2,2.4-1.7,3.6c-0.6,1.4-1.4,1.8-2.9,1.6c-1.9-0.3-2.4-1.9-1.9-3.3c1.4-3.7,3.5-7,6-10c3.8-4.5,8.4-8,13.5-10.8
		c0.3-0.2,0.5-0.4,0.5-0.8c0.1-2,0.2-4,0.3-6c0.1-1.6,0.2-3.2,0.3-4.8c-4,0.5-7.8,1.5-11.4,3.5c0.7,1,1.3,1.9,2,2.8
		c-0.1,0-0.1,0.1-0.2,0.1c-0.7-0.9-1.3-1.9-2-2.8c-2.4,0.9-3.1,0.8-3.9-0.4c-0.9-1.3-0.7-2.1,0.9-4c-0.5-0.8-1-1.5-1.6-2.3
		c-0.7-1-1.4-2.1-2.1-3.1c-0.2-0.4-0.5-0.5-0.9-0.4c-1.6,0.3-3,0-4.3-0.9c-2.2-1.5-3.4-3.7-3.8-6.2c-0.3-1.5,0-2.8,0.8-4
		c1.3-2,4-2.5,6.1-1.3c2.4,1.4,3.8,3.5,4.4,6.1c0.5,2.2,0,4.1-1.8,5.6c-0.1,0.1-0.3,0.2-0.5,0.4c1.4,2,2.8,4,4.1,6
		c2.4-1.3,4.9-2.4,7.5-3.1c3.3-0.9,6.7-1.4,10.1-1.3c5.7,0.3,10.8,2.2,15.4,5.7c3.3,2.6,6.1,5.7,8.4,9.2
		C57.7,34.3,58,35.2,57.3,36.2z"/>
	<g id="XMLID_4_">
		<path id="XMLID_2_" class="st3" d="M55.8,46.4c-2.1,0-3.9-1.7-3.9-3.9c0-2.1,1.7-3.9,3.9-3.9s3.9,1.7,3.9,3.9
			C59.7,44.7,57.9,46.4,55.8,46.4z M55.8,40.8c-1,0-1.8,0.8-1.8,1.8c0,1,0.8,1.8,1.8,1.8c1,0,1.8-0.8,1.8-1.8
			C57.6,41.6,56.8,40.8,55.8,40.8z"/>
	</g>
</g>
</svg>
