<?xml version="1.0" encoding="utf-8"?>
<!-- Generator: Adobe Illustrator 19.0.0, SVG Export Plug-In . SVG Version: 6.00 Build 0)  -->
<svg version="1.1" id="Шар_1" xmlns="http://www.w3.org/2000/svg" xmlns:xlink="http://www.w3.org/1999/xlink" x="0px" y="0px"
	 viewBox="-474 476.6 49.4 49.4" style="enable-background:new -474 476.6 49.4 49.4;" xml:space="preserve">
<style type="text/css">
	.st0{fill:#FFFFFF;}
</style>
<g id="XMLID_12_">
	<g id="XMLID_6_">
		<path id="XMLID_8_" class="st0" d="M-449.3,526c-13.6,0-24.7-11.1-24.7-24.7s11.1-24.7,24.7-24.7s24.7,11.1,24.7,24.7
			S-435.7,526-449.3,526z M-449.3,477.6c-13.1,0-23.7,10.6-23.7,23.7s10.6,23.7,23.7,23.7s23.7-10.6,23.7-23.7
			S-436.2,477.6-449.3,477.6z"/>
	</g>
</g>
<g id="ptA8cr.tif">
	<g>
		<path class="st0" d="M-452,509.5c0-3.6,0-7.2,0-10.9c1.1,0,2.2,0,3.3,0c0,0.4,0,0.9,0,1.4c0.1-0.1,0.2-0.2,0.2-0.3
			c1.5-2.3,5.6-2,6.8,0.7c0.3,0.8,0.5,1.6,0.5,2.4c0,2.3,0,4.5,0,6.8c-1.1,0-2.2,0-3.3,0c0-1.1,0-2.2,0-3.3c0-1.1,0-2.2,0-3.3
			c-0.1-1.1-0.7-1.7-1.7-1.8c-1.1-0.1-2,0.3-2.3,1.3c-0.1,0.3-0.1,0.7-0.1,1c0,1.9,0,3.8,0,5.7c0,0.1,0,0.3,0,0.4
			C-449.8,509.5-450.9,509.5-452,509.5z"/>
		<path class="st0" d="M-457.5,509.5c0-0.1,0-0.3,0-0.4c0-3.3,0-6.6,0-9.9c0-0.1,0-0.3,0-0.5c1.1,0,2.2,0,3.4,0c0,0.2,0,0.3,0,0.4
			c0,3.3,0,6.7,0,10c0,0.1,0,0.3,0,0.4C-455.2,509.5-456.3,509.5-457.5,509.5z"/>
		<path class="st0" d="M-455.8,496.5c-1,0-1.7-0.7-1.7-1.7c0-1,0.7-1.7,1.7-1.7c1,0,1.7,0.7,1.7,1.7
			C-454.1,495.8-454.8,496.5-455.8,496.5z"/>
	</g>
</g>
</svg>
