<?xml version="1.0" encoding="utf-8"?>
<!-- Generator: Adobe Illustrator 19.0.0, SVG Export Plug-In . SVG Version: 6.00 Build 0)  -->
<svg version="1.1" id="Шар_1" xmlns="http://www.w3.org/2000/svg" xmlns:xlink="http://www.w3.org/1999/xlink" x="0px" y="0px"
	 viewBox="0 0 49.4 49.4" style="enable-background:new 0 0 49.4 49.4;" xml:space="preserve">
<style type="text/css">
	.st0{fill:#FFFFFF;}
</style>
<g id="XMLID_12_">
	<g id="XMLID_3_">
		<g id="XMLID_2_">
			<path id="XMLID_4_" class="st0" d="M24.9,27.5c-0.3,0-0.6-0.1-0.8-0.3l-9.3-9c-0.2-0.2-0.3-0.6-0.2-0.9c0.1-0.3,0.4-0.5,0.7-0.5
				h18.8c0.3,0,0.6,0.2,0.7,0.5s0.1,0.6-0.2,0.9l-9,9C25.5,27.4,25.2,27.5,24.9,27.5z M15.8,17.8l8.9,8.7c0.1,0.1,0.2,0.1,0.2,0
				l8.7-8.7H15.8z"/>
		</g>
		<path id="XMLID_11_" class="st0" d="M35.7,18.5c-0.3,0-0.5,0.2-0.5,0.5v12.6h-0.3L29.1,26c-0.2-0.2-0.5-0.2-0.7,0s-0.2,0.5,0,0.7
			l5.1,4.9H16.1l5-4.9c0.2-0.2,0.2-0.5,0-0.7c-0.2-0.2-0.5-0.2-0.7,0l-5.8,5.6h-0.4V18.8c0-0.3-0.2-0.5-0.5-0.5s-0.5,0.2-0.5,0.5
			v13.8h22.9V19C36.2,18.7,36,18.5,35.7,18.5z"/>
	</g>
	<g id="XMLID_6_">
		<path id="XMLID_8_" class="st0" d="M24.7,49.4C11.1,49.4,0,38.3,0,24.7S11.1,0,24.7,0s24.7,11.1,24.7,24.7S38.3,49.4,24.7,49.4z
			 M24.7,1C11.6,1,1,11.6,1,24.7s10.6,23.7,23.7,23.7s23.7-10.6,23.7-23.7S37.8,1,24.7,1z"/>
	</g>
</g>
</svg>
