<?xml version="1.0" encoding="utf-8"?>
<!-- Generator: Adobe Illustrator 19.0.0, SVG Export Plug-In . SVG Version: 6.00 Build 0)  -->
<svg version="1.1" id="Шар_1" xmlns="http://www.w3.org/2000/svg" xmlns:xlink="http://www.w3.org/1999/xlink" x="0px" y="0px"
	 viewBox="0 0 52.9 63" style="enable-background:new 0 0 52.9 63;" xml:space="preserve">
<style type="text/css">
	.st0{fill:#A7A6A7;}
	.st1{fill:#F4B000;}
	.st2{fill:#2F9ED9;}
	.st3{fill:#2D9DD8;}
	.st4{fill:#A8A7A8;}
	.st5{fill:#EAAB00;}
	.st6{fill:#E02D20;}
</style>
<g id="dJoxnH.tif">
	<g id="XMLID_2_">
		<path id="XMLID_84_" class="st0" d="M52.9,38c0,7.8,0,15.6,0,23.4c0,1-0.5,1.5-1.5,1.5c-12.4,0-24.7,0-37.1,0
			c-1.1,0-1.6-0.6-1.6-1.7c0-6.7,0-13.5,0-20.2c0-6.2,0-12.4,0-18.6c0-2.6,0-5.2,0-7.7c0-1.2,0.5-1.7,1.7-1.7c12.3,0,24.5,0,36.8,0
			c1,0,1.6,0.4,1.7,1.3c0,0.2,0,0.4,0,0.6C52.9,22.6,52.9,30.3,52.9,38z M50.2,15.8c-0.2,0-0.4,0-0.5,0c-11.2,0-22.5,0-33.7,0
			c-0.5,0-0.7,0.1-0.7,0.6c0,2.2,0,4.4,0,6.5c0,7,0,14,0,20.9c0,5.3,0,10.6,0,15.9c0,0.4,0.1,0.6,0.6,0.6c5,0,10,0,15,0
			c6.3,0,12.5,0,18.8,0c0.2,0,0.4,0,0.6,0C50.2,45.5,50.2,30.7,50.2,15.8z"/>
		<path id="XMLID_83_" class="st1" d="M45.4,6.7c0,0.9,0,1.7,0,2.6c-12,0-24,0-36.1,0c0,15.4,0,30.7,0,46.1c-0.8,0-1.6,0-2.4,0
			c-0.1,0-0.3-0.4-0.3-0.6c0-1.7,0-3.5,0-5.2c0-12.6,0-25.3,0-37.9c0-1.1,0-2.2,0-3.4c0-1.1,0.5-1.6,1.6-1.6c12.1,0,24.3,0,36.4,0
			C44.9,6.7,45.2,6.7,45.4,6.7z"/>
		<path id="XMLID_82_" class="st2" d="M2.7,48.5c-1,0-1.8,0-2.7,0c0-0.2,0-0.4,0-0.6C0,32.5,0,17.1,0,1.7C0,0.5,0.5,0,1.6,0
			C13.8,0,26,0,38.2,0c0.1,0,0.3,0,0.4,0c0,0.9,0,1.7,0,2.6c-12,0-23.9,0-36,0C2.7,17.9,2.7,33.2,2.7,48.5z"/>
		<path id="XMLID_74_" class="st3" d="M45.4,21.4c0,0.9,0,1.7,0,2.6c-8.5,0-16.9,0-25.3,0c0-0.9,0-1.7,0-2.6
			C28.5,21.4,36.9,21.4,45.4,21.4z"/>
		<path id="XMLID_73_" class="st4" d="M20.1,31.8c0-0.9,0-1.7,0-2.6c8.4,0,16.9,0,25.3,0c0,0.8,0,1.7,0,2.6
			C37,31.8,28.6,31.8,20.1,31.8z"/>
		<path id="XMLID_72_" class="st5" d="M20.1,39.7c0-0.9,0-1.7,0-2.6c8.4,0,16.8,0,25.3,0c0,0.8,0,1.7,0,2.6
			C37,39.7,28.6,39.7,20.1,39.7z"/>
		<path id="XMLID_71_" class="st4" d="M45.4,47.4c-8.4,0-16.9,0-25.3,0c0-0.9,0-1.7,0-2.6c8.4,0,16.8,0,25.3,0
			C45.4,45.7,45.4,46.6,45.4,47.4z"/>
		<path id="XMLID_70_" class="st6" d="M45.4,52.7c0,0.9,0,1.7,0,2.6c-8.4,0-16.9,0-25.3,0c0-0.8,0-1.7,0-2.6
			C28.5,52.7,36.9,52.7,45.4,52.7z"/>
	</g>
</g>
</svg>
