<?xml version="1.0" encoding="utf-8"?>
<!-- Generator: Adobe Illustrator 19.0.0, SVG Export Plug-In . SVG Version: 6.00 Build 0)  -->
<svg version="1.1" id="Шар_1" xmlns="http://www.w3.org/2000/svg" xmlns:xlink="http://www.w3.org/1999/xlink" x="0px" y="0px"
	 viewBox="0 0 70 58.3" style="enable-background:new 0 0 70 58.3;" xml:space="preserve">
<style type="text/css">
	.st0{fill:#FFFFFF;}
</style>
<g id="TvlmZx.tif">
	<g id="XMLID_4_">
		<path id="XMLID_72_" class="st0" d="M70,2.3c0,17.9,0,35.7,0,53.6c-0.7,1.8-2,2.3-3.9,2.3c-13.3-0.1-26.6,0-40,0
			c-7.7,0-15.3,0-23,0c-1.2,0-2.1-0.4-2.7-1.5c-0.2-0.3-0.3-0.6-0.4-0.8C0,38.1,0,20.2,0,2.3C0.7,0.5,2,0,4,0
			c13.1,0.1,26.3,0,39.4,0c7.9,0,15.7,0,23.6,0c1.5,0,2.4,0.7,2.9,2C69.9,2.2,69.9,2.3,70,2.3z M67.1,55.4c0-14.6,0-29.2,0-43.8
			c-0.4,0-0.7,0-1,0c-20.8,0-41.6,0-62.4,0c-0.7,0-0.8,0.2-0.8,0.8c0,14.1,0,28.2,0,42.2c0,0.2,0,0.4,0,0.7
			C24.3,55.4,45.7,55.4,67.1,55.4z M43.7,5.8c0,1.6,1.4,3,3,2.9c1.6,0,3-1.4,2.9-3c0-1.6-1.4-2.9-3-2.9C45,2.9,43.7,4.2,43.7,5.8z
			 M61.2,5.8c0,1.6,1.3,3,2.9,3c1.6,0,3-1.3,3-3c0-1.6-1.3-2.9-3-3C62.5,2.9,61.2,4.2,61.2,5.8z M52.5,5.8c0,1.6,1.3,3,2.9,3
			c1.6,0,3-1.4,3-2.9c0-1.6-1.3-3-2.9-3C53.8,2.8,52.5,4.2,52.5,5.8z"/>
		<path id="XMLID_60_" d="M50.2,30.9c-0.9-1.7-0.8-3,0.4-4c1-0.9,2.5-0.9,3.5-0.1c1.1,0.8,1.5,2.2,1,3.5c-0.6,1.3-1.8,1.9-3.5,1.6
			c-1.2,3.9-2.4,7.8-3.5,11.8c0.2,0.1,0.3,0.1,0.4,0.1c0.8,0.3,1.2,0.8,1,1.6c-0.1,0.7-0.7,1.2-1.4,1.2c-1.5,0-3.1,0-4.6,0
			c-7.1,0-14.2,0-21.3,0c-1.1,0-1.8-0.6-1.7-1.6c0.1-0.6,0.4-1,1.4-1.4c-1.2-3.9-2.3-7.8-3.5-11.7c-2,0.1-3.1-0.4-3.6-1.8
			c-0.4-1.2,0-2.5,1-3.3c1-0.7,2.4-0.7,3.4,0c1.2,0.9,1.4,2.1,0.6,4c2.5,1.8,6.1,2.3,9.1,0.4c1.8-1.1,3.1-2.7,4.2-4.4
			c0.7-1.1,1.3-2.2,1.9-3.3c0.5,0.9,1,1.8,1.5,2.7c1.4,2.3,3,4.4,5.6,5.6C44.9,33.1,47.6,32.5,50.2,30.9z M35.1,32
			c-1,1-1.9,1.9-2.8,2.8c-0.1,0.1-0.1,0.4,0,0.6c0.8,1.7,1.6,3.3,2.5,5c0.1,0.1,0.2,0.2,0.3,0.4c0.9-1.9,1.8-3.7,2.7-5.5
			c0.1-0.1,0-0.4-0.1-0.6C36.8,33.8,36,32.9,35.1,32z"/>
		<path id="XMLID_59_" d="M37.9,20.4c0,1.6-1.2,2.8-2.8,2.8c-1.7,0-2.9-1.2-2.9-2.9c0-1.6,1.2-2.8,2.9-2.8
			C36.6,17.5,37.9,18.8,37.9,20.4z"/>
	</g>
</g>
</svg>
