<?xml version="1.0" encoding="utf-8"?>
<!-- Generator: Adobe Illustrator 19.0.0, SVG Export Plug-In . SVG Version: 6.00 Build 0)  -->
<svg version="1.1" id="Шар_1" xmlns="http://www.w3.org/2000/svg" xmlns:xlink="http://www.w3.org/1999/xlink" x="0px" y="0px"
	 viewBox="-474 476.6 49.4 49.4" style="enable-background:new -474 476.6 49.4 49.4;" xml:space="preserve">
<style type="text/css">
	.st0{fill:#FFFFFF;}
</style>
<g id="XMLID_12_">
	<g id="XMLID_6_">
		<path id="XMLID_8_" class="st0" d="M-449.3,526c-13.6,0-24.7-11.1-24.7-24.7s11.1-24.7,24.7-24.7s24.7,11.1,24.7,24.7
			S-435.7,526-449.3,526z M-449.3,477.6c-13.1,0-23.7,10.6-23.7,23.7s10.6,23.7,23.7,23.7s23.7-10.6,23.7-23.7
			S-436.2,477.6-449.3,477.6z"/>
	</g>
</g>
<g id="zHnFoe.tif">
	<g>
		<path class="st0" d="M-440.7,495.9c0,3.6,0,7.2,0,10.8c0,0,0,0.1,0,0.1c-0.2,1.8-1.5,3-3.3,3c-3.5,0-7,0-10.5,0
			c-1.9,0-3.3-1.5-3.3-3.3c0-3.5,0-7,0-10.4c0-0.2,0-0.4,0.1-0.7c0.3-1.6,1.6-2.7,3.3-2.7c1.7,0,3.5,0,5.2,0c1.7,0,3.5,0,5.2,0
			c1.5,0,2.8,1,3.2,2.4C-440.8,495.4-440.8,495.6-440.7,495.9z M-456.2,499.6c0,0.1,0,0.1,0,0.2c0,2.3,0,4.5,0,6.8
			c0,1,0.7,1.7,1.7,1.7c3.5,0,6.9,0,10.4,0c1,0,1.7-0.7,1.7-1.7c0-2.2,0-4.5,0-6.7c0-0.1,0-0.1,0-0.2c-0.9,0-1.7,0-2.5,0
			c0.7,2.3,0.2,4.3-1.9,5.7c-1.6,1.1-3.7,1-5.2-0.1c-0.8-0.6-1.3-1.3-1.7-2.2c-0.4-1.1-0.4-2.2,0-3.4
			C-454.5,499.6-455.3,499.6-456.2,499.6z M-446.3,501.3c0-1.6-1.3-3-3-3c-1.7,0-3.1,1.3-3.1,2.9c0,1.7,1.3,3.1,3,3.1
			C-447.7,504.3-446.3,503-446.3,501.3z M-445.6,494.7c0,1,0,1.9,0,2.9c1,0,1.9,0,2.9,0c0-1,0-1.9,0-2.9
			C-443.7,494.7-444.6,494.7-445.6,494.7z"/>
	</g>
</g>
</svg>
