<?xml version="1.0" encoding="utf-8"?>
<!-- Generator: Adobe Illustrator 19.0.0, SVG Export Plug-In . SVG Version: 6.00 Build 0)  -->
<svg version="1.1" id="Шар_1" xmlns="http://www.w3.org/2000/svg" xmlns:xlink="http://www.w3.org/1999/xlink" x="0px" y="0px"
	 viewBox="0 0 24.5 34" style="enable-background:new 0 0 24.5 34;" xml:space="preserve">
<style type="text/css">
	.st0{fill:#FFFFFF;}
</style>
<g id="XMLID_1_">
	<g>
		<path class="st0" d="M12.3,34L2.5,20C0.8,17.5,0,15.1,0,12.3C0,5.5,5.5,0,12.3,0s12.3,5.5,12.3,12.3c0,2.6-0.9,5.4-2.6,7.9l0,0
			L12.3,34z M12.3,1.5c-6,0-10.8,4.8-10.8,10.8c0,2.6,0.7,4.6,2.3,6.9l8.5,12.2l8.5-12.1c1.5-2.2,2.4-4.7,2.4-7
			C23.1,6.3,18.2,1.5,12.3,1.5z"/>
	</g>
	<g>
		<path id="XMLID_4_" class="st0" d="M8.7,12.8C8.7,12.8,8.7,12.8,8.7,12.8c0-3.1,2.5-5.6,5.5-5.6c1.8,0,3.4,0.8,4.4,2.2
			c-1.1-2.2-3.3-3.8-6-3.9c-0.1,0-0.2,0-0.2,0c-2.5,0-4.6,2.1-4.6,4.6C7.8,11.1,8.1,12.1,8.7,12.8z"/>
		<path id="XMLID_3_" class="st0" d="M7.3,10.1c0-1.4,0.6-2.7,1.5-3.6c-2,1.2-3.4,3.4-3.4,5.9c0,3.8,3.1,6.9,6.9,6.9l1.7-2.1
			l-1.7-2.1C9.6,15.1,7.3,12.9,7.3,10.1z"/>
		<path id="XMLID_2_" class="st0" d="M14.2,7.7l-1.3,1.6l1.3,1.6c2,0,3.7,1.6,3.7,3.7c0,0.9-0.3,1.7-0.9,2.4
			c1.3-0.9,2.2-2.4,2.2-4.2C19.3,9.9,17,7.7,14.2,7.7z"/>
	</g>
</g>
</svg>
