<?xml version="1.0" encoding="utf-8"?>
<!-- Generator: Adobe Illustrator 19.0.0, SVG Export Plug-In . SVG Version: 6.00 Build 0)  -->
<svg version="1.1" id="Шар_1" xmlns="http://www.w3.org/2000/svg" xmlns:xlink="http://www.w3.org/1999/xlink" x="0px" y="0px"
	 viewBox="0 0 29.5 29.5" style="enable-background:new 0 0 29.5 29.5;" xml:space="preserve">
<style type="text/css">
	.st0{fill:#FFFFFF;}
</style>
<g id="bZHlpY.tif">
	<g id="XMLID_2_">
		<path id="XMLID_131_" class="st0" d="M29.5,17.2c-0.3,0-0.6,0-0.9,0c-0.2,0-0.3-0.1-0.3-0.3c0-1.3,0-2.6,0-3.9c0-2.6,0-5.2,0-7.8
			c0-0.3-0.1-0.3-0.3-0.3c-6.7,0-13.4,0-20.1,0c-0.5,0-1,0-1.5,0c-0.2,0-0.2,0.1-0.2,0.2c0,1.6,0,3.1,0,4.7c0,1.6,0,3.3,0,4.9
			c0,1.8,0,3.6,0,5.4c0,0.9,0,1.8,0,2.7c0,0.1,0,0.3,0,0.5c3.3,0,6.5,0,9.8,0c0,0.4,0,0.8,0,1.2c-0.5,0-1,0-1.4,0
			c-2.2,0-4.5,0-6.7,0c-2.2,0-4.4,0-6.5,0c-0.7,0-1.1-0.4-1.3-1C0,16.1,0,8.5,0,1c0.2-0.5,0.5-0.9,1-1c9.1,0,18.3,0,27.4,0
			c0.5,0.2,0.9,0.5,1,1C29.5,6.4,29.5,11.8,29.5,17.2z M4.9,23.3c0-6.2,0-12.3,0-18.4c-0.1,0-0.2,0-0.3,0c-1,0-2.1,0-3.1,0
			C1.3,4.9,1.2,5,1.2,5.2c0,5.4,0,10.8,0,16.3c0,0.6,0,1.2,0,1.8C2.4,23.3,3.7,23.3,4.9,23.3z M19.7,3.7c0.7,0,1.3-0.6,1.3-1.2
			c0-0.7-0.6-1.2-1.2-1.3c-0.7,0-1.3,0.5-1.3,1.2C18.4,3.1,19,3.7,19.7,3.7z M23.4,3.7c0.7,0,1.2-0.6,1.2-1.3c0-0.7-0.6-1.3-1.3-1.2
			c-0.7,0-1.2,0.6-1.2,1.3C22.1,3.2,22.7,3.7,23.4,3.7z M27,3.7c0.7,0,1.3-0.6,1.3-1.2c0-0.7-0.6-1.3-1.2-1.3
			c-0.7,0-1.2,0.6-1.2,1.2C25.8,3.1,26.3,3.7,27,3.7z"/>
		<path id="XMLID_128_" d="M22.1,29.5c0-0.4,0-0.8,0-1.2c0-0.1-0.1-0.2-0.2-0.2c-0.3-0.1-0.6-0.3-1-0.4c-0.1,0-0.2,0-0.3,0.1
			c-0.3,0.3-0.5,0.5-0.8,0.8c-0.6-0.6-1.2-1.2-1.7-1.8c0.3-0.3,0.5-0.5,0.8-0.8c0.1-0.1,0.1-0.2,0-0.3c-0.1-0.3-0.3-0.6-0.4-0.9
			c-0.1-0.2-0.1-0.2-0.3-0.2c-0.3,0-0.6,0-1,0c-0.1,0-0.2,0-0.2-0.2c0-0.7,0-1.5,0-2.2c0.4,0,0.7,0,1.1,0c0.2,0,0.3,0,0.4-0.3
			c0.1-0.3,0.3-0.7,0.4-1.1c-0.3-0.3-0.6-0.6-1-0.9c0.6-0.6,1.2-1.2,1.8-1.8c0.3,0.3,0.6,0.6,0.9,0.9c0.4-0.2,0.8-0.3,1.2-0.5
			c0.1,0,0.1-0.1,0.1-0.2c0-0.4,0-0.8,0-1.2c0.2,0,0.3,0,0.5,0c0.5,0,1.1,0,1.6,0c0.2,0,0.3,0.1,0.3,0.3c0,0.3,0,0.6,0,0.8
			c0,0.2,0,0.3,0.2,0.3c0.3,0.1,0.6,0.2,0.9,0.4c0.1,0.1,0.2,0.1,0.3,0c0.3-0.3,0.5-0.6,0.8-0.8c0.6,0.6,1.1,1.1,1.8,1.8
			c-0.3,0.2-0.5,0.5-0.8,0.8c-0.1,0.1-0.2,0.2-0.1,0.4c0.1,0.3,0.2,0.6,0.4,0.9c0,0.1,0.1,0.2,0.2,0.2c0.4,0,0.8,0,1.2,0
			c0,0.8,0,1.6,0,2.4c-0.4,0-0.8,0-1.2,0c-0.1,0-0.2,0-0.3,0.2c-0.1,0.3-0.2,0.6-0.4,0.9c-0.1,0.2-0.1,0.3,0.1,0.4
			c0.3,0.3,0.5,0.5,0.8,0.8c-0.6,0.6-1.2,1.2-1.7,1.7c-0.3-0.3-0.5-0.5-0.8-0.8c-0.1-0.1-0.2-0.2-0.4-0.1c-0.3,0.1-0.6,0.3-0.8,0.4
			c-0.2,0.1-0.2,0.1-0.2,0.3c0,0.4,0,0.8,0,1.2C23.7,29.5,22.9,29.5,22.1,29.5z M20.3,23.3c0,1.7,1.4,3.1,3.1,3.1
			c1.7,0,3.1-1.4,3.1-3.1c0-1.8-1.4-3.1-3.2-3.1C21.6,20.3,20.3,21.7,20.3,23.3z"/>
		<path id="XMLID_124_" class="st0" d="M22.1,13.5c-0.4,0-0.7,0-1.1,0c-2.7,0-5.3,0-8,0c-0.1,0-0.2,0-0.2,0c-0.5,0-0.5,0-0.5-0.6
			c0-0.6,0-0.6,0.6-0.6c2,0,4.1,0,6.1,0c0.9,0,1.8,0,2.7,0c0.2,0,0.3,0.1,0.3,0.3C22.1,12.9,22.1,13.2,22.1,13.5z"/>
		<path id="XMLID_123_" class="st0" d="M14.7,14.8c0,0.4,0,0.8,0,1.2c-2.4,0-4.9,0-7.3,0c0-0.4,0-0.8,0-1.2
			C9.8,14.8,12.3,14.8,14.7,14.8z"/>
		<path id="XMLID_122_" class="st0" d="M16,14.8c2.1,0,4.1,0,6.1,0c0,0.4,0,0.8,0,1.2c-0.1,0-0.2,0-0.2,0c-1.8,0-3.7,0-5.5,0
			c-0.2,0-0.3-0.1-0.3-0.3C16,15.4,16,15.1,16,14.8z"/>
		<path id="XMLID_121_" class="st0" d="M16.2,11c0-0.3,0-0.6,0-0.9c0-0.1,0.1-0.2,0.2-0.2c0.5-0.2,1.1-0.4,1.7-0.6
			c0.1,0,0.2-0.1,0.3-0.1c-0.4-0.2-0.8-0.3-1.1-0.4c-0.1,0-0.3-0.1-0.4-0.1c-0.7-0.3-0.8-0.4-0.6-1.2c0.3,0.1,0.6,0.3,1,0.4
			c0.7,0.3,1.4,0.6,2.1,0.9c0.2,0.1,0.2,0.1,0.2,0.3c0,0.7,0,0.6-0.6,0.9c-0.8,0.3-1.6,0.7-2.4,1C16.4,10.9,16.3,11,16.2,11z"/>
		<path id="XMLID_120_" class="st0" d="M10.9,7.4c0,0.3,0,0.6,0,0.9c0,0.1-0.1,0.2-0.2,0.2c-0.5,0.2-1.1,0.4-1.6,0.6
			C9,9.1,8.9,9.2,8.8,9.2C8.9,9.3,8.9,9.3,9,9.3c0.6,0.2,1.1,0.4,1.7,0.6c0.2,0.1,0.2,0.1,0.2,0.3c0,0.3,0,0.5,0,0.8
			c-0.6-0.2-1.1-0.5-1.6-0.7c-0.5-0.2-0.9-0.4-1.4-0.6C7.7,9.7,7.7,9.6,7.7,9.5c0-0.7,0-0.7,0.6-0.9c0.8-0.3,1.5-0.6,2.3-1
			C10.6,7.5,10.7,7.5,10.9,7.4z"/>
		<path id="XMLID_119_" class="st0" d="M7.4,13.5c0-0.4,0-0.8,0-1.1c1.2,0,2.4,0,3.6,0c0,0.4,0,0.7,0,1.1
			C9.8,13.5,8.6,13.5,7.4,13.5z"/>
		<path id="XMLID_118_" class="st0" d="M12.5,9.8c0-0.4,0-0.7,0-1c0-0.1,0.1-0.1,0.2-0.1c0.6,0,1.3,0,1.9,0c0.1,0,0.2,0.1,0.2,0.2
			c0,0.3,0,0.6,0,1C14,9.8,13.2,9.8,12.5,9.8z"/>
		<path id="XMLID_105_" class="st0" d="M3.7,14.8c0,0.4,0,0.8,0,1.2c-0.4,0-0.8,0-1.2,0c0-0.4,0-0.8,0-1.2
			C2.9,14.8,3.3,14.8,3.7,14.8z"/>
		<path id="XMLID_104_" class="st0" d="M2.5,18.4c0-0.4,0-0.8,0-1.2c0.4,0,0.8,0,1.2,0c0,0.4,0,0.8,0,1.2
			C3.3,18.4,2.9,18.4,2.5,18.4z"/>
		<path id="XMLID_103_" class="st0" d="M2.5,11c0-0.4,0-0.8,0-1.2c0.4,0,0.8,0,1.2,0c0,0.4,0,0.8,0,1.2C3.3,11,2.9,11,2.5,11z"/>
		<path id="XMLID_102_" class="st0" d="M3.7,8.6c-0.4,0-0.8,0-1.2,0c0-0.4,0-0.8,0-1.2c0.4,0,0.8,0,1.2,0C3.7,7.8,3.7,8.2,3.7,8.6z"
			/>
		<path id="XMLID_101_" class="st0" d="M3.7,13.5c-0.4,0-0.8,0-1.2,0c0-0.4,0-0.8,0-1.2c0.3,0,0.7,0,1,0c0,0,0.1,0.1,0.1,0.1
			C3.7,12.8,3.7,13.1,3.7,13.5z"/>
		<path id="XMLID_100_" class="st0" d="M3.7,19.7c0,0.4,0,0.8,0,1.2c-0.4,0-0.7,0-1,0c-0.1,0-0.1-0.1-0.1-0.2c0-0.3,0-0.6,0-0.8
			c0-0.1,0.1-0.2,0.1-0.2C3,19.7,3.3,19.7,3.7,19.7z"/>
	</g>
</g>
</svg>
