<?xml version="1.0" encoding="utf-8"?>
<!-- Generator: Adobe Illustrator 19.0.0, SVG Export Plug-In . SVG Version: 6.00 Build 0)  -->
<svg version="1.1" id="Шар_1" xmlns="http://www.w3.org/2000/svg" xmlns:xlink="http://www.w3.org/1999/xlink" x="0px" y="0px"
	 viewBox="0 0 59.9 63" style="enable-background:new 0 0 59.9 63;" xml:space="preserve">
<style type="text/css">
	.st0{fill:#A7A6A7;}
	.st1{fill:#2F9ED9;}
	.st2{fill:#E62E22;}
</style>
<g id="zee3Af.tif">
	<g id="XMLID_2_">
		<path id="XMLID_52_" class="st0" d="M28.8,63c-0.4-0.1-0.8-0.1-1.2-0.3c-2.4-0.8-4.3-2.1-4.9-4.6c-0.2-1.1-0.1-2.3-0.1-3.4
			c0-0.9,0-1.7,0-2.7c-0.3,0.1-0.5,0.2-0.6,0.3c-3.4,2-6.7,4-10.1,5.9c-3.1,1.7-6.8,1.9-9.7-0.5C0.8,56.6,0,55.2,0,53.4
			c0-11.4,0-22.8,0-34.2c0-1,0-2,0-3c0-1.3,0.6-2.2,1.6-2.8c7.7-4.3,15.3-8.6,23-13c0.6-0.3,1.1-0.4,1.7-0.1
			c0.5,0.3,0.6,0.8,0.5,1.3c-0.1,0.3-0.3,0.6-0.5,1c0.6,0.6,1.5,0.8,2.3,0.8c1.8,0.1,3.6,0,5.4,0c0.4,0,0.8-0.2,1.1-0.4
			c0.6-0.3,1.1-0.4,1.6,0c0.5,0.4,0.6,0.9,0.6,1.6c0,1.6,0,3.1,0,4.8c0.4-0.2,0.8-0.5,1.2-0.7C41.4,7,44.2,5.4,47,3.8
			c0.9-0.5,1.5-0.5,2,0.2c0.5,0.6,0.3,1.3-0.4,2c0.8,0.7,1.7,0.9,2.7,0.9c1.6,0.1,3.2,0.1,4.8,0c0.5,0,1.1-0.3,1.6-0.6
			c1.3-0.7,2.3-0.1,2.3,1.4c0,12.5,0,25.1,0,37.6c0,0.3,0,0.6,0,0.9c0,0.6-0.3,1.1-0.8,1.4c-8.3,4.7-16.5,9.5-24.8,14.2
			c-1,0.6-2.3,0.7-3.5,1.1c-0.2,0.1-0.4,0.1-0.5,0.1C29.8,63,29.3,63,28.8,63z M57.3,9.6C57,9.8,56.8,9.9,56.6,10
			c-1.1,0.6-2.1,1.2-3.2,1.8c-5.5,3.2-11,6.3-16.4,9.6c-2.8,1.7-5.8,2-8.9,1.7c-1-0.1-1.9-0.4-2.9-0.5c0,0.1,0,0.3,0,0.4
			c0,1.3,0,2.7,0,4c0,5.2,0,10.5,0,15.7c0,4.7,0,9.5,0,14.2c0,0.6,0.2,1.2,0.5,1.7c0.6,0.9,1.6,1.5,2.7,1.7c1.8,0.4,3.5-0.1,5-1
			c7.7-4.4,15.4-8.8,23.1-13.2c0.5-0.3,0.7-0.6,0.7-1.2c0-9.6,0-19.2,0-28.8C57.3,13.9,57.3,11.8,57.3,9.6z M2.7,19c0,0,0,0.1,0,0.2
			c0,11.5,0,22.9,0,34.4c0,0.9,0.4,1.6,1,2.1c2.3,1.8,4.7,1.5,7,0.3c3.9-2.2,7.7-4.5,11.5-6.7c0.2-0.1,0.4-0.4,0.4-0.7
			c0-1.9,0-3.8,0-5.7c0-4.4,0-8.8,0-13.2c0-3.3-0.1-6.7-0.2-10c0-0.2,0-0.3,0-0.5c0.3-1,0.8-1.8,1.8-2.4c3.3-1.9,6.7-3.8,10-5.6
			c0.2-0.1,0.5-0.3,0.5-0.4c0-1.4,0-2.8,0-4.3c-0.3,0.1-0.5,0.2-0.6,0.3c-1.2,0.7-2.3,1.3-3.5,2c-5.4,3.1-10.8,6.2-16.1,9.3
			c-2.4,1.4-5,1.9-7.7,1.7C5.4,19.5,4.1,19.2,2.7,19z M23.8,3.8c-7.1,4-14.2,8-21.3,12c0.2,0.2,0.3,0.3,0.4,0.3
			C5,16.9,7.1,17.2,9.3,17c1.1-0.1,2.2-0.4,3.1-0.9c5.5-3.1,11-6.3,16.4-9.5c0.2-0.1,0.4-0.2,0.6-0.4C27.4,5.8,25.2,5.7,23.8,3.8z
			 M46.3,7.3c-0.2,0.1-0.4,0.2-0.6,0.3c-3.3,1.9-6.7,3.8-10,5.7c-3.3,1.9-6.7,3.7-10,5.6c-0.2,0.1-0.3,0.3-0.4,0.5
			c0.2,0.1,0.3,0.3,0.5,0.4c3.5,1.2,6.9,1.3,10.3-0.8c4.9-3,9.9-5.8,14.9-8.7c0.3-0.2,0.6-0.4,1-0.6C49.8,9.3,47.6,9.2,46.3,7.3z"/>
		<path id="XMLID_43_" class="st1" d="M33.5,40.4c0-4.8,0-9.6,0-14.5c0-1,0.5-1.5,1.3-1.5c0.8,0,1.3,0.5,1.3,1.5
			c0,9.7,0,19.4,0,29.1c0,0.9-0.5,1.5-1.3,1.5c-0.8,0-1.3-0.5-1.3-1.5C33.5,50.1,33.5,45.3,33.5,40.4z"/>
		<path id="XMLID_42_" class="st2" d="M11.3,38c0-4.7,0-9.4,0-14.2c0-0.9,0.5-1.6,1.3-1.6c0.8,0,1.3,0.6,1.3,1.5
			c0,9.4,0,18.8,0,28.3c0,0.8-0.3,1.3-1,1.5c-0.6,0.2-1.1-0.1-1.4-0.6c-0.2-0.2-0.2-0.6-0.2-0.9C11.3,47.4,11.3,42.7,11.3,38z"/>
	</g>
</g>
</svg>
