<?xml version="1.0" encoding="utf-8"?>
<!-- Generator: Adobe Illustrator 19.0.0, SVG Export Plug-In . SVG Version: 6.00 Build 0)  -->
<svg version="1.1" id="Шар_1" xmlns="http://www.w3.org/2000/svg" xmlns:xlink="http://www.w3.org/1999/xlink" x="0px" y="0px"
	 viewBox="0 0 65.2 67.9" style="enable-background:new 0 0 65.2 67.9;" xml:space="preserve">
<style type="text/css">
	.st0{fill:#FFFFFF;}
</style>
<g id="XMLID_1_">
	<path id="XMLID_31_" class="st0" d="M23.8,61.1c-1.1,0-2-1-1.9-2.1c0.1-1.1,1-1.9,2-1.9c1.1,0,2,1,1.9,2.1
		C25.8,60.3,24.9,61.1,23.8,61.1z"/>
	<g id="XMLID_3_">
		<path id="XMLID_5_" class="st0" d="M39.7,53.5H5.8V6.6h33.9V53.5z M6.6,52.6h32.2V7.5H6.6V52.6z"/>
	</g>
	<g id="XMLID_2_">
		<path id="XMLID_4_" d="M39.5,58.7l6.9,2.7v3l-9.7-4V57l9.7-4v3L39.5,58.7z"/>
		<path id="XMLID_10_" d="M46.1,67.9l7-19.6h3.6l-7,19.6H46.1z"/>
		<path id="XMLID_12_" d="M62.4,58.5l-6.9-2.7v-3l9.7,4v3.4l-9.7,4v-3L62.4,58.5z"/>
	</g>
	<path id="XMLID_9_" class="st0" d="M36.4,64.8c0-0.2-0.2-0.3-0.3-0.3c-9.9,0-19,0-28.9,0c-2.9,0-4.5-1.6-4.5-4.5
		c0-17.6,0-35.1,0-52.7c0-3,1.6-4.6,4.6-4.6c10.5,0,21,0,31.5,0c2.9,0,4.5,1.6,4.5,4.5c0,8.8,0,17.6,0,26.4c0,8.1,0,6.1,0,14.2
		c0,0.2,0.2,0.3,0.4,0.3l1.9-0.7c0.2-0.1,0.3-0.2,0.3-0.4V5.6c-0.1-0.2-0.1-0.3-0.2-0.5c-0.7-2.6-2.4-4.2-4.9-4.9
		c-0.2,0-0.4-0.1-0.5-0.2H5.6C5.5,0.1,5.3,0.1,5.1,0.2C2.5,0.9,0.9,2.5,0.2,5.1c0,0.2-0.1,0.3-0.2,0.5v55.8c0.1,0.2,0.1,0.3,0.2,0.5
		c0.7,2.6,2.4,4.2,4.9,4.9c0.2,0,0.4,0.1,0.5,0.2h30.5c0.2,0,0.3-0.1,0.4-0.3C36.5,66.1,36.4,65.5,36.4,64.8z"/>
</g>
</svg>
