<?xml version="1.0" encoding="utf-8"?>
<!-- Generator: Adobe Illustrator 19.0.0, SVG Export Plug-In . SVG Version: 6.00 Build 0)  -->
<svg version="1.1" id="Шар_1" xmlns="http://www.w3.org/2000/svg" xmlns:xlink="http://www.w3.org/1999/xlink" x="0px" y="0px"
	 viewBox="0 0 57 63" style="enable-background:new 0 0 57 63;" xml:space="preserve">
<style type="text/css">
	.st0{fill:#A8A7A8;}
	.st1{fill:#A3A2A2;}
	.st2{fill:#E62E22;}
	.st3{fill:#2C98D3;}
	.st4{fill:#2D9AD4;}
	.st5{fill:#F4B000;}
</style>
<g id="i1P2Wt.tif">
	<g id="XMLID_3_">
		<path id="XMLID_136_" class="st0" d="M7.2,63c-1.1-0.4-1.3-0.6-1.3-1.8c0-0.8,0-1.6,0-2.3c0,0,0-0.1-0.1-0.2c-0.7,0-1.4,0-2.1,0
			c-1.1,0-1.5-0.5-1.5-1.6c0-6.4,0-12.8,0-19.2c0-0.2,0-0.5,0-0.8c-0.3,0-0.5,0-0.7,0C0.5,36.9,0,36.4,0,35.5c0-1.8,0-3.7,0-5.5
			c0-0.8,0.6-1.4,1.4-1.4c1.8,0,3.6,0,5.5,0c-1.1-0.5-0.9-1.4-0.9-2.3c0-8.2,0-16.4,0-24.7c0-1,0.4-1.7,1.7-1.7c4,0,7.9,0,11.9,0
			c1,0,1.5,0.5,1.5,1.5c0,8.5,0,16.9,0,25.4c0,0.8-0.2,1.4-0.9,1.8c0.2,0,0.4,0,0.7,0c11.6,0,23.1,0,34.7,0c1.2,0,1.6,0.5,1.6,1.6
			c0,1.7,0,3.4,0,5.1c0,1-0.5,1.6-1.6,1.6c-1.4,0-2.8,0-4.2,0c-0.2,0-0.4,0-0.7,0c0,0.3,0,0.5,0,0.8c0,7.8,0,15.5,0,23.3
			c0,1.2-0.2,1.5-1.3,1.9c-0.1,0-0.2,0-0.3,0c-0.9-0.3-1.2-0.9-1.2-1.8c0-7.4,0-14.9,0-22.3c0-0.6,0-1.2,0-1.8c-8.4,0-16.8,0-25.2,0
			c0,0.3,0,0.5,0,0.8c0,6.3,0,12.7,0,19c0,1.4-0.4,1.8-1.7,1.8c-3.5,0-7,0-10.5,0c-0.6,0-1.2,0-1.9,0c0,0.9,0,1.7,0,2.5
			c0,1.2-0.2,1.4-1.3,1.9C7.3,63,7.2,63,7.2,63z M8.6,2.7c0,7.8,0,15.5,0,23.2c3.2,0,6.4,0,9.7,0c0-7.8,0-15.5,0-23.2
			C15,2.7,11.9,2.7,8.6,2.7z M2.7,34.2c0.5,0,0.9,0,1.4,0c4,0,8.1,0,12.1,0c2.8,0,5.5,0,8.3,0c2.2,0,4.5,0,6.7,0c1.9,0,3.8,0,5.7,0
			c2.4,0,4.7,0,7.1,0c1.9,0,3.9,0,5.8,0c1.3,0,2.7,0,4,0c0.3,0,0.6-0.1,0.6-0.5c0-0.8,0-1.6,0-2.4c-17.3,0-34.4,0-51.6,0
			C2.7,32.3,2.7,33.2,2.7,34.2z M20,45.2c0-2.7,0-5.4,0-8.1c-5.1,0-10.1,0-15.2,0c0,2.7,0,5.4,0,8.1C9.9,45.2,14.9,45.2,20,45.2z
			 M20,55.9c0-2.7,0-5.3,0-8c-5.1,0-10.1,0-15.2,0c0,2.7,0,5.3,0,8C9.9,55.9,14.9,55.9,20,55.9z"/>
		<path id="XMLID_132_" class="st1" d="M35.2,25.8c0-0.4,0-0.8,0-1.2c-1.2,0-2.5,0-3.7,0c-2.2,0-4.3,0-6.5,0c-1.1,0-1.6-0.5-1.6-1.6
			c0-5.9,0-11.7,0-17.6c0-1.1,0.4-1.5,1.5-1.5c7.8,0,15.5,0,23.3,0c1,0,1.6,0.6,1.5,1.8c-0.1,1.6,0,3.2,0,4.7c0,4.2,0,8.5,0,12.7
			c0,0.9-0.5,1.4-1.5,1.4c-2.5,0-5,0-7.4,0c-0.9,0-1.9,0-2.9,0c0,0.4,0,0.8,0,1.2c0.9,0,1.8,0,2.8,0c0.8,0,1.6,0,2.4,0
			c0.9,0,1.5,0.6,1.4,1.3c0,0.7-0.6,1.3-1.4,1.3c-2.4,0-4.8,0-7.2,0c-1.9,0-3.9,0-5.8,0c-0.6,0-1-0.2-1.3-0.7
			c-0.3-0.5-0.2-1,0.1-1.4c0.3-0.4,0.8-0.5,1.3-0.5C31.9,25.8,33.5,25.8,35.2,25.8z M47,21.8c0-5.1,0-10.1,0-15.1
			c-7,0-13.9,0-20.8,0c0,5.1,0,10.1,0,15.1C33.1,21.8,40,21.8,47,21.8z"/>
		<path id="XMLID_117_" class="st2" d="M9.5,17.6c0-2,2-3.9,4-3.9c2.1,0,4,1.9,4,3.9c0,2-2,3.8-4.1,3.8C11.4,21.5,9.4,19.6,9.5,17.6
			z M13.5,16.4c-1,0-1.3,0.3-1.4,1.2c0,0.9,0.4,1.3,1.3,1.3c1,0,1.4-0.4,1.4-1.2C14.8,16.7,14.4,16.4,13.5,16.4z"/>
		<path id="XMLID_116_" class="st3" d="M11.6,4.1c1.2,0,2.4,0,3.6,0c0,0.9,0,1.7,0,2.6c-1.2,0-2.4,0-3.6,0C11.6,5.8,11.6,5,11.6,4.1
			z"/>
		<path id="XMLID_115_" class="st4" d="M13.4,42c0-0.9,0-1.7,0-2.6c1.1,0,2.2,0,3.3,0c0,0.9,0,1.7,0,2.6C15.6,42,14.5,42,13.4,42z"
			/>
		<path id="XMLID_114_" class="st5" d="M13.4,53.4c0-0.9,0-1.7,0-2.6c1.1,0,2.1,0,3.2,0c0,0.8,0,1.7,0,2.6
			C15.6,53.4,14.5,53.4,13.4,53.4z"/>
	</g>
</g>
</svg>
