<?xml version="1.0" standalone="no"?>
<!DOCTYPE svg PUBLIC "-//W3C//DTD SVG 1.1//EN" "http://www.w3.org/Graphics/SVG/1.1/DTD/svg11.dtd" >
<svg xmlns="http://www.w3.org/2000/svg">
<metadata></metadata>
<defs>
<font id="montserratsemi_bold" horiz-adv-x="1570" >
<font-face units-per-em="2048" ascent="1638" descent="-410" />
<missing-glyph horiz-adv-x="493" />
<glyph unicode="fi" horiz-adv-x="1380" d="M63 844v217h148v96q0 179 116.5 278t288.5 99q122 0 213 -43l-12 -262q-84 43 -162 43q-60 2 -95.5 -30t-35.5 -97v-84h260v-217h-260v-844h-313v844h-148zM901 1415q0 76 48 126t122 50q75 0 123.5 -49.5t48.5 -126.5t-48.5 -126.5t-123.5 -49.5q-74 0 -122 50t-48 126z M915 0v1102h314v-1102h-314z" />
<glyph unicode="fl" horiz-adv-x="1419" d="M63 844l3 217h145v115q0 164 112 264.5t295 99.5q128 -3 211 -41l-8 -264q-60 45 -139 49q-69 2 -113.5 -43t-44.5 -115v-65h262l-2 -217h-260v-844h-313v844h-148zM942 0v1520h315v-1520h-315z" />
<glyph unicode=" "  horiz-adv-x="493" />
<glyph unicode="&#x09;" horiz-adv-x="493" />
<glyph unicode="&#xa0;" horiz-adv-x="493" />
<glyph unicode="!" horiz-adv-x="491" d="M104 145q0 72 44 117t112 45q70 0 115 -45.5t45 -116.5q0 -70 -45.5 -116.5t-114.5 -46.5q-67 0 -111.5 46t-44.5 117zM115 1061v362h299v-362l-54 -578h-192z" />
<glyph unicode="&#x22;" horiz-adv-x="847" d="M123 889v545h237v-545h-237zM487 889v545h238v-545h-238z" />
<glyph unicode="#" horiz-adv-x="1499" d="M39 328l24 227h283l37 309h-277l25 228h281l43 342h227l-43 -342h311l43 342h230l-43 -342h278l-22 -228h-285l-37 -309h277l-25 -227h-281l-41 -328h-227l41 328h-311l-41 -328h-230l41 328h-278zM573 555h312l39 309h-312z" />
<glyph unicode="$" horiz-adv-x="1304" d="M41 217l129 264q109 -97 250.5 -156t257.5 -59q100 0 156.5 35.5t56.5 101.5q0 43 -26 75.5t-70.5 53.5t-101.5 38.5t-120.5 35.5t-127 38.5t-120.5 53t-101.5 74.5t-70.5 106.5t-26 145.5q0 163 110.5 272t299.5 140v297h245v-289q250 -24 445 -152l-125 -268 q-113 67 -236.5 107t-210.5 40q-84 0 -133 -29.5t-49 -86.5q0 -42 26 -74t70.5 -53t101.5 -39.5t120.5 -37t126.5 -40t120.5 -55t101.5 -76.5t69.5 -109t25.5 -149q0 -180 -124.5 -291t-328.5 -135v-305h-245v309q-139 20 -268 76.5t-228 140.5z" />
<glyph unicode="%" horiz-adv-x="2062" d="M70 1010q0 200 105 315t286 115q183 0 288 -115t105 -315q0 -201 -105 -318t-288 -117q-181 0 -286 117t-105 318zM272 1010q0 -121 50 -188.5t139 -67.5q91 0 140.5 67t49.5 189q0 119 -50 186.5t-140 67.5q-89 0 -139 -67.5t-50 -186.5zM358 0l1037 1434h295 l-1033 -1434h-299zM1208 426q0 200 105 316t286 116q183 0 288.5 -116t105.5 -316q0 -201 -105.5 -316.5t-288.5 -115.5q-182 0 -286.5 115.5t-104.5 316.5zM1411 426q0 -120 49.5 -188t138.5 -68q90 0 140.5 68t50.5 188t-50.5 188t-140.5 68q-89 0 -138.5 -68t-49.5 -188z " />
<glyph unicode="&#x26;" horiz-adv-x="1388" d="M113 399q0 71 22.5 130.5t66.5 106.5t91 81.5t113 70.5q-125 172 -125 322q0 153 108 245.5t289 92.5q174 0 284.5 -88.5t110.5 -226.5q0 -58 -20 -109t-49.5 -89t-77.5 -75.5t-90.5 -62.5t-102.5 -56q106 -119 248 -258q67 108 109 240l200 -150q-51 -133 -135 -258 l219 -211l-160 -159l-208 205q-190 -164 -416 -164q-205 0 -341 116.5t-136 296.5zM373 422q0 -91 65 -149t164 -58q122 0 238 96q-187 187 -310 322q-76 -47 -116.5 -97.5t-40.5 -113.5zM528 1110q0 -93 84 -217q103 54 158 109t55 128q0 59 -39.5 95.5t-103.5 36.5 q-70 0 -112 -42.5t-42 -109.5z" />
<glyph unicode="'" horiz-adv-x="483" d="M123 889v545h237v-545h-237z" />
<glyph unicode="(" horiz-adv-x="690" d="M137 633q0 251 66 479t192 408h281q-115 -184 -179.5 -413t-64.5 -474q0 -246 64.5 -475.5t179.5 -411.5h-281q-125 178 -191.5 406.5t-66.5 480.5z" />
<glyph unicode=")" horiz-adv-x="724" d="M150 -254q115 183 180 412.5t65 474.5t-65 473.5t-180 413.5h282q126 -180 192 -408t66 -479q0 -252 -66.5 -480.5t-191.5 -406.5h-282z" />
<glyph unicode="*" horiz-adv-x="753" d="M47 1038l176 99l-176 96l80 145l174 -104l-4 201h160l-2 -201l172 102l80 -143l-179 -96l179 -99l-80 -143l-174 102l4 -198h-160l4 200l-174 -102z" />
<glyph unicode="+" horiz-adv-x="1036" d="M68 563v209h350v348h200v-348h351v-209h-351v-346h-200v346h-350z" />
<glyph unicode="," horiz-adv-x="475" d="M61 -188l86 206q-63 45 -63 127q0 70 45 115t113 45q64 0 108.5 -43t44.5 -117q0 -68 -43 -127l-137 -206h-154z" />
<glyph unicode="-" horiz-adv-x="761" d="M117 522v209h528v-209h-528z" />
<glyph unicode="." horiz-adv-x="481" d="M82 145q0 71 45 116.5t113 45.5q69 0 113 -45t44 -117q0 -71 -44 -117t-113 -46q-68 0 -113 46.5t-45 116.5z" />
<glyph unicode="/" horiz-adv-x="708" d="M-63 -229l657 1892h266l-659 -1892h-264z" />
<glyph unicode="0" horiz-adv-x="1431" d="M90 719q0 351 161.5 538t465.5 187q301 0 462.5 -187.5t161.5 -537.5q0 -352 -161.5 -540.5t-462.5 -188.5q-304 0 -465.5 188.5t-161.5 540.5zM422 719q0 -252 71 -366.5t224 -114.5q152 0 222.5 114.5t70.5 366.5q0 250 -70.5 363.5t-222.5 113.5q-153 0 -224 -113 t-71 -364z" />
<glyph unicode="1" horiz-adv-x="827" d="M18 1161v273h594v-1434h-323v1161h-271z" />
<glyph unicode="2" horiz-adv-x="1220" d="M51 1235q279 213 563 213q213 0 346.5 -102t133.5 -269q0 -199 -269 -475l-317 -332h635v-270h-1055v221l518 549q68 70 109 139.5t41 120.5q0 68 -50 106t-139 38q-88 0 -191 -48.5t-200 -132.5z" />
<glyph unicode="3" horiz-adv-x="1130" d="M0 154l131 256q161 -166 363 -166q118 0 182.5 53t62.5 147q0 96 -63 145.5t-184 49.5h-220v180l336 350h-538v263h921v-193l-375 -391l70 -8q168 -24 269.5 -126t101.5 -265q0 -206 -147 -334.5t-392 -128.5q-141 0 -280.5 46t-237.5 122z" />
<glyph unicode="4" horiz-adv-x="1273" d="M57 324v229l465 881h312l-439 -848h344v315h301v-315h199v-262h-199v-324h-301v324h-682z" />
<glyph unicode="5" horiz-adv-x="1206" d="M37 162l129 256q83 -83 179.5 -126.5t193.5 -43.5q117 0 182 55.5t65 153.5q0 92 -65 142t-182 50q-234 0 -387 -10l2 795h917v-271h-620v-252l149 2q241 0 387 -120.5t146 -313.5q0 -224 -152 -357.5t-406 -133.5q-136 0 -282 47.5t-256 126.5z" />
<glyph unicode="6" horiz-adv-x="1284" d="M88 694q0 343 176.5 548.5t472.5 205.5q116 0 239 -31.5t212 -83.5l-123 -237q-134 92 -307 92q-181 0 -271.5 -110.5t-85.5 -305.5q54 80 145.5 124t213.5 44q212 0 336.5 -126t124.5 -337q0 -226 -143 -358.5t-382 -132.5q-283 0 -445.5 189t-162.5 519zM440 473 q-2 -90 61 -153.5t181 -63.5q110 0 174 58.5t64 164.5q0 100 -61 156.5t-169 56.5q-117 0 -184.5 -62t-65.5 -157z" />
<glyph unicode="7" horiz-adv-x="1200" d="M70 963v471h1093v-232l-545 -1202h-342l529 1163h-449v-200h-286z" />
<glyph unicode="8" horiz-adv-x="1304" d="M76 399q0 124 75.5 223t204.5 146q-96 50 -151 131t-55 176q0 171 136 272t365 101q230 0 367 -103t137 -278q0 -95 -51 -175t-139 -124q122 -47 193 -145t71 -220q0 -192 -156.5 -304.5t-419.5 -112.5q-266 0 -421.5 111.5t-155.5 301.5zM383 434q0 -98 69.5 -150.5 t200.5 -52.5q128 0 199.5 52.5t71.5 148.5q0 95 -71 147t-202 52q-129 0 -198.5 -51.5t-69.5 -145.5zM422 1049q0 -83 60.5 -129t170.5 -46q109 0 168.5 46t59.5 129q0 85 -59.5 130.5t-168.5 45.5q-110 0 -170.5 -45.5t-60.5 -130.5z" />
<glyph unicode="9" horiz-adv-x="1284" d="M72 956q0 226 142.5 359t381.5 133q283 0 445.5 -189.5t162.5 -519.5q0 -343 -176.5 -548t-472.5 -205q-116 0 -239 31t-212 83l123 238q134 -92 308 -92q180 0 270.5 110.5t85.5 305.5q-54 -80 -145.5 -124t-213.5 -44q-212 0 -336 125.5t-124 336.5zM373 954 q0 -100 60.5 -156.5t168.5 -56.5q117 0 184.5 62.5t65.5 157.5q2 90 -61 153.5t-181 63.5q-110 0 -173.5 -59t-63.5 -165z" />
<glyph unicode=":" horiz-adv-x="473" d="M82 145q0 71 45 116.5t113 45.5q69 0 113 -45t44 -117q0 -71 -44 -117t-113 -46q-68 0 -113 46.5t-45 116.5zM82 754q0 71 45 116t113 45q69 0 113 -44.5t44 -116.5q0 -71 -44 -117.5t-113 -46.5q-68 0 -113 47t-45 117z" />
<glyph unicode=";" horiz-adv-x="477" d="M61 -188l86 206q-63 45 -63 127q0 70 45 115t113 45q64 0 108.5 -43t44.5 -117q0 -68 -43 -127l-137 -206h-154zM82 754q0 71 45 116t113 45q69 0 113 -44.5t44 -116.5q0 -71 -44 -117.5t-113 -46.5q-68 0 -113 47t-45 117z" />
<glyph unicode="&#x3c;" horiz-adv-x="1036" d="M68 532v265l901 381v-234l-695 -278l695 -281v-233z" />
<glyph unicode="=" horiz-adv-x="1036" d="M68 344v209h901v-209h-901zM68 782v209h901v-209h-901z" />
<glyph unicode="&#x3e;" horiz-adv-x="1036" d="M68 166v233l694 279l-694 280v234l899 -381v-264z" />
<glyph unicode="?" horiz-adv-x="946" d="M6 985q4 213 124.5 332t330.5 119q199 0 314.5 -92.5t115.5 -260.5q0 -64 -17.5 -118.5t-45.5 -94t-62 -75.5t-68 -69t-62 -67.5t-45.5 -79.5t-17.5 -96h-237q0 65 14.5 120t38 92.5t51.5 70.5t56 61.5t51.5 57.5t38 66.5t14.5 80.5q0 72 -44 108t-124 36 q-173 0 -182 -193zM295 145q0 72 44.5 117t113.5 45q68 0 112.5 -45.5t44.5 -116.5q0 -70 -44.5 -116.5t-112.5 -46.5q-69 0 -113.5 46t-44.5 117z" />
<glyph unicode="@" horiz-adv-x="1916" d="M55 547q0 184 71.5 349t194 282.5t292 186.5t358.5 69t354 -66t282.5 -181t185 -277.5t67.5 -348.5q0 -228 -109.5 -367t-282.5 -139q-200 0 -239 160l-4 31q-115 -168 -324 -168q-88 0 -170.5 34.5t-145.5 95.5t-101 151t-38 194q0 132 52.5 241.5t151.5 175.5t227 66 q58 0 113.5 -17t91.5 -41.5t58.5 -45t28.5 -33.5v115h240v-697q0 -102 84 -102q70 0 123 97t53 243q0 197 -83 355t-243 251.5t-372 93.5q-197 0 -363.5 -94.5t-263 -257.5t-96.5 -356q0 -190 91.5 -344.5t251 -241t353.5 -86.5q95 0 201 31.5t188 91.5l92 -158 q-89 -66 -224.5 -106.5t-256.5 -40.5q-187 0 -352 65t-283 178t-186 272t-68 339zM709 563q0 -111 61 -188.5t158 -77.5q103 0 164 76t61 188q0 107 -63 179.5t-166 72.5q-95 0 -155 -72.5t-60 -177.5z" />
<glyph unicode="A" horiz-adv-x="1554" d="M-6 0l622 1434h334l613 -1434h-346l-113 279h-664l-112 -279h-334zM547 539h452l-225 557z" />
<glyph unicode="B" horiz-adv-x="1458" d="M158 0v1434h659q236 0 374 -96.5t138 -262.5q0 -117 -66.5 -201.5t-181.5 -113.5q138 -26 218.5 -124t80.5 -239q0 -184 -144.5 -290.5t-395.5 -106.5h-682zM481 264h320q116 0 181 45.5t65 128.5q0 78 -65.5 123t-180.5 45h-320v-342zM481 856h320q91 0 143.5 42.5 t52.5 117.5q0 73 -52 113t-144 40h-320v-313z" />
<glyph unicode="C" horiz-adv-x="1421" d="M55 719q0 153 58.5 287.5t160 230.5t243.5 151.5t302 55.5q155 0 307 -64.5t258 -173.5l-188 -229q-74 85 -174 135.5t-199 50.5q-185 0 -310.5 -126.5t-125.5 -313.5t125.5 -314.5t310.5 -127.5q96 0 196 45.5t177 122.5l190 -207q-115 -118 -269.5 -187t-309.5 -69 q-211 0 -383.5 96t-270.5 264t-98 373z" />
<glyph unicode="D" horiz-adv-x="1574" d="M158 0v1434h608q220 0 391.5 -90.5t267 -254t95.5 -372.5t-96.5 -372t-271 -254t-398.5 -91h-596zM481 272h293q181 0 298.5 124t117.5 319q0 196 -122 321t-308 125h-279v-889z" />
<glyph unicode="E" horiz-adv-x="1368" d="M158 0v1434h1091v-269h-768v-311h693v-268h-693v-318h791v-268h-1114z" />
<glyph unicode="F" horiz-adv-x="1218" d="M158 0v1434h1030l-2 -269h-705v-352h647v-270h-647v-543h-323z" />
<glyph unicode="G" horiz-adv-x="1525" d="M55 717q0 204 102 370.5t281.5 261.5t399.5 95q158 0 311.5 -56.5t263.5 -152.5l-182 -231q-80 74 -184.5 116.5t-208.5 42.5q-191 0 -321 -128.5t-130 -317.5q0 -190 131 -319.5t322 -129.5q127 0 280 78v377h281v-551q-115 -84 -274 -135t-308 -51q-214 0 -389 95.5 t-275 263t-100 372.5z" />
<glyph unicode="H" horiz-adv-x="1611" d="M158 0v1434h323v-598h649v598h324v-1434h-324v565h-649v-565h-323z" />
<glyph unicode="I" horiz-adv-x="641" d="M158 0v1434h323v-1434h-323z" />
<glyph unicode="J" horiz-adv-x="1073" d="M-8 209l149 229q73 -77 153.5 -118t149.5 -41q81 0 126.5 48.5t45.5 139.5v692h-493v275h819v-975q0 -224 -128.5 -348.5t-352.5 -124.5q-278 0 -469 223z" />
<glyph unicode="K" horiz-adv-x="1509" d="M158 0v1434h323v-652l596 652h375l-539 -598l576 -836h-389l-412 584l-207 -230v-354h-323z" />
<glyph unicode="L" horiz-adv-x="1130" d="M158 0v1434h323v-1151h615v-283h-938z" />
<glyph unicode="M" horiz-adv-x="1873" d="M158 0v1434h362l418 -877l416 877h360v-1434h-291v967l-381 -822h-211l-380 822v-967h-293z" />
<glyph unicode="N" horiz-adv-x="1613" d="M158 0v1434h295l696 -922v922h307v-1434h-295l-694 920v-920h-309z" />
<glyph unicode="O" horiz-adv-x="1650" d="M55 717q0 206 100.5 372.5t277 260.5t392.5 94t392.5 -94.5t277 -261t100.5 -371.5q0 -204 -100.5 -371.5t-277 -263.5t-392.5 -96t-392.5 95.5t-277 263t-100.5 372.5zM387 717q0 -93 35.5 -176.5t95 -143t141 -94.5t170.5 -35q181 0 308 130.5t127 318.5t-127 316 t-308 128q-183 0 -312.5 -128.5t-129.5 -315.5z" />
<glyph unicode="P" horiz-adv-x="1388" d="M158 0v1434h608q274 0 423.5 -130t149.5 -368q0 -251 -149.5 -388.5t-423.5 -137.5h-285v-410h-323zM481 680h269q136 0 209 62t73 184q0 119 -72.5 179t-209.5 60h-269v-485z" />
<glyph unicode="Q" horiz-adv-x="1669" d="M55 717q0 206 100.5 372.5t277 260.5t392.5 94t392.5 -94.5t277 -261t100.5 -371.5q0 -237 -133 -421t-354 -263q91 -109 195 -109q106 0 251 113l117 -211q-83 -73 -192 -115.5t-213 -42.5q-145 0 -265 84t-196 234q-158 4 -297.5 61.5t-238.5 154t-156.5 230.5 t-57.5 285zM387 717q0 -93 35.5 -176.5t95 -143t141 -94.5t170.5 -35q181 0 308 130.5t127 318.5t-127 316t-308 128q-183 0 -312.5 -128.5t-129.5 -315.5z" />
<glyph unicode="R" horiz-adv-x="1482" d="M158 0v1434h622q281 0 434.5 -130t153.5 -368q0 -165 -68.5 -283t-199.5 -180l305 -473h-367l-227 410h-31h-299v-410h-323zM481 680h299q135 0 208 62t73 184q0 118 -73 178.5t-208 60.5h-299v-485z" />
<glyph unicode="S" horiz-adv-x="1304" d="M41 217l129 264q109 -97 250.5 -156t257.5 -59q100 0 156.5 35.5t56.5 101.5q0 43 -26 75.5t-70.5 53.5t-101.5 38.5t-120.5 35.5t-127 38.5t-120.5 53t-101.5 74.5t-70.5 106.5t-26 145.5q0 194 152 309t403 115q148 0 292 -42t253 -114l-125 -268q-113 67 -236.5 107 t-210.5 40q-84 0 -133 -29.5t-49 -86.5q0 -42 26 -74t70.5 -53t101.5 -39.5t120.5 -37t126.5 -40t120.5 -55t101.5 -76.5t69.5 -109t25.5 -149q0 -137 -75 -236t-200 -147.5t-286 -48.5q-174 0 -341.5 61t-291.5 166z" />
<glyph unicode="T" horiz-adv-x="1230" d="M16 1159v275h1198v-275h-438v-1159h-323v1159h-437z" />
<glyph unicode="U" horiz-adv-x="1556" d="M131 600v834h324v-834q0 -153 90 -242.5t237 -89.5q146 0 233 89t87 243v834h323v-834q0 -284 -173 -449t-470 -165q-299 0 -475 165.5t-176 448.5z" />
<glyph unicode="V" horiz-adv-x="1466" d="M0 1434h348l391 -1082l394 1082h333l-569 -1434h-334z" />
<glyph unicode="W" horiz-adv-x="2183" d="M0 1434h348l301 -1082l299 1082h318l303 -1082l299 1082h332l-476 -1434h-333l-289 1022l-295 -1022h-334z" />
<glyph unicode="X" horiz-adv-x="1476" d="M16 0l514 733l-479 701h377l299 -439l301 439h383l-477 -686l518 -748h-387l-338 477l-332 -477h-379z" />
<glyph unicode="Y" horiz-adv-x="1363" d="M-6 1434h325l367 -643l358 643h326l-522 -971v-463h-324v455z" />
<glyph unicode="Z" horiz-adv-x="1376" d="M63 0v219l803 944h-776v271h1210v-217l-800 -947h813l-2 -270h-1248z" />
<glyph unicode="[" horiz-adv-x="729" d="M158 -254v1774h530v-244h-250v-1286h250v-244h-530z" />
<glyph unicode="\" horiz-adv-x="991" d="M104 1663h267l657 -1892h-266z" />
<glyph unicode="]" horiz-adv-x="913" d="M225 -10h250v1286h-250v244h531v-1774h-531v244z" />
<glyph unicode="^" horiz-adv-x="1153" d="M63 276l379 799h267l378 -799h-231l-281 617l-280 -617h-232z" />
<glyph unicode="_" horiz-adv-x="1181" d="M0 -238h1182v-180h-1182v180z" />
<glyph unicode="`" horiz-adv-x="716" d="M94 1458l293 109l219 -334h-252z" />
<glyph unicode="a" horiz-adv-x="1220" d="M66 330q0 156 109 243.5t310 88.5h303v20q0 89 -58 136.5t-171 47.5q-153 0 -328 -96l-98 217q131 65 245.5 96t252.5 31q221 0 343 -104t124 -291l2 -719h-309v129q-115 -143 -347 -143q-174 0 -276 95.5t-102 248.5zM360 350q0 -63 46.5 -101t125.5 -38 q99 0 170.5 47.5t85.5 118.5v98h-247q-92 0 -136.5 -30t-44.5 -95z" />
<glyph unicode="b" horiz-adv-x="1398" d="M162 0v1520h315v-580q121 172 348 172q232 0 375 -156t143 -411q0 -251 -140.5 -404t-371.5 -153q-230 0 -354 172v-160h-315zM477 555q0 -136 76.5 -220.5t198.5 -84.5q121 0 196.5 85t75.5 220q0 133 -75.5 218t-196.5 85t-198 -84.5t-77 -218.5z" />
<glyph unicode="c" horiz-adv-x="1153" d="M57 547q0 253 156 409t410 156q157 0 280 -60t197 -171l-213 -154q-94 117 -244 117h-8q-116 0 -189 -81.5t-73 -213.5q0 -133 73 -216t189 -83q173 0 256 129l217 -148q-70 -116 -196 -179.5t-294 -63.5q-251 0 -406 154.5t-155 404.5z" />
<glyph unicode="d" horiz-adv-x="1402" d="M57 555q0 252 141 405.5t371 153.5q234 0 357 -174v580h313v-1520h-313v162q-120 -174 -348 -174q-235 0 -378 156t-143 411zM373 547q2 -136 78 -220.5t200 -84.5q122 0 198.5 85t76.5 220t-76.5 220t-198.5 85t-199 -85.5t-79 -219.5z" />
<glyph unicode="e" horiz-adv-x="1222" d="M57 547q0 254 157.5 409.5t410.5 155.5q285 0 423 -175q120 -152 120 -403q0 -38 -3 -79h-790q28 -104 103 -163t181 -59q162 0 279 117l166 -168q-175 -194 -471 -194q-263 0 -419.5 153.5t-156.5 405.5zM369 641h501q-3 109 -69 174.5t-174 65.5q-103 0 -171 -65 t-87 -175z" />
<glyph unicode="f" horiz-adv-x="761" d="M63 834v219h148v104q0 119 55.5 206t146 129t203.5 42q170 0 289 -78l-112 -229q-62 47 -138 47q-58 0 -94.5 -33t-36.5 -96v-92h260v-219h-260v-834h-313v834h-148z" />
<glyph unicode="g" horiz-adv-x="1320" d="M57 590q0 233 131 377.5t342 144.5h8q213 0 332 -160v150h314v-1000q0 -234 -161.5 -373t-426.5 -139q-263 0 -479 146l116 221q154 -111 342 -111q135 0 215 66.5t80 179.5v125q-116 -160 -331 -160q-214 0 -348 147t-134 386zM352 582q2 -127 73 -206t187 -79 q115 0 186.5 79.5t71.5 205.5q0 128 -71.5 207t-186.5 79t-186.5 -79.5t-73.5 -206.5z" />
<glyph unicode="h" horiz-adv-x="1382" d="M162 0v1520h315v-613q116 204 381 207q186 0 296 -114.5t110 -307.5v-692h-316v600q0 104 -58 164.5t-159 60.5q-117 -1 -185.5 -79.5t-68.5 -202.5v-543h-315z" />
<glyph unicode="i" horiz-adv-x="618" d="M139 1415q0 77 47.5 126.5t122.5 49.5t122.5 -49.5t47.5 -126.5t-47.5 -126.5t-122.5 -49.5t-122.5 49.5t-47.5 126.5zM152 0v1102h315v-1102h-315z" />
<glyph unicode="j" horiz-adv-x="630" d="M-176 -338l86 232q67 -44 129 -44q53 0 85 32.5t32 97.5v1122h313v-1135q0 -91 -31 -164t-84 -119.5t-122 -71t-148 -24.5q-147 0 -260 74zM129 1415q0 77 51.5 126.5t130.5 49.5q82 0 132.5 -49t50.5 -127q0 -77 -51 -126.5t-132 -49.5q-78 0 -130 50t-52 126z" />
<glyph unicode="k" horiz-adv-x="1267" d="M162 0v1520h315v-836l404 416h358l-403 -424l421 -676h-372l-267 449l-141 -150v-299h-315z" />
<glyph unicode="l" horiz-adv-x="641" d="M162 0v1520h315v-1520h-315z" />
<glyph unicode="m" horiz-adv-x="2127" d="M152 0v1102h315v-191q115 200 373 203q139 0 235.5 -66.5t136.5 -187.5q106 251 398 254q183 0 290 -114t107 -308v-692h-313v600q0 105 -57 165t-156 60q-112 -1 -178 -79.5t-66 -200.5v-545h-313v600q0 105 -57 165t-154 60q-113 -1 -179.5 -79.5t-66.5 -200.5v-545 h-315z" />
<glyph unicode="n" horiz-adv-x="1372" d="M152 0v1102h315v-193q115 202 381 205q185 0 294 -114.5t109 -307.5v-692h-315v600q0 104 -58 164.5t-159 60.5q-116 -1 -184 -79.5t-68 -202.5v-543h-315z" />
<glyph unicode="o" horiz-adv-x="1296" d="M57 551q0 253 163 407t429 154q265 0 427.5 -154t162.5 -407q0 -252 -163 -407.5t-427 -155.5q-265 0 -428.5 155.5t-163.5 407.5zM375 547q0 -135 75.5 -219t198.5 -84q122 0 198.5 84t76.5 219t-76.5 219t-198.5 84q-123 0 -198.5 -84t-75.5 -219z" />
<glyph unicode="p" horiz-adv-x="1400" d="M162 -397v1499h315v-162q121 172 348 172q232 0 375 -156t143 -411q0 -251 -140.5 -404t-371.5 -153q-230 0 -354 172v-557h-315zM477 555q0 -136 76.5 -220.5t198.5 -84.5q121 0 196.5 85t75.5 220q0 133 -75.5 218t-196.5 85t-198 -84.5t-77 -218.5z" />
<glyph unicode="q" horiz-adv-x="1402" d="M57 555q0 252 141 405.5t371 153.5q234 0 357 -174v162h313v-1499h-313v559q-120 -174 -348 -174q-235 0 -378 156t-143 411zM373 547q2 -136 78 -220.5t200 -84.5q122 0 198.5 85t76.5 220t-76.5 220t-198.5 85t-199 -85.5t-79 -219.5z" />
<glyph unicode="r" horiz-adv-x="851" d="M152 0v1102h315v-199q117 208 364 211v-297q-26 2 -51 2q-131 0 -214 -67q-99 -80 -99 -222v-530h-315z" />
<glyph unicode="s" horiz-adv-x="1021" d="M37 141l102 213q85 -65 187.5 -101t195.5 -36q63 0 101.5 21.5t38.5 64.5q0 31 -24.5 55t-65 38t-91.5 30.5t-105 31.5t-105 42t-91.5 60t-65 88t-24.5 124q0 110 59 189t156 117t219 38q236 0 430 -123l-108 -215q-190 107 -336 107q-58 0 -92.5 -20.5t-34.5 -61.5 q0 -29 25 -52t66 -37t93 -30.5t106.5 -32t106.5 -43t93 -62t65.5 -89.5t24.5 -125q0 -109 -60.5 -188t-161 -117.5t-227.5 -38.5q-135 0 -259.5 39.5t-217.5 113.5z" />
<glyph unicode="t" horiz-adv-x="872" d="M47 836v217h154v303h313v-303h299v-219h-299v-455q0 -67 28 -98q26 -29 73 -29h6q60 0 147 41l66 -232q-131 -75 -287 -75q-154 0 -250 88t-96 252v510h-154z" />
<glyph unicode="u" horiz-adv-x="1351" d="M119 410v692h315v-602q0 -104 55.5 -164t151.5 -60q112 1 178 80t66 201v545h313v-1102h-313v195q-113 -207 -369 -207q-183 0 -290 113.5t-107 308.5z" />
<glyph unicode="v" horiz-adv-x="1138" d="M-6 1100l325 2l261 -803l258 803h313l-416 -1102h-323z" />
<glyph unicode="w" horiz-adv-x="1890" d="M-6 1100l321 2l246 -789l238 789h309l242 -789l241 789h312l-402 -1102h-315l-238 727l-235 -727h-316z" />
<glyph unicode="x" horiz-adv-x="1206" d="M14 0l381 563l-354 539h360l203 -334l215 334h344l-350 -537l375 -565h-363l-221 360l-242 -360h-348z" />
<glyph unicode="y" horiz-adv-x="1155" d="M-20 1102h325l289 -758l260 758h315l-483 -1225q-116 -289 -403 -289q-169 0 -299 107l133 227q71 -59 143 -59q100 0 146 98l30 62z" />
<glyph unicode="z" horiz-adv-x="1122" d="M78 0v199l567 653l-547 2v246h940v-199l-567 -653h586v-250z" />
<glyph unicode="{" horiz-adv-x="710" d="M57 508v250h74q43 0 61.5 21.5t18.5 72.5v391q0 154 77.5 216.5t268.5 62.5h121v-244q-106 0 -146 -30t-40 -105v-271q0 -108 -36 -162.5t-124 -76.5q88 -23 124 -78.5t36 -163.5v-270q0 -75 40 -105t146 -30v-244h-121q-191 0 -268.5 63t-77.5 218v389q0 52 -18.5 74 t-61.5 22h-74z" />
<glyph unicode="|" horiz-adv-x="591" d="M178 -227v1876h236v-1876h-236z" />
<glyph unicode="}" horiz-adv-x="808" d="M178 -14q104 0 144 30t40 105v270q0 108 36.5 163.5t125.5 78.5q-89 22 -125.5 76.5t-36.5 162.5v271q0 75 -40 105t-144 30v244h121q191 0 268.5 -62.5t77.5 -216.5v-391q0 -51 18.5 -72.5t61.5 -21.5h74v-250h-74q-43 0 -61.5 -22t-18.5 -74v-389q0 -155 -77.5 -218 t-268.5 -63h-121v244z" />
<glyph unicode="~" horiz-adv-x="1036" d="M123 502q0 334 219 334q46 0 92 -17t77 -37.5t65 -37.5t57 -17q69 0 69 98h213q0 -333 -219 -333q-48 0 -94.5 16.5t-76 36.5t-62.5 36.5t-57 16.5q-70 0 -70 -96h-213z" />
<glyph unicode="&#xa1;" horiz-adv-x="489" d="M109 952q0 72 44 118t113 46q68 0 112 -46t44 -118q0 -70 -44 -115.5t-112 -45.5q-69 0 -113 45t-44 116zM113 39l53 577h192l54 -577v-363h-299v363z" />
<glyph unicode="&#xa2;" horiz-adv-x="1142" d="M57 547q0 223 122 372t329 183v323h252v-325q225 -44 340 -219l-213 -154q-96 120 -252 117q-116 0 -189 -81.5t-73 -213.5q0 -133 73 -216t189 -83q173 0 256 129l217 -148q-111 -184 -348 -231v-309h-252v305q-205 34 -328 182.5t-123 368.5z" />
<glyph unicode="&#xa3;" horiz-adv-x="1134" d="M63 0v256h160v328h-160v225h160v166q0 226 123.5 349.5t347.5 123.5q123 0 233 -46t193 -132l-123 -246q-135 141 -268 141q-180 0 -180 -196v-160h348v-225h-348v-328h543v-256h-1029z" />
<glyph unicode="&#xa4;" horiz-adv-x="1443" d="M57 168l207 209q-82 132 -82 280q0 144 76 273l-201 203l176 184l207 -207q129 80 281 80t283 -78l204 205l178 -184l-202 -203q78 -127 78 -273q0 -150 -82 -282l206 -207l-178 -184l-215 215q-128 -72 -272 -72t-272 72l-216 -215zM430 657q0 -114 85 -194t206 -80 q122 0 208.5 80t86.5 194t-87 195.5t-208 81.5t-206 -81.5t-85 -195.5z" />
<glyph unicode="&#xa5;" horiz-adv-x="1337" d="M-6 1434h325l367 -643l358 643h326l-401 -748h252v-125h-320l-51 -98v-45h371v-127h-371v-291h-326v291h-379v127h379v37l-57 106h-322v125h254z" />
<glyph unicode="&#xa6;" horiz-adv-x="591" d="M178 -227v702h236v-702h-236zM178 944v705h236v-705h-236z" />
<glyph unicode="&#xa7;" horiz-adv-x="1085" d="M37 -20l90 200q195 -139 387 -139q75 0 120.5 26.5t45.5 67.5q0 36 -33.5 63.5t-87 47t-118.5 38.5t-130 46t-118.5 62t-87 93t-33.5 133q0 94 60 163.5t167 105.5q-94 44 -131 94t-37 121q0 141 118 230t314 89q227 0 432 -121l-96 -200q-198 106 -334 106 q-70 0 -111.5 -25t-41.5 -65q0 -33 26.5 -59t70 -43t99 -35.5t113.5 -35.5t113.5 -45t99 -61.5t70 -87t26.5 -120.5q0 -89 -58 -163t-151 -108q79 -42 113.5 -89t34.5 -126q0 -141 -122.5 -231t-324.5 -90q-131 0 -257.5 41t-227.5 117zM352 639q0 -56 64 -91.5t159 -35.5 q81 0 124.5 27t43.5 71q0 55 -64.5 90t-160.5 35q-80 0 -123 -26t-43 -70z" />
<glyph unicode="&#xa8;" horiz-adv-x="768" d="M18 1421q0 67 41.5 110.5t106.5 43.5q66 0 107.5 -43t41.5 -111q0 -66 -41.5 -109.5t-107.5 -43.5q-64 0 -106 43.5t-42 109.5zM403 1421q0 67 41.5 110.5t106.5 43.5t107 -43.5t42 -110.5q0 -66 -42.5 -109.5t-106.5 -43.5t-106 43.5t-42 109.5z" />
<glyph unicode="&#xa9;" horiz-adv-x="1499" d="M55 713q0 187 91.5 347.5t252 255.5t351.5 95q143 0 271.5 -55t220.5 -148.5t146 -221.5t54 -269q0 -187 -92 -348t-253 -256t-352 -95q-143 0 -271.5 55.5t-220 149.5t-145 222t-53.5 268zM203 713q0 -147 71 -271t196 -197t275 -73q152 0 279 74t198.5 199t71.5 272 t-71.5 271t-196.5 196.5t-276 72.5q-114 0 -215.5 -43.5t-174 -117t-115 -173.5t-42.5 -210zM399 715q0 146 104.5 244t258.5 98q73 0 145 -30t125 -83l-90 -108q-37 41 -84.5 64.5t-93.5 23.5q-88 0 -147.5 -59.5t-59.5 -147.5t59.5 -148.5t147.5 -60.5q44 0 92.5 21.5 t85.5 58.5l90 -99q-54 -56 -127.5 -88t-148.5 -32q-152 0 -254.5 99t-102.5 247z" />
<glyph unicode="&#xaa;" horiz-adv-x="798" d="M51 1133q0 92 68.5 142t195.5 50h185v14q0 48 -35 74.5t-103 26.5q-96 0 -217 -51l-51 145q173 70 320 70q141 0 220.5 -63t78.5 -175l2 -428h-213v90q-71 -100 -221 -100q-106 0 -168 56t-62 149zM256 1149q0 -37 26 -58.5t72 -21.5q97 0 146 78v74h-140 q-104 0 -104 -72z" />
<glyph unicode="&#xab;" horiz-adv-x="997" d="M18 543l244 370h258l-219 -370l219 -373h-258zM444 543l244 370h256l-217 -370l217 -373h-256z" />
<glyph unicode="&#xac;" horiz-adv-x="1173" d="M68 653v209h966v-577h-227v368h-739z" />
<glyph unicode="&#xad;" horiz-adv-x="761" d="M117 522v209h528v-209h-528z" />
<glyph unicode="&#xae;" horiz-adv-x="1499" d="M55 713q0 187 91.5 347.5t252 255.5t351.5 95q143 0 271.5 -55t220.5 -148.5t146 -221.5t54 -269q0 -187 -92 -348t-253 -256t-352 -95q-143 0 -271.5 55.5t-220 149.5t-145 222t-53.5 268zM203 713q0 -147 71 -271t196 -197t275 -73q152 0 279 74t198.5 199t71.5 272 t-71.5 271t-196.5 196.5t-276 72.5q-114 0 -215.5 -43.5t-174 -117t-115 -173.5t-42.5 -210zM485 403v666h283q132 0 203 -60t71 -169q0 -158 -127 -215l146 -222h-170l-107 193h-16h-135v-193h-148zM633 715h135q63 0 98 31t35 88q0 56 -34.5 86t-98.5 30h-135v-235z" />
<glyph unicode="&#xaf;" horiz-adv-x="716" d="M82 1298v222h555v-222h-555z" />
<glyph unicode="&#xb0;" horiz-adv-x="747" d="M170 1430q0 98 71 168.5t169 70.5q100 0 171.5 -70.5t71.5 -168.5t-71.5 -169t-171.5 -71q-98 0 -169 71t-71 169zM295 1430q0 -46 34 -78.5t81 -32.5q49 0 83.5 32.5t34.5 78.5q0 45 -34.5 77.5t-83.5 32.5q-47 0 -81 -33t-34 -77z" />
<glyph unicode="&#xb1;" horiz-adv-x="1036" d="M68 14v209h901v-209h-901zM68 715v203h350v335h200v-335h351v-203h-351v-336h-200v336h-350z" />
<glyph unicode="&#xb2;" horiz-adv-x="792" d="M43 1315q179 127 363 127q132 0 216.5 -61.5t84.5 -161.5q0 -125 -168 -283l-185 -180h379v-174h-663v143l317 322q86 86 86 141q0 35 -26.5 54.5t-75.5 19.5q-54 0 -118 -29t-124 -80z" />
<glyph unicode="&#xb3;" horiz-adv-x="739" d="M14 676l90 170q101 -107 222 -107q67 0 103 29t36 80q0 102 -139 102h-142v119l205 199h-332v164h586v-127l-223 -215l43 -9q100 -14 160.5 -74.5t60.5 -156.5q0 -124 -93 -201.5t-247 -77.5q-91 0 -180 28.5t-150 76.5z" />
<glyph unicode="&#xb4;" horiz-adv-x="716" d="M102 1233l217 334l293 -111l-260 -223h-250z" />
<glyph unicode="&#xb5;" horiz-adv-x="1394" d="M162 -397v1499h315v-602q0 -104 56 -164t153 -60q112 1 177 79.5t65 201.5v545h315v-1102h-315v193q-114 -205 -369 -205q-41 0 -82 6v-391h-315z" />
<glyph unicode="&#xb6;" horiz-adv-x="1308" d="M-8 1092q0 85 27.5 159t83 135.5t152 97.5t222.5 36h672v-1739h-236v1552h-225v-1552h-235v901h-58q-92 0 -165 27.5t-116.5 70t-72 99t-39 109t-10.5 104.5z" />
<glyph unicode="&#xb7;" horiz-adv-x="473" d="M82 592q0 68 44 112t110 44t109.5 -43.5t43.5 -112.5q0 -70 -43.5 -115t-109.5 -45t-110 45t-44 115z" />
<glyph unicode="&#xb8;" horiz-adv-x="716" d="M141 -414l60 138q48 -41 106 -41q40 0 64 22.5t24 54.5t-25 53t-69 21q-24 0 -74 -8l95 203h178l-66 -131q64 -18 101.5 -61t37.5 -105q0 -94 -67 -150.5t-174 -56.5q-104 0 -191 61z" />
<glyph unicode="&#xb9;" horiz-adv-x="552" d="M25 1255v179h387v-852h-222v673h-165z" />
<glyph unicode="&#xba;" horiz-adv-x="841" d="M49 1268q0 151 102 243.5t269 92.5q168 0 270.5 -92.5t102.5 -243.5q0 -152 -102 -244t-271 -92q-167 0 -269 92t-102 244zM266 1264q0 -73 43 -118.5t111 -45.5q69 0 111 45t42 119q0 75 -42 120.5t-111 45.5q-68 0 -111 -46t-43 -120z" />
<glyph unicode="&#xbb;" horiz-adv-x="1013" d="M98 170l219 371l-219 372h258l244 -372l-244 -371h-258zM524 170l219 371l-219 372h258l244 -372l-244 -371h-258z" />
<glyph unicode="&#xbc;" horiz-adv-x="1759" d="M25 1255v179h387v-852h-222v673h-165zM125 0l1036 1434h295l-1032 -1434h-299zM977 184v150l280 518h213l-268 -508h195v188h209v-188h120v-160h-120v-184h-209v184h-420z" />
<glyph unicode="&#xbd;" horiz-adv-x="1806" d="M25 1255v179h387v-852h-222v673h-165zM125 0l1036 1434h295l-1032 -1434h-299zM1057 731q178 129 362 129q132 0 216.5 -61.5t84.5 -161.5q0 -125 -168 -283l-184 -182h379v-172h-664v143l318 320q86 86 86 143q0 35 -27 54.5t-76 19.5q-109 0 -241 -109z" />
<glyph unicode="&#xbe;" horiz-adv-x="1882" d="M14 676l90 170q101 -107 222 -107q67 0 103 29t36 80q0 102 -139 102h-142v119l205 199h-332v164h586v-127l-223 -215l43 -9q100 -14 160.5 -74.5t60.5 -156.5q0 -124 -93 -201.5t-247 -77.5q-91 0 -180 28.5t-150 76.5zM248 0l1036 1434h295l-1032 -1434h-299zM1100 184 v150l280 518h213l-268 -508h195v188h209v-188h120v-160h-120v-184h-209v184h-420z" />
<glyph unicode="&#xbf;" horiz-adv-x="946" d="M55 16q0 64 17.5 118.5t45.5 94t62 75.5t68 69t62 67.5t45.5 79.5t17.5 96h237q0 -65 -14.5 -120t-38 -92.5t-51.5 -70t-56 -61t-51.5 -57.5t-38 -66.5t-14.5 -80.5q0 -72 44.5 -108t123.5 -36q176 0 182 193l244 -2q-4 -213 -124.5 -332t-330.5 -119q-199 0 -314.5 92 t-115.5 260zM338 954q0 71 44.5 117.5t113.5 46.5q67 0 112 -46.5t45 -117.5t-44.5 -116t-112.5 -45q-69 0 -113.5 44.5t-44.5 116.5z" />
<glyph unicode="&#xc0;" horiz-adv-x="1554" d="M-6 0l622 1434h334l613 -1434h-346l-113 279h-664l-112 -279h-334zM430 1792l293 109l219 -334h-252zM547 539h452l-225 557z" />
<glyph unicode="&#xc1;" horiz-adv-x="1554" d="M-6 0l622 1434h334l613 -1434h-346l-113 279h-664l-112 -279h-334zM547 539h452l-225 557zM614 1567l217 334l293 -111l-260 -223h-250z" />
<glyph unicode="&#xc2;" horiz-adv-x="1554" d="M-6 0l622 1434h334l613 -1434h-346l-113 279h-664l-112 -279h-334zM424 1583l223 303h262l224 -303h-232l-123 174l-123 -174h-231zM547 539h452l-225 557z" />
<glyph unicode="&#xc3;" horiz-adv-x="1554" d="M-6 0l622 1434h334l613 -1434h-346l-113 279h-664l-112 -279h-334zM426 1608q0 309 205 309q51 0 97.5 -25.5t82 -51t59.5 -25.5q68 0 68 90h195q0 -306 -205 -306q-54 0 -100.5 25.5t-80.5 50.5t-59 25q-67 0 -67 -92h-195zM547 539h452l-225 557z" />
<glyph unicode="&#xc4;" horiz-adv-x="1554" d="M-6 0l622 1434h334l613 -1434h-346l-113 279h-664l-112 -279h-334zM438 1755q0 67 41.5 110.5t106.5 43.5t107 -43.5t42 -110.5q0 -66 -42 -108.5t-107 -42.5t-106.5 42.5t-41.5 108.5zM547 539h452l-225 557zM823 1755q0 67 41.5 110.5t106.5 43.5t107 -43.5t42 -110.5 q0 -66 -42 -108.5t-107 -42.5t-106.5 42.5t-41.5 108.5z" />
<glyph unicode="&#xc5;" horiz-adv-x="1554" d="M-6 0l606 1395q-76 76 -76 180q0 107 76.5 182.5t183.5 75.5t182.5 -75.5t75.5 -182.5q0 -108 -75 -180l596 -1395h-346l-113 279h-664l-112 -279h-334zM547 539h452l-225 557zM662 1575q0 -47 35.5 -81t86.5 -34t87 34t36 81q0 49 -36 83t-87 34t-86.5 -34t-35.5 -83z " />
<glyph unicode="&#xc6;" horiz-adv-x="2222" d="M-6 0l821 1434h1288v-269h-768v-311h693v-268h-693v-316h791v-270h-1112v315h-512l-170 -315h-338zM635 561h379v615h-45z" />
<glyph unicode="&#xc7;" horiz-adv-x="1421" d="M55 719q0 153 58.5 287.5t160 230.5t243.5 151.5t302 55.5q155 0 307 -64.5t258 -173.5l-188 -229q-74 85 -174 135.5t-199 50.5q-185 0 -310.5 -126.5t-125.5 -313.5t125.5 -314.5t310.5 -127.5q96 0 196 45.5t177 122.5l190 -207q-97 -100 -225.5 -165.5t-263.5 -84.5 l-47 -94q64 -18 101.5 -61t37.5 -105q0 -94 -67 -150.5t-174 -56.5q-104 0 -191 61l59 138q48 -41 107 -41q40 0 64 22.5t24 54.5t-25 53t-69 21q-24 0 -74 -8l76 164q-142 15 -265 77t-211 157.5t-138 223.5t-50 271z" />
<glyph unicode="&#xc8;" horiz-adv-x="1368" d="M158 0v1434h1091v-269h-768v-311h693v-268h-693v-318h791v-268h-1114zM358 1792l293 109l219 -334h-252z" />
<glyph unicode="&#xc9;" horiz-adv-x="1368" d="M158 0v1434h1091v-269h-768v-311h693v-268h-693v-318h791v-268h-1114zM543 1567l217 334l293 -111l-260 -223h-250z" />
<glyph unicode="&#xca;" horiz-adv-x="1368" d="M158 0v1434h1091v-269h-768v-311h693v-268h-693v-318h791v-268h-1114zM354 1583l224 303h262l223 -303h-232l-122 174l-123 -174h-232z" />
<glyph unicode="&#xcb;" horiz-adv-x="1368" d="M158 0v1434h1091v-269h-768v-311h693v-268h-693v-318h791v-268h-1114zM369 1755q0 68 41.5 111t105.5 43q65 0 107.5 -43.5t42.5 -110.5q0 -66 -42.5 -108.5t-107.5 -42.5q-64 0 -105.5 42.5t-41.5 108.5zM754 1755q0 68 41.5 111t105.5 43q65 0 107.5 -43.5t42.5 -110.5 q0 -66 -42.5 -108.5t-107.5 -42.5q-64 0 -105.5 42.5t-41.5 108.5z" />
<glyph unicode="&#xcc;" horiz-adv-x="641" d="M-29 1792l293 109l219 -334h-252zM158 0v1434h323v-1434h-323z" />
<glyph unicode="&#xcd;" horiz-adv-x="641" d="M156 1567l217 334l293 -111l-260 -223h-250zM158 0v1434h323v-1434h-323z" />
<glyph unicode="&#xce;" horiz-adv-x="641" d="M-35 1583l223 303h263l223 -303h-232l-123 174l-122 -174h-232zM158 0v1434h323v-1434h-323z" />
<glyph unicode="&#xcf;" horiz-adv-x="641" d="M-20 1755q0 68 41.5 111t105.5 43q65 0 107 -43.5t42 -110.5q0 -66 -42 -108.5t-107 -42.5q-64 0 -105.5 42.5t-41.5 108.5zM158 0v1434h323v-1434h-323zM365 1755q0 68 41.5 111t105.5 43q65 0 107.5 -43.5t42.5 -110.5q0 -66 -42.5 -108.5t-107.5 -42.5 q-64 0 -105.5 42.5t-41.5 108.5z" />
<glyph unicode="&#xd0;" horiz-adv-x="1632" d="M0 629v180h215v625h608q220 0 391.5 -90.5t267 -254t95.5 -372.5t-96.5 -372t-271 -254t-398.5 -91h-596v629h-215zM539 272h292q181 0 298.5 124t117.5 319q0 196 -122 321t-308 125h-278v-352h352v-180h-352v-357z" />
<glyph unicode="&#xd1;" horiz-adv-x="1613" d="M158 0v1434h295l696 -922v922h307v-1434h-295l-694 920v-920h-309zM455 1608q0 309 204 309q40 0 79 -16t63 -35t51 -35t47 -16q68 0 68 90h194q0 -306 -205 -306q-54 0 -100 25.5t-80 50.5t-59 25q-68 0 -68 -92h-194z" />
<glyph unicode="&#xd2;" horiz-adv-x="1650" d="M55 717q0 206 100.5 372.5t277 260.5t392.5 94t392.5 -94.5t277 -261t100.5 -371.5q0 -204 -100.5 -371.5t-277 -263.5t-392.5 -96t-392.5 95.5t-277 263t-100.5 372.5zM387 717q0 -93 35.5 -176.5t95 -143t141 -94.5t170.5 -35q181 0 308 130.5t127 318.5t-127 316 t-308 128q-183 0 -312.5 -128.5t-129.5 -315.5zM463 1792l293 109l219 -334h-252z" />
<glyph unicode="&#xd3;" horiz-adv-x="1650" d="M55 717q0 206 100.5 372.5t277 260.5t392.5 94t392.5 -94.5t277 -261t100.5 -371.5q0 -204 -100.5 -371.5t-277 -263.5t-392.5 -96t-392.5 95.5t-277 263t-100.5 372.5zM387 717q0 -93 35.5 -176.5t95 -143t141 -94.5t170.5 -35q181 0 308 130.5t127 318.5t-127 316 t-308 128q-183 0 -312.5 -128.5t-129.5 -315.5zM647 1567l217 334l293 -111l-260 -223h-250z" />
<glyph unicode="&#xd4;" horiz-adv-x="1650" d="M55 717q0 206 100.5 372.5t277 260.5t392.5 94t392.5 -94.5t277 -261t100.5 -371.5q0 -204 -100.5 -371.5t-277 -263.5t-392.5 -96t-392.5 95.5t-277 263t-100.5 372.5zM387 717q0 -93 35.5 -176.5t95 -143t141 -94.5t170.5 -35q181 0 308 130.5t127 318.5t-127 316 t-308 128q-183 0 -312.5 -128.5t-129.5 -315.5zM457 1583l223 303h262l223 -303h-231l-123 174l-123 -174h-231z" />
<glyph unicode="&#xd5;" horiz-adv-x="1650" d="M55 717q0 206 100.5 372.5t277 260.5t392.5 94t392.5 -94.5t277 -261t100.5 -371.5q0 -204 -100.5 -371.5t-277 -263.5t-392.5 -96t-392.5 95.5t-277 263t-100.5 372.5zM387 717q0 -93 35.5 -176.5t95 -143t141 -94.5t170.5 -35q181 0 308 130.5t127 318.5t-127 316 t-308 128q-183 0 -312.5 -128.5t-129.5 -315.5zM459 1608q0 309 205 309q51 0 97.5 -25.5t82 -51t59.5 -25.5q68 0 68 90h194q0 -306 -204 -306q-54 0 -100.5 25.5t-80.5 50.5t-59 25q-68 0 -68 -92h-194z" />
<glyph unicode="&#xd6;" horiz-adv-x="1650" d="M55 717q0 206 100.5 372.5t277 260.5t392.5 94t392.5 -94.5t277 -261t100.5 -371.5q0 -204 -100.5 -371.5t-277 -263.5t-392.5 -96t-392.5 95.5t-277 263t-100.5 372.5zM387 717q0 -93 35.5 -176.5t95 -143t141 -94.5t170.5 -35q181 0 308 130.5t127 318.5t-127 316 t-308 128q-183 0 -312.5 -128.5t-129.5 -315.5zM471 1755q0 68 41.5 111t105.5 43q65 0 107.5 -43.5t42.5 -110.5q0 -66 -42.5 -108.5t-107.5 -42.5q-64 0 -105.5 42.5t-41.5 108.5zM856 1755q0 67 41.5 110.5t106.5 43.5t107 -43.5t42 -110.5q0 -66 -42 -108.5t-107 -42.5 t-106.5 42.5t-41.5 108.5z" />
<glyph unicode="&#xd7;" horiz-adv-x="1036" d="M129 422l244 246l-244 245l143 148l246 -248l246 248l143 -148l-243 -245l243 -246l-143 -148l-246 248l-246 -248z" />
<glyph unicode="&#xd8;" horiz-adv-x="1650" d="M55 717q0 206 100.5 372.5t277 260.5t392.5 94q67 0 142 -10l77 223h185l-94 -271q210 -83 335 -261.5t125 -407.5q0 -204 -100.5 -371.5t-277 -263.5t-392.5 -96q-85 0 -170 16l-84 -240h-182l100 291q-198 88 -316 265t-118 399zM387 717q0 -117 55 -216t148 -161 l282 819q-14 2 -43 2q-183 0 -312.5 -128.5t-129.5 -315.5zM750 276q36 -8 79 -8q181 0 308 130.5t127 318.5q0 127 -61.5 230.5t-164.5 160.5z" />
<glyph unicode="&#xd9;" horiz-adv-x="1556" d="M131 600v834h324v-834q0 -153 90 -242.5t237 -89.5q146 0 233 89t87 243v834h323v-834q0 -284 -173 -449t-470 -165q-299 0 -475 165.5t-176 448.5zM430 1792l293 109l219 -334h-252z" />
<glyph unicode="&#xda;" horiz-adv-x="1556" d="M131 600v834h324v-834q0 -153 90 -242.5t237 -89.5q146 0 233 89t87 243v834h323v-834q0 -284 -173 -449t-470 -165q-299 0 -475 165.5t-176 448.5zM614 1567l217 334l293 -111l-260 -223h-250z" />
<glyph unicode="&#xdb;" horiz-adv-x="1556" d="M131 600v834h324v-834q0 -153 90 -242.5t237 -89.5q146 0 233 89t87 243v834h323v-834q0 -284 -173 -449t-470 -165q-299 0 -475 165.5t-176 448.5zM424 1583l223 303h262l224 -303h-232l-123 174l-123 -174h-231z" />
<glyph unicode="&#xdc;" horiz-adv-x="1556" d="M131 600v834h324v-834q0 -153 90 -242.5t237 -89.5q146 0 233 89t87 243v834h323v-834q0 -284 -173 -449t-470 -165q-299 0 -475 165.5t-176 448.5zM438 1755q0 67 41.5 110.5t106.5 43.5t107 -43.5t42 -110.5q0 -66 -42 -108.5t-107 -42.5t-106.5 42.5t-41.5 108.5z M823 1755q0 67 41.5 110.5t106.5 43.5t107 -43.5t42 -110.5q0 -66 -42 -108.5t-107 -42.5t-106.5 42.5t-41.5 108.5z" />
<glyph unicode="&#xdd;" horiz-adv-x="1363" d="M-6 1434h325l367 -643l358 643h326l-522 -971v-463h-324v455zM518 1567l217 334l293 -111l-260 -223h-250z" />
<glyph unicode="&#xde;" horiz-adv-x="1404" d="M158 0v1434h323v-193h269q286 0 446 -129.5t160 -359.5q0 -243 -160 -379.5t-446 -136.5h-269v-236h-323zM481 494h254q141 0 215 63.5t74 183.5q0 117 -74 179.5t-215 62.5h-254v-489z" />
<glyph unicode="&#xdf;" horiz-adv-x="1351" d="M133 0v1006q0 242 146 385t397 143q230 0 371 -111t141 -295q0 -111 -57.5 -204.5t-153.5 -139.5q135 -35 216 -126t81 -222q0 -195 -153 -315.5t-406 -120.5h-103v233h97q120 0 189 55t69 148q0 96 -76.5 147.5t-214.5 51.5h-35v231q115 0 178.5 56.5t63.5 158.5 q0 98 -55 152.5t-152 54.5q-109 0 -169.5 -68.5t-60.5 -191.5v-1028h-313z" />
<glyph unicode="&#xe0;" horiz-adv-x="1220" d="M66 330q0 156 109 243.5t310 88.5h303v20q0 89 -58 136.5t-171 47.5q-153 0 -328 -96l-98 217q131 65 245.5 96t252.5 31q221 0 343 -104t124 -291l2 -719h-309v129q-115 -143 -347 -143q-174 0 -276 95.5t-102 248.5zM258 1458l293 109l219 -334h-252zM360 350 q0 -63 46.5 -101t125.5 -38q99 0 170.5 47.5t85.5 118.5v98h-247q-92 0 -136.5 -30t-44.5 -95z" />
<glyph unicode="&#xe1;" horiz-adv-x="1220" d="M66 330q0 156 109 243.5t310 88.5h303v20q0 89 -58 136.5t-171 47.5q-153 0 -328 -96l-98 217q131 65 245.5 96t252.5 31q221 0 343 -104t124 -291l2 -719h-309v129q-115 -143 -347 -143q-174 0 -276 95.5t-102 248.5zM360 350q0 -63 46.5 -101t125.5 -38 q99 0 170.5 47.5t85.5 118.5v98h-247q-92 0 -136.5 -30t-44.5 -95zM442 1233l217 334l293 -111l-260 -223h-250z" />
<glyph unicode="&#xe2;" horiz-adv-x="1220" d="M66 330q0 156 109 243.5t310 88.5h303v20q0 89 -58 136.5t-171 47.5q-153 0 -328 -96l-98 217q131 65 245.5 96t252.5 31q221 0 343 -104t124 -291l2 -719h-309v129q-115 -143 -347 -143q-174 0 -276 95.5t-102 248.5zM252 1249l223 303h262l224 -303h-232l-123 174 l-123 -174h-231zM360 350q0 -63 46.5 -101t125.5 -38q99 0 170.5 47.5t85.5 118.5v98h-247q-92 0 -136.5 -30t-44.5 -95z" />
<glyph unicode="&#xe3;" horiz-adv-x="1220" d="M66 330q0 156 109 243.5t310 88.5h303v20q0 89 -58 136.5t-171 47.5q-153 0 -328 -96l-98 217q131 65 245.5 96t252.5 31q221 0 343 -104t124 -291l2 -719h-309v129q-115 -143 -347 -143q-174 0 -276 95.5t-102 248.5zM254 1274q0 309 205 309q51 0 97.5 -25.5t82 -51 t59.5 -25.5q68 0 68 90h195q0 -305 -205 -305q-42 0 -81 15.5t-62.5 34.5t-50 34.5t-46.5 15.5q-67 0 -67 -92h-195zM360 350q0 -63 46.5 -101t125.5 -38q99 0 170.5 47.5t85.5 118.5v98h-247q-92 0 -136.5 -30t-44.5 -95z" />
<glyph unicode="&#xe4;" horiz-adv-x="1220" d="M66 330q0 156 109 243.5t310 88.5h303v20q0 89 -58 136.5t-171 47.5q-153 0 -328 -96l-98 217q131 65 245.5 96t252.5 31q221 0 343 -104t124 -291l2 -719h-309v129q-115 -143 -347 -143q-174 0 -276 95.5t-102 248.5zM266 1421q0 67 41.5 110.5t106.5 43.5t107 -43.5 t42 -110.5q0 -66 -42 -108.5t-107 -42.5t-106.5 42.5t-41.5 108.5zM360 350q0 -63 46.5 -101t125.5 -38q99 0 170.5 47.5t85.5 118.5v98h-247q-92 0 -136.5 -30t-44.5 -95zM651 1421q0 67 41.5 110.5t106.5 43.5t107 -43.5t42 -110.5q0 -66 -42 -108.5t-107 -42.5 t-106.5 42.5t-41.5 108.5z" />
<glyph unicode="&#xe5;" horiz-adv-x="1220" d="M66 330q0 156 109 243.5t310 88.5h303v20q0 89 -58 136.5t-171 47.5q-153 0 -328 -96l-98 217q131 65 245.5 96t252.5 31q221 0 343 -104t124 -291l2 -719h-309v129q-115 -143 -347 -143q-174 0 -276 95.5t-102 248.5zM360 350q0 -63 46.5 -101t125.5 -38 q99 0 170.5 47.5t85.5 118.5v98h-247q-92 0 -136.5 -30t-44.5 -95zM360 1417q0 100 72.5 172t173.5 72t173.5 -72t72.5 -172q0 -101 -72 -172t-174 -71t-174 71t-72 172zM489 1417q0 -47 34 -79.5t83 -32.5q50 0 84.5 32.5t34.5 79.5q0 46 -35 78.5t-84 32.5t-83 -32.5 t-34 -78.5z" />
<glyph unicode="&#xe6;" horiz-adv-x="1982" d="M66 324q0 153 109 235t312 84h306v39q0 88 -59.5 136t-172.5 48q-167 0 -354 -96l-74 221q262 123 498 123q253 0 377 -133q140 131 358 131q269 0 421 -173t140 -460h-815q22 -116 99 -181t190 -65q164 0 280 119l166 -172q-176 -192 -471 -192q-159 0 -276 62.5 t-182 178.5q-134 -243 -457 -243q-183 0 -289 93t-106 245zM360 350q0 -69 47.5 -110t127.5 -41q185 0 264 163l-4 3v120h-244q-91 0 -141 -34.5t-50 -100.5zM834 354l38 -24l-6 18zM1110 639h504q-2 110 -70 181t-174 71q-102 0 -171.5 -69.5t-88.5 -182.5z" />
<glyph unicode="&#xe7;" horiz-adv-x="1153" d="M57 547q0 253 156 409t410 156q157 0 280 -60t197 -171l-213 -154q-96 120 -252 117q-116 0 -189 -81.5t-73 -213.5q0 -133 73 -216t189 -83q173 0 256 129l217 -148q-59 -98 -158 -159t-231 -78l-49 -96q64 -18 101.5 -61t37.5 -105q0 -94 -67.5 -150.5t-174.5 -56.5 q-103 0 -190 61l59 138q48 -41 107 -41q40 0 64 22.5t24 54.5t-25 53t-69 21q-24 0 -74 -8l78 166q-219 25 -351.5 175.5t-132.5 379.5z" />
<glyph unicode="&#xe8;" horiz-adv-x="1222" d="M57 547q0 254 157.5 409.5t410.5 155.5q285 0 423 -175t117 -482h-790q28 -104 103 -163t181 -59q162 0 279 117l166 -168q-175 -194 -471 -194q-263 0 -419.5 153.5t-156.5 405.5zM266 1458l293 109l219 -334h-252zM369 641h501q-3 109 -69 174.5t-174 65.5 q-103 0 -171 -65t-87 -175z" />
<glyph unicode="&#xe9;" horiz-adv-x="1222" d="M57 547q0 254 157.5 409.5t410.5 155.5q285 0 423 -175t117 -482h-790q28 -104 103 -163t181 -59q162 0 279 117l166 -168q-175 -194 -471 -194q-263 0 -419.5 153.5t-156.5 405.5zM369 641h501q-3 109 -69 174.5t-174 65.5q-103 0 -171 -65t-87 -175zM451 1233l217 334 l293 -111l-261 -223h-249z" />
<glyph unicode="&#xea;" horiz-adv-x="1222" d="M57 547q0 254 157.5 409.5t410.5 155.5q285 0 423 -175t117 -482h-790q28 -104 103 -163t181 -59q162 0 279 117l166 -168q-175 -194 -471 -194q-263 0 -419.5 153.5t-156.5 405.5zM260 1249l223 303h262l224 -303h-232l-123 174l-122 -174h-232zM369 641h501 q-3 109 -69 174.5t-174 65.5q-103 0 -171 -65t-87 -175z" />
<glyph unicode="&#xeb;" horiz-adv-x="1222" d="M57 547q0 254 157.5 409.5t410.5 155.5q285 0 423 -175t117 -482h-790q28 -104 103 -163t181 -59q162 0 279 117l166 -168q-175 -194 -471 -194q-263 0 -419.5 153.5t-156.5 405.5zM274 1421q0 67 41.5 110.5t106.5 43.5t107 -43.5t42 -110.5q0 -66 -42 -108.5 t-107 -42.5t-106.5 42.5t-41.5 108.5zM369 641h501q-3 109 -69 174.5t-174 65.5q-103 0 -171 -65t-87 -175zM659 1421q0 67 41.5 110.5t106.5 43.5t107 -43.5t42 -110.5q0 -66 -42 -108.5t-107 -42.5t-106.5 42.5t-41.5 108.5z" />
<glyph unicode="&#xec;" horiz-adv-x="618" d="M-39 1458l293 109l219 -334h-252zM152 0v1102h315v-1102h-315z" />
<glyph unicode="&#xed;" horiz-adv-x="618" d="M145 1233l217 334l293 -111l-260 -223h-250zM152 0v1102h315v-1102h-315z" />
<glyph unicode="&#xee;" horiz-adv-x="618" d="M-45 1249l223 303h262l224 -303h-232l-123 174l-123 -174h-231zM152 0v1102h315v-1102h-315z" />
<glyph unicode="&#xef;" horiz-adv-x="618" d="M-31 1421q0 67 41.5 110.5t106.5 43.5t107 -43.5t42 -110.5q0 -66 -42 -108.5t-107 -42.5t-106.5 42.5t-41.5 108.5zM152 0v1102h315v-1102h-315zM354 1421q0 67 41.5 110.5t106.5 43.5t107 -43.5t42 -110.5q0 -66 -42 -108.5t-107 -42.5t-106.5 42.5t-41.5 108.5z" />
<glyph unicode="&#xf0;" horiz-adv-x="1228" d="M55 461q0 204 126.5 327t338.5 123q106 0 198 -36.5t142 -98.5q-57 175 -239 350l-326 -110l-49 151l231 80q-126 89 -254 150l211 137q182 -76 328 -191l285 97l47 -154l-197 -67q132 -139 203 -306t71 -342q0 -267 -160.5 -426t-430.5 -159q-239 0 -382 129t-143 346z M356 479q0 -101 65.5 -162t172.5 -61q110 0 176 59t66 156q0 100 -66 160.5t-176 60.5q-109 0 -173.5 -58t-64.5 -155z" />
<glyph unicode="&#xf1;" horiz-adv-x="1372" d="M152 0v1102h315v-193q115 202 381 205q185 0 294 -114.5t109 -307.5v-692h-315v600q0 104 -58 164.5t-159 60.5q-116 -1 -184 -79.5t-68 -202.5v-543h-315zM367 1274q0 309 204 309q40 0 79 -16t63 -35t51 -35t47 -16q68 0 68 90h194q0 -305 -205 -305q-54 0 -100 25 t-80 50t-59 25q-68 0 -68 -92h-194z" />
<glyph unicode="&#xf2;" horiz-adv-x="1296" d="M57 551q0 253 163 407t429 154q265 0 427.5 -154t162.5 -407q0 -252 -163 -407.5t-427 -155.5q-265 0 -428.5 155.5t-163.5 407.5zM299 1458l293 109l219 -334h-252zM375 547q0 -135 75.5 -219t198.5 -84q122 0 198.5 84t76.5 219t-76.5 219t-198.5 84q-123 0 -198.5 -84 t-75.5 -219z" />
<glyph unicode="&#xf3;" horiz-adv-x="1296" d="M57 551q0 253 163 407t429 154q265 0 427.5 -154t162.5 -407q0 -252 -163 -407.5t-427 -155.5q-265 0 -428.5 155.5t-163.5 407.5zM375 547q0 -135 75.5 -219t198.5 -84q122 0 198.5 84t76.5 219t-76.5 219t-198.5 84q-123 0 -198.5 -84t-75.5 -219zM483 1233l217 334 l293 -111l-260 -223h-250z" />
<glyph unicode="&#xf4;" horiz-adv-x="1296" d="M57 551q0 253 163 407t429 154q265 0 427.5 -154t162.5 -407q0 -252 -163 -407.5t-427 -155.5q-265 0 -428.5 155.5t-163.5 407.5zM295 1249l223 303h262l224 -303h-232l-123 174l-123 -174h-231zM375 547q0 -135 75.5 -219t198.5 -84q122 0 198.5 84t76.5 219t-76.5 219 t-198.5 84q-123 0 -198.5 -84t-75.5 -219z" />
<glyph unicode="&#xf5;" horiz-adv-x="1296" d="M57 551q0 253 163 407t429 154q265 0 427.5 -154t162.5 -407q0 -252 -163 -407.5t-427 -155.5q-265 0 -428.5 155.5t-163.5 407.5zM297 1274q0 309 205 309q51 0 97.5 -25.5t82 -51t59.5 -25.5q68 0 68 90h195q0 -305 -205 -305q-42 0 -81 15.5t-62.5 34.5t-50 34.5 t-46.5 15.5q-67 0 -67 -92h-195zM375 547q0 -135 75.5 -219t198.5 -84q122 0 198.5 84t76.5 219t-76.5 219t-198.5 84q-123 0 -198.5 -84t-75.5 -219z" />
<glyph unicode="&#xf6;" horiz-adv-x="1296" d="M57 551q0 253 163 407t429 154q265 0 427.5 -154t162.5 -407q0 -252 -163 -407.5t-427 -155.5q-265 0 -428.5 155.5t-163.5 407.5zM309 1421q0 67 41.5 110.5t106.5 43.5t107 -43.5t42 -110.5q0 -66 -42 -108.5t-107 -42.5t-106.5 42.5t-41.5 108.5zM375 547 q0 -135 75.5 -219t198.5 -84q122 0 198.5 84t76.5 219t-76.5 219t-198.5 84q-123 0 -198.5 -84t-75.5 -219zM694 1421q0 67 41.5 110.5t106.5 43.5t107 -43.5t42 -110.5q0 -66 -42 -108.5t-107 -42.5t-106.5 42.5t-41.5 108.5z" />
<glyph unicode="&#xf7;" horiz-adv-x="1036" d="M68 563v209h901v-209h-901zM354 313q0 67 42.5 110.5t107.5 43.5q64 0 105.5 -43t41.5 -111q0 -66 -41.5 -109.5t-105.5 -43.5q-65 0 -107.5 43.5t-42.5 109.5zM354 1044q0 67 42.5 110.5t107.5 43.5q64 0 105.5 -43t41.5 -111q0 -66 -41.5 -109.5t-105.5 -43.5 q-65 0 -107.5 43.5t-42.5 109.5z" />
<glyph unicode="&#xf8;" horiz-adv-x="1296" d="M57 551q0 253 163 407t429 154q66 0 115 -8l86 266h131l-96 -297q166 -59 260 -195.5t94 -326.5q0 -252 -163 -407.5t-427 -155.5q-65 0 -112 8l-95 -289h-133l105 320q-167 59 -262 197t-95 327zM354 547q0 -96 35.5 -169.5t99.5 -115.5l199 612q-18 3 -39 3 q-131 0 -213 -91t-82 -239zM608 219q12 -2 41 -2q131 0 212 91t81 239q0 97 -35.5 170.5t-99.5 113.5z" />
<glyph unicode="&#xf9;" horiz-adv-x="1351" d="M119 410v692h315v-602q0 -104 55.5 -164t151.5 -60q112 1 178 80t66 201v545h313v-1102h-313v195q-113 -207 -369 -207q-183 0 -290 113.5t-107 308.5zM317 1458l293 109l219 -334h-251z" />
<glyph unicode="&#xfa;" horiz-adv-x="1351" d="M119 410v692h315v-602q0 -104 55.5 -164t151.5 -60q112 1 178 80t66 201v545h313v-1102h-313v195q-113 -207 -369 -207q-183 0 -290 113.5t-107 308.5zM502 1233l217 334l293 -111l-260 -223h-250z" />
<glyph unicode="&#xfb;" horiz-adv-x="1351" d="M119 410v692h315v-602q0 -104 55.5 -164t151.5 -60q112 1 178 80t66 201v545h313v-1102h-313v195q-113 -207 -369 -207q-183 0 -290 113.5t-107 308.5zM311 1249l224 303h262l223 -303h-232l-122 174l-123 -174h-232z" />
<glyph unicode="&#xfc;" horiz-adv-x="1351" d="M119 410v692h315v-602q0 -104 55.5 -164t151.5 -60q112 1 178 80t66 201v545h313v-1102h-313v195q-113 -207 -369 -207q-183 0 -290 113.5t-107 308.5zM326 1421q0 68 41.5 111t105.5 43q65 0 107.5 -43.5t42.5 -110.5q0 -66 -42.5 -108.5t-107.5 -42.5 q-64 0 -105.5 42.5t-41.5 108.5zM711 1421q0 68 41.5 111t105.5 43q65 0 107.5 -43.5t42.5 -110.5q0 -66 -42.5 -108.5t-107.5 -42.5q-64 0 -105.5 42.5t-41.5 108.5z" />
<glyph unicode="&#xfd;" horiz-adv-x="1155" d="M-20 1102h325l289 -758l260 758h315l-483 -1225q-116 -289 -403 -289q-169 0 -299 107l133 227q71 -59 143 -59q100 0 146 98l30 62zM416 1233l217 334l293 -111l-260 -223h-250z" />
<glyph unicode="&#xfe;" horiz-adv-x="1400" d="M162 -397v1917h315v-580q121 172 348 172q232 0 375 -156t143 -411q0 -251 -140.5 -404t-371.5 -153q-230 0 -354 172v-557h-315zM477 555q0 -136 76.5 -220.5t198.5 -84.5q121 0 196.5 85t75.5 220q0 133 -75.5 218t-196.5 85t-198 -84.5t-77 -218.5z" />
<glyph unicode="&#xff;" horiz-adv-x="1155" d="M-20 1102h325l289 -758l260 758h315l-483 -1225q-116 -289 -403 -289q-169 0 -299 107l133 227q71 -59 143 -59q100 0 146 98l30 62zM240 1421q0 68 41.5 111t105.5 43q65 0 107.5 -43.5t42.5 -110.5q0 -66 -42.5 -108.5t-107.5 -42.5q-64 0 -105.5 42.5t-41.5 108.5z M625 1421q0 68 41.5 111t105.5 43q65 0 107.5 -43.5t42.5 -110.5q0 -66 -42.5 -108.5t-107.5 -42.5q-64 0 -105.5 42.5t-41.5 108.5z" />
<glyph unicode="&#x100;" horiz-adv-x="1554" d="M-6 0l622 1434h334l613 -1434h-346l-113 279h-664l-112 -279h-334zM502 1632v221h555v-221h-555zM547 539h452l-225 557z" />
<glyph unicode="&#x101;" horiz-adv-x="1220" d="M66 330q0 156 109 243.5t310 88.5h303v20q0 89 -58 136.5t-171 47.5q-153 0 -328 -96l-98 217q131 65 245.5 96t252.5 31q221 0 343 -104t124 -291l2 -719h-309v129q-115 -143 -347 -143q-174 0 -276 95.5t-102 248.5zM330 1298v222h555v-222h-555zM360 350 q0 -63 46.5 -101t125.5 -38q99 0 170.5 47.5t85.5 118.5v98h-247q-92 0 -136.5 -30t-44.5 -95z" />
<glyph unicode="&#x102;" horiz-adv-x="1554" d="M-6 0l622 1434h334l613 -1434h-346l-113 279h-664l-112 -279h-334zM459 1882h200q3 -55 36 -89t83 -34t83 34t36 89h201q-6 -142 -94 -228.5t-226 -86.5t-225.5 86.5t-93.5 228.5zM547 539h452l-225 557z" />
<glyph unicode="&#x103;" horiz-adv-x="1220" d="M66 330q0 156 109 243.5t310 88.5h303v20q0 89 -58 136.5t-171 47.5q-153 0 -328 -96l-98 217q131 65 245.5 96t252.5 31q221 0 343 -104t124 -291l2 -719h-309v129q-115 -143 -347 -143q-174 0 -276 95.5t-102 248.5zM287 1548h200q3 -55 36 -89t83 -34t83 34t36 89h201 q-6 -142 -94 -228.5t-226 -86.5t-225.5 86.5t-93.5 228.5zM360 350q0 -63 46.5 -101t125.5 -38q99 0 170.5 47.5t85.5 118.5v98h-247q-92 0 -136.5 -30t-44.5 -95z" />
<glyph unicode="&#x104;" horiz-adv-x="1554" d="M-6 0l624 1434h332l613 -1434h-93q-92 -130 -92 -197q0 -51 49 -51q45 0 93 64l82 -99q-36 -64 -91.5 -97.5t-119.5 -33.5q-71 0 -122.5 40.5t-51.5 125.5q0 102 98 248h-98l-115 279h-658l-114 -279h-336zM545 539h461l-230 559z" />
<glyph unicode="&#x105;" horiz-adv-x="1228" d="M66 330q0 156 109 243.5t310 88.5h308v22q-3 88 -61.5 135t-172.5 47q-153 0 -328 -96l-98 217q133 66 247 96.5t253 30.5q222 0 344.5 -104t124.5 -291v-719h-78q-94 -128 -94 -197q0 -24 13.5 -37.5t37.5 -13.5q46 0 90 64l84 -99q-38 -64 -93.5 -97.5t-119.5 -33.5 q-71 0 -122.5 40.5t-51.5 125.5q0 109 102 248h-77v129q-113 -143 -347 -143q-176 0 -278 95.5t-102 248.5zM360 350q0 -63 47 -101t128 -38q96 0 171 47.5t87 114.5v102h-250q-94 0 -138.5 -29.5t-44.5 -95.5z" />
<glyph unicode="&#x106;" horiz-adv-x="1421" d="M55 719q0 153 58.5 287.5t160 230.5t243.5 151.5t302 55.5q155 0 307 -64.5t258 -173.5l-188 -229q-74 85 -174 135.5t-199 50.5q-185 0 -310.5 -126.5t-125.5 -313.5t125.5 -314.5t310.5 -127.5q96 0 196 45.5t177 122.5l190 -207q-115 -118 -269.5 -187t-309.5 -69 q-211 0 -383.5 96t-270.5 264t-98 373zM612 1567l217 334l293 -111l-260 -223h-250z" />
<glyph unicode="&#x107;" horiz-adv-x="1153" d="M57 547q0 253 156 409t410 156q157 0 280 -60t197 -171l-213 -154q-96 120 -252 117q-116 0 -189 -81.5t-73 -213.5q0 -133 73 -216t189 -83q173 0 256 129l217 -148q-70 -116 -196 -179.5t-294 -63.5q-251 0 -406 154.5t-155 404.5zM432 1233l217 334l293 -111 l-260 -223h-250z" />
<glyph unicode="&#x108;" horiz-adv-x="1421" d="M55 719q0 153 58.5 287.5t160 230.5t243.5 151.5t302 55.5q155 0 307 -64.5t258 -173.5l-188 -229q-74 85 -174 135.5t-199 50.5q-185 0 -310.5 -126.5t-125.5 -313.5t125.5 -314.5t310.5 -127.5q96 0 196 45.5t177 122.5l190 -207q-115 -118 -269.5 -187t-309.5 -69 q-211 0 -383.5 96t-270.5 264t-98 373zM424 1583l223 303h262l224 -303h-232l-123 174l-123 -174h-231z" />
<glyph unicode="&#x109;" horiz-adv-x="1153" d="M57 547q0 253 156 409t410 156q157 0 280 -60t197 -171l-213 -154q-96 120 -252 117q-116 0 -189 -81.5t-73 -213.5q0 -133 73 -216t189 -83q173 0 256 129l217 -148q-70 -116 -196 -179.5t-294 -63.5q-251 0 -406 154.5t-155 404.5zM242 1249l223 303h262l223 -303h-231 l-123 174l-123 -174h-231z" />
<glyph unicode="&#x10a;" horiz-adv-x="1421" d="M55 719q0 153 58.5 287.5t160 230.5t243.5 151.5t302 55.5q155 0 307 -64.5t258 -173.5l-188 -229q-74 85 -174 135.5t-199 50.5q-185 0 -310.5 -126.5t-125.5 -313.5t125.5 -314.5t310.5 -127.5q96 0 196 45.5t177 122.5l190 -207q-115 -118 -269.5 -187t-309.5 -69 q-211 0 -383.5 96t-270.5 264t-98 373zM608 1749q0 77 47.5 126.5t122.5 49.5t122.5 -49.5t47.5 -126.5t-47.5 -126.5t-122.5 -49.5t-122.5 49.5t-47.5 126.5z" />
<glyph unicode="&#x10b;" horiz-adv-x="1153" d="M57 547q0 253 156 409t410 156q157 0 280 -60t197 -171l-213 -154q-96 120 -252 117q-116 0 -189 -81.5t-73 -213.5q0 -133 73 -216t189 -83q173 0 256 129l217 -148q-70 -116 -196 -179.5t-294 -63.5q-251 0 -406 154.5t-155 404.5zM426 1415q0 77 47.5 126.5 t122.5 49.5t122.5 -49.5t47.5 -126.5t-47.5 -126.5t-122.5 -49.5t-122.5 49.5t-47.5 126.5z" />
<glyph unicode="&#x10c;" horiz-adv-x="1421" d="M55 719q0 153 58.5 287.5t160 230.5t243.5 151.5t302 55.5q155 0 307 -64.5t258 -173.5l-188 -229q-74 85 -174 135.5t-199 50.5q-185 0 -310.5 -126.5t-125.5 -313.5t125.5 -314.5t310.5 -127.5q96 0 196 45.5t177 122.5l190 -207q-115 -118 -269.5 -187t-309.5 -69 q-211 0 -383.5 96t-270.5 264t-98 373zM389 1886h254l127 -188l127 188h254l-240 -327h-282z" />
<glyph unicode="&#x10d;" horiz-adv-x="1153" d="M57 547q0 253 156 409t410 156q157 0 280 -60t197 -171l-213 -154q-96 120 -252 117q-116 0 -189 -81.5t-73 -213.5q0 -133 73 -216t189 -83q173 0 256 129l217 -148q-70 -116 -196 -179.5t-294 -63.5q-251 0 -406 154.5t-155 404.5zM207 1552h254l127 -188l127 188h254 l-240 -327h-283z" />
<glyph unicode="&#x10e;" horiz-adv-x="1574" d="M158 0v1434h608q220 0 391.5 -90.5t267 -254t95.5 -372.5t-96.5 -372t-271 -254t-398.5 -91h-596zM348 1886h254l127 -188l127 188h254l-240 -327h-282zM481 272h293q181 0 298.5 124t117.5 319q0 196 -122 321t-308 125h-279v-889z" />
<glyph unicode="&#x10f;" horiz-adv-x="1562" d="M57 555q0 252 141 405.5t371 153.5q234 0 357 -174v580h313v-1520h-313v162q-120 -174 -348 -174q-235 0 -378 156t-143 411zM373 547q2 -136 78 -220.5t200 -84.5q122 0 198.5 85t76.5 220t-76.5 220t-198.5 85t-199 -85.5t-79 -219.5zM1325 913l86 207q-63 45 -63 127 q0 70 44.5 115t112.5 45q64 0 109 -43t45 -117q0 -68 -43 -127l-137 -207h-154z" />
<glyph unicode="&#x110;" horiz-adv-x="1574" d="M158 0v1434h608q220 0 391.5 -90.5t267 -254t95.5 -372.5t-96.5 -372t-271 -254t-398.5 -91h-596zM461 1632v221h555v-221h-555zM481 272h293q181 0 298.5 124t117.5 319q0 196 -122 321t-308 125h-279v-889z" />
<glyph unicode="&#x111;" horiz-adv-x="1409" d="M57 555q0 252 141 405.5t371 153.5q234 0 357 -174v289h-185v172h185v119h313v-119h137v-172h-137v-1229h-313v162q-120 -174 -348 -174q-235 0 -378 156t-143 411zM373 547q2 -136 78 -220.5t200 -84.5q122 0 198.5 85t76.5 220t-76.5 220t-198.5 85t-199 -85.5 t-79 -219.5z" />
<glyph unicode="&#x112;" horiz-adv-x="1368" d="M158 0v1434h1091v-269h-768v-311h693v-268h-693v-318h791v-268h-1114zM430 1632v221h555v-221h-555z" />
<glyph unicode="&#x113;" horiz-adv-x="1222" d="M57 547q0 254 157.5 409.5t410.5 155.5q285 0 423 -175t117 -482h-790q28 -104 103 -163t181 -59q162 0 279 117l166 -168q-175 -194 -471 -194q-263 0 -419.5 153.5t-156.5 405.5zM338 1298v222h555v-222h-555zM369 641h501q-3 109 -69 174.5t-174 65.5q-103 0 -171 -65 t-87 -175z" />
<glyph unicode="&#x114;" horiz-adv-x="1368" d="M158 0v1434h1091v-269h-768v-311h693v-268h-693v-318h791v-268h-1114zM389 1882h201q3 -55 36 -89t83 -34t82.5 34t35.5 89h201q-6 -142 -93.5 -228.5t-225.5 -86.5t-226 86.5t-94 228.5z" />
<glyph unicode="&#x115;" horiz-adv-x="1222" d="M57 547q0 254 157.5 409.5t410.5 155.5q285 0 423 -175t117 -482h-790q28 -104 103 -163t181 -59q162 0 279 117l166 -168q-175 -194 -471 -194q-263 0 -419.5 153.5t-156.5 405.5zM295 1548h201q3 -55 35.5 -89t82.5 -34t83 34t36 89h201q-6 -142 -94 -228.5t-226 -86.5 t-225.5 86.5t-93.5 228.5zM369 641h501q-3 109 -69 174.5t-174 65.5q-103 0 -171 -65t-87 -175z" />
<glyph unicode="&#x116;" horiz-adv-x="1368" d="M158 0v1434h1091v-269h-768v-311h693v-268h-693v-318h791v-268h-1114zM539 1749q0 77 47.5 126.5t122.5 49.5t122.5 -49.5t47.5 -126.5t-47.5 -126.5t-122.5 -49.5t-122.5 49.5t-47.5 126.5z" />
<glyph unicode="&#x117;" horiz-adv-x="1222" d="M57 547q0 254 157.5 409.5t410.5 155.5q285 0 423 -175t117 -482h-790q28 -104 103 -163t181 -59q162 0 279 117l166 -168q-175 -194 -471 -194q-263 0 -419.5 153.5t-156.5 405.5zM369 641h501q-3 109 -69 174.5t-174 65.5q-103 0 -171 -65t-87 -175zM444 1415 q0 77 47.5 126.5t122.5 49.5t122.5 -49.5t47.5 -126.5t-47.5 -126.5t-122.5 -49.5t-122.5 49.5t-47.5 126.5z" />
<glyph unicode="&#x118;" horiz-adv-x="1380" d="M158 0v1434h1104v-258h-781v-322h703v-258h-703v-338h803v-258h-143q-94 -134 -94 -197q0 -24 14.5 -37.5t36.5 -13.5q48 0 92 64l84 -99q-38 -64 -93.5 -97.5t-119.5 -33.5q-71 0 -122.5 40.5t-51.5 125.5q0 105 100 248h-829z" />
<glyph unicode="&#x119;" horiz-adv-x="1222" d="M57 551q0 247 152 402t416 159q277 4 419 -172t123 -485h-792q27 -104 100.5 -163t183.5 -59q163 0 279 119l166 -172q-91 -104 -156 -207t-65 -166q0 -55 51 -55q43 0 90 64l82 -99q-37 -62 -91 -96.5t-118 -34.5q-72 0 -123 40.5t-51 127.5q0 129 117 287 q-97 -53 -213 -53q-258 0 -414 154.5t-156 408.5zM369 641h501q-3 106 -69.5 173t-171.5 67t-176.5 -66.5t-83.5 -173.5z" />
<glyph unicode="&#x11a;" horiz-adv-x="1368" d="M158 0v1434h1091v-269h-768v-311h693v-268h-693v-318h791v-268h-1114zM319 1886h254l127 -188l127 188h254l-239 -327h-283z" />
<glyph unicode="&#x11b;" horiz-adv-x="1222" d="M57 547q0 254 157.5 409.5t410.5 155.5q285 0 423 -175t117 -482h-790q28 -104 103 -163t181 -59q162 0 279 117l166 -168q-175 -194 -471 -194q-263 0 -419.5 153.5t-156.5 405.5zM225 1552h254l127 -188l127 188h254l-239 -327h-283zM369 641h501q-3 109 -69 174.5 t-174 65.5q-103 0 -171 -65t-87 -175z" />
<glyph unicode="&#x11c;" horiz-adv-x="1525" d="M55 717q0 204 102 370.5t281.5 261.5t399.5 95q158 0 311.5 -56.5t263.5 -152.5l-182 -231q-80 74 -184.5 116.5t-208.5 42.5q-191 0 -321 -128.5t-130 -317.5q0 -190 131 -319.5t322 -129.5q127 0 280 78v377h281v-551q-115 -84 -274 -135t-308 -51q-214 0 -389 95.5 t-275 263t-100 372.5zM444 1583l224 303h262l223 -303h-231l-123 174l-123 -174h-232z" />
<glyph unicode="&#x11d;" horiz-adv-x="1320" d="M57 590q0 233 131 377.5t342 144.5q219 3 340 -160v150h314v-1000q0 -234 -161.5 -373t-426.5 -139q-263 0 -479 146l116 221q154 -111 342 -111q135 0 215 66.5t80 179.5v125q-116 -160 -331 -160q-214 0 -348 147t-134 386zM305 1249l223 303h263l223 -303h-232 l-123 174l-122 -174h-232zM352 582q2 -127 73 -206t187 -79q115 0 186.5 79.5t71.5 205.5q0 128 -71.5 207t-186.5 79t-186.5 -79.5t-73.5 -206.5z" />
<glyph unicode="&#x11e;" horiz-adv-x="1525" d="M55 717q0 204 102 370.5t281.5 261.5t399.5 95q158 0 311.5 -56.5t263.5 -152.5l-182 -231q-80 74 -184.5 116.5t-208.5 42.5q-191 0 -321 -128.5t-130 -317.5q0 -190 131 -319.5t322 -129.5q127 0 280 78v377h281v-551q-115 -84 -274 -135t-308 -51q-214 0 -389 95.5 t-275 263t-100 372.5zM479 1882h201q3 -55 36 -89t83 -34t83 34t36 89h200q-6 -142 -93.5 -228.5t-225.5 -86.5t-226 86.5t-94 228.5z" />
<glyph unicode="&#x11f;" horiz-adv-x="1320" d="M57 590q0 233 131 377.5t342 144.5q219 3 340 -160v150h314v-1000q0 -234 -161.5 -373t-426.5 -139q-263 0 -479 146l116 221q154 -111 342 -111q135 0 215 66.5t80 179.5v125q-116 -160 -331 -160q-214 0 -348 147t-134 386zM340 1548h201q3 -55 35.5 -89t82.5 -34 t83 34t36 89h201q-6 -142 -94 -228.5t-226 -86.5t-225.5 86.5t-93.5 228.5zM352 582q2 -127 73 -206t187 -79q115 0 186.5 79.5t71.5 205.5q0 128 -71.5 207t-186.5 79t-186.5 -79.5t-73.5 -206.5z" />
<glyph unicode="&#x120;" horiz-adv-x="1525" d="M55 717q0 204 102 370.5t281.5 261.5t399.5 95q158 0 311.5 -56.5t263.5 -152.5l-182 -231q-80 74 -184.5 116.5t-208.5 42.5q-191 0 -321 -128.5t-130 -317.5q0 -190 131 -319.5t322 -129.5q127 0 280 78v377h281v-551q-115 -84 -274 -135t-308 -51q-214 0 -389 95.5 t-275 263t-100 372.5zM629 1749q0 77 47.5 126.5t122.5 49.5t122.5 -49.5t47.5 -126.5t-47.5 -126.5t-122.5 -49.5t-122.5 49.5t-47.5 126.5z" />
<glyph unicode="&#x121;" horiz-adv-x="1320" d="M57 590q0 233 131 377.5t342 144.5q219 3 340 -160v150h314v-1000q0 -234 -161.5 -373t-426.5 -139q-263 0 -479 146l116 221q154 -111 342 -111q135 0 215 66.5t80 179.5v125q-116 -160 -331 -160q-214 0 -348 147t-134 386zM352 582q2 -127 73 -206t187 -79 q115 0 186.5 79.5t71.5 205.5q0 128 -71.5 207t-186.5 79t-186.5 -79.5t-73.5 -206.5zM489 1415q0 77 47.5 126.5t122.5 49.5t122.5 -49.5t47.5 -126.5t-47.5 -126.5t-122.5 -49.5t-122.5 49.5t-47.5 126.5z" />
<glyph unicode="&#x122;" horiz-adv-x="1525" d="M55 717q0 204 102 370.5t281.5 261.5t399.5 95q158 0 311.5 -56.5t263.5 -152.5l-182 -231q-80 74 -184.5 116.5t-208.5 42.5q-191 0 -321 -128.5t-130 -317.5q0 -190 131 -319.5t322 -129.5q127 0 280 78v377h281v-551q-115 -84 -274 -135t-308 -51q-214 0 -389 95.5 t-275 263t-100 372.5zM633 -582l86 207q-64 46 -64 127q0 69 45 114.5t113 45.5q64 0 109 -43t45 -115q0 -67 -43 -129l-138 -207h-153z" />
<glyph unicode="&#x123;" horiz-adv-x="1320" d="M57 590q0 233 131 377.5t342 144.5q219 3 340 -160v150h314v-1000q0 -234 -161.5 -373t-426.5 -139q-263 0 -479 146l116 221q154 -111 342 -111q135 0 215 66.5t80 179.5v125q-116 -160 -331 -160q-214 0 -348 147t-134 386zM352 582q2 -127 73 -206t187 -79 q115 0 186.5 79.5t71.5 205.5q0 128 -71.5 207t-186.5 79t-186.5 -79.5t-73.5 -206.5zM494 1348q0 67 43 129l137 206h153l-86 -206q64 -46 64 -127q0 -69 -45 -114.5t-113 -45.5q-64 0 -108.5 43t-44.5 115z" />
<glyph unicode="&#x124;" horiz-adv-x="1611" d="M158 0v1434h323v-598h649v598h324v-1434h-324v565h-649v-565h-323zM467 1583l223 303h262l224 -303h-232l-123 174l-123 -174h-231z" />
<glyph unicode="&#x125;" horiz-adv-x="1382" d="M-41 1669l223 303h262l224 -303h-232l-123 174l-123 -174h-231zM162 0v1520h315v-613q116 204 381 207q186 0 296 -114.5t110 -307.5v-692h-316v600q0 104 -58 164.5t-159 60.5q-117 -1 -185.5 -79.5t-68.5 -202.5v-543h-315z" />
<glyph unicode="&#x126;" horiz-adv-x="1765" d="M57 1051v196h176v187h324v-187h649v187h324v-187h178v-196h-178v-1051h-324v565h-649v-565h-324v1051h-176zM557 836h649v215h-649v-215z" />
<glyph unicode="&#x127;" horiz-adv-x="1568" d="M-4 1188v178h166v154h315v-154h258v-178h-258v-281q116 204 381 207q186 0 296 -114.5t110 -307.5v-692h-316v600q0 104 -58 164.5t-159 60.5q-117 -1 -185.5 -79.5t-68.5 -202.5v-543h-315v1188h-166z" />
<glyph unicode="&#x128;" horiz-adv-x="641" d="M-33 1608q0 309 205 309q40 0 79 -16t63 -35t51 -35t47 -16q67 0 67 90h195q0 -306 -205 -306q-54 0 -100.5 25.5t-80.5 50.5t-59 25q-67 0 -67 -92h-195zM158 0v1434h323v-1434h-323z" />
<glyph unicode="&#x129;" horiz-adv-x="618" d="M-43 1274q0 309 205 309q51 0 97.5 -25.5t82 -51t59.5 -25.5q68 0 68 90h195q0 -305 -205 -305q-42 0 -81 15.5t-62.5 34.5t-50 34.5t-46.5 15.5q-67 0 -67 -92h-195zM152 0v1102h315v-1102h-315z" />
<glyph unicode="&#x12a;" horiz-adv-x="641" d="M43 1632v221h555v-221h-555zM158 0v1434h323v-1434h-323z" />
<glyph unicode="&#x12b;" horiz-adv-x="618" d="M33 1298v222h555v-222h-555zM152 0v1102h315v-1102h-315z" />
<glyph unicode="&#x12c;" horiz-adv-x="641" d="M0 1882h201q3 -55 35.5 -89t82.5 -34t83 34t36 89h201q-6 -142 -94 -228.5t-226 -86.5t-225.5 86.5t-93.5 228.5zM158 0v1434h323v-1434h-323z" />
<glyph unicode="&#x12d;" horiz-adv-x="618" d="M-10 1548h200q3 -55 36 -89t83 -34t83 34t36 89h201q-6 -142 -94 -228.5t-226 -86.5t-225.5 86.5t-93.5 228.5zM152 0v1102h315v-1102h-315z" />
<glyph unicode="&#x12e;" horiz-adv-x="641" d="M158 0v1434h323v-1434h-67q-92 -130 -92 -197q0 -24 13 -37.5t34 -13.5q46 0 94 64l84 -99q-38 -64 -93.5 -97.5t-119.5 -33.5q-71 0 -122.5 40.5t-51.5 125.5q0 104 100 248h-102z" />
<glyph unicode="&#x12f;" horiz-adv-x="579" d="M121 1415q0 78 48 127t122 49q75 0 123.5 -49t48.5 -127q0 -77 -48.5 -126.5t-123.5 -49.5q-74 0 -122 50t-48 126zM123 -248q0 104 100 248h-88v1102h314v-1102h-72q-92 -130 -92 -197q0 -24 13.5 -37.5t35.5 -13.5q48 0 92 64l84 -99q-38 -64 -93.5 -97.5t-119.5 -33.5 q-71 0 -122.5 40.5t-51.5 125.5z" />
<glyph unicode="&#x130;" horiz-adv-x="641" d="M150 1749q0 77 47 126.5t122 49.5t122.5 -49.5t47.5 -126.5t-47.5 -126.5t-122.5 -49.5t-122 49.5t-47 126.5zM158 0v1434h323v-1434h-323z" />
<glyph unicode="&#x131;" horiz-adv-x="618" d="M152 0v1102h315v-1102h-315z" />
<glyph unicode="&#x132;" horiz-adv-x="1712" d="M158 0v1434h323v-1434h-323zM633 209l149 229q73 -77 153.5 -118t149.5 -41q81 0 126.5 48.5t45.5 139.5v692h-493v275h819v-975q0 -224 -128.5 -348.5t-352.5 -124.5q-278 0 -469 223z" />
<glyph unicode="&#x133;" horiz-adv-x="1249" d="M139 1415q0 77 47.5 126.5t122.5 49.5t122.5 -49.5t47.5 -126.5t-47.5 -126.5t-122.5 -49.5t-122.5 49.5t-47.5 126.5zM152 0v1102h315v-1102h-315zM442 -338l86 232q67 -44 129 -44q53 0 85 32.5t32 97.5v1122h313v-1135q0 -91 -31 -164t-84 -119.5t-122 -71t-148 -24.5 q-147 0 -260 74zM748 1415q0 77 51.5 126.5t130.5 49.5q81 0 131.5 -49t50.5 -127q0 -77 -50.5 -126.5t-131.5 -49.5q-78 0 -130 50t-52 126z" />
<glyph unicode="&#x134;" horiz-adv-x="1073" d="M-8 209l149 229q73 -77 153.5 -118t149.5 -41q81 0 126.5 48.5t45.5 139.5v692h-493v275h819v-975q0 -224 -128.5 -348.5t-352.5 -124.5q-278 0 -469 223zM172 1583l223 303h262l224 -303h-232l-123 174l-123 -174h-231z" />
<glyph unicode="&#x135;" horiz-adv-x="608" d="M-184 -338l73 225q63 -38 138 -41q63 -1 96 39.5t33 118.5v1098h313v-1145q0 -173 -99.5 -271t-273.5 -96q-161 3 -280 72zM-53 1249l223 303h262l223 -303h-231l-123 174l-123 -174h-231z" />
<glyph unicode="&#x136;" horiz-adv-x="1509" d="M158 0v1434h323v-652l596 652h375l-539 -598l576 -836h-389l-412 584l-207 -230v-354h-323zM569 -582l86 207q-63 45 -63 127q0 69 45 114.5t113 45.5q64 0 108.5 -43t44.5 -115q0 -67 -43 -129l-137 -207h-154z" />
<glyph unicode="&#x137;" horiz-adv-x="1267" d="M49 -412l60 138q42 -39 98 -39q44 0 71 24t25 62q0 36 -26 58t-68 22q-35 0 -70 -7l76 154h-53v1520h315v-836l404 416h358l-403 -424l421 -676h-372l-267 449l-141 -150v-299h-84l-51 -100q61 -13 100 -58t39 -102q2 -95 -66 -153t-182 -58q-44 0 -94.5 16t-89.5 43z " />
<glyph unicode="&#x138;" horiz-adv-x="1255" d="M152 0v1102h315v-414l401 414h359l-406 -424l424 -678h-373l-266 451l-139 -148v-303h-315z" />
<glyph unicode="&#x139;" horiz-adv-x="1130" d="M154 1567l217 334l293 -111l-261 -223h-249zM158 0v1434h323v-1151h615v-283h-938z" />
<glyph unicode="&#x13a;" horiz-adv-x="641" d="M158 1653l217 334l293 -111l-260 -223h-250zM162 0v1520h315v-1520h-315z" />
<glyph unicode="&#x13b;" horiz-adv-x="1130" d="M158 0v1434h323v-1151h615v-283h-938zM428 -582l86 207q-63 45 -63 127q0 69 44.5 114.5t112.5 45.5q64 0 109 -43t45 -115q0 -67 -43 -129l-137 -207h-154z" />
<glyph unicode="&#x13c;" horiz-adv-x="641" d="M154 -582l86 207q-64 46 -64 127q0 69 45 114.5t113 45.5q64 0 108.5 -43t44.5 -115q0 -67 -43 -129l-137 -207h-153zM162 0v1520h315v-1520h-315z" />
<glyph unicode="&#x13d;" horiz-adv-x="1130" d="M158 0v1434h323v-1151h615v-283h-938zM735 877l86 206q-63 45 -63 127q0 70 44.5 115t112.5 45q64 0 109 -43t45 -117q0 -68 -43 -127l-137 -206h-154z" />
<glyph unicode="&#x13e;" horiz-adv-x="776" d="M162 0v1520h315v-1520h-315zM535 897l86 207q-64 46 -64 127q0 70 45 115t113 45q64 0 108.5 -43t44.5 -117q0 -68 -43 -127l-137 -207h-153z" />
<glyph unicode="&#x13f;" horiz-adv-x="1130" d="M158 0v1434h323v-1151h615v-283h-938zM680 975q0 69 43.5 113.5t110.5 44.5q66 0 108.5 -44.5t42.5 -113.5t-42.5 -113.5t-108.5 -44.5q-67 0 -110.5 44.5t-43.5 113.5z" />
<glyph unicode="&#x140;" horiz-adv-x="768" d="M162 0v1520h315v-1520h-315zM532 637q0 71 43.5 116.5t112.5 45.5q68 0 112 -46t44 -116q0 -69 -44.5 -114.5t-111.5 -45.5q-69 0 -112.5 45.5t-43.5 114.5z" />
<glyph unicode="&#x141;" horiz-adv-x="1167" d="M-14 854l211 61v519h323v-424l305 90l54 -201l-359 -104v-512h613v-283h-936v700l-156 -45z" />
<glyph unicode="&#x142;" horiz-adv-x="743" d="M-31 879l264 77v564h316v-469l176 51l53 -203l-229 -68v-831h-316v741l-208 -61z" />
<glyph unicode="&#x143;" horiz-adv-x="1613" d="M158 0v1434h295l696 -922v922h307v-1434h-295l-694 920v-920h-309zM643 1567l217 334l293 -111l-260 -223h-250z" />
<glyph unicode="&#x144;" horiz-adv-x="1372" d="M152 0v1102h315v-193q115 202 381 205q185 0 294 -114.5t109 -307.5v-692h-315v600q0 104 -58 164.5t-159 60.5q-116 -1 -184 -79.5t-68 -202.5v-543h-315zM555 1233l217 334l293 -111l-260 -223h-250z" />
<glyph unicode="&#x145;" horiz-adv-x="1613" d="M158 0v1434h295l696 -922v922h307v-1434h-295l-694 920v-920h-309zM641 -582l86 207q-63 45 -63 127q0 69 44.5 114.5t112.5 45.5q64 0 109 -43t45 -115q0 -67 -43 -129l-137 -207h-154z" />
<glyph unicode="&#x146;" horiz-adv-x="1372" d="M152 0v1102h315v-193q115 202 381 205q185 0 294 -114.5t109 -307.5v-692h-315v600q0 104 -58 164.5t-159 60.5q-116 -1 -184 -79.5t-68 -202.5v-543h-315zM528 -582l86 207q-63 45 -63 127q0 69 45 114.5t113 45.5q64 0 108.5 -43t44.5 -115q0 -67 -43 -129l-137 -207 h-154z" />
<glyph unicode="&#x147;" horiz-adv-x="1613" d="M158 0v1434h295l696 -922v922h307v-1434h-295l-694 920v-920h-309zM418 1886h254l127 -188l127 188h254l-240 -327h-283z" />
<glyph unicode="&#x148;" horiz-adv-x="1372" d="M152 0v1102h315v-193q115 202 381 205q185 0 294 -114.5t109 -307.5v-692h-315v600q0 104 -58 164.5t-159 60.5q-116 -1 -184 -79.5t-68 -202.5v-543h-315zM330 1552h254l127 -188l127 188h254l-240 -327h-283z" />
<glyph unicode="&#x14a;" horiz-adv-x="1613" d="M158 0v1434h295l696 -922v922h307v-1434h-2q-4 -201 -133.5 -317.5t-345.5 -116.5q-225 0 -381 131l127 250q131 -88 252 -88q75 0 121 41t53 118l-680 902v-920h-309z" />
<glyph unicode="&#x14b;" horiz-adv-x="1372" d="M152 0v1102h315v-193q115 202 381 205q185 0 294 -114.5t109 -307.5v-729q0 -177 -111 -276t-276 -99q-147 0 -260 74l86 232q70 -44 131 -44q52 0 83.5 32.5t31.5 97.5v620q0 104 -58 164.5t-159 60.5q-116 -1 -184 -79.5t-68 -202.5v-543h-315z" />
<glyph unicode="&#x14c;" horiz-adv-x="1650" d="M55 717q0 206 100.5 372.5t277 260.5t392.5 94t392.5 -94.5t277 -261t100.5 -371.5q0 -204 -100.5 -371.5t-277 -263.5t-392.5 -96t-392.5 95.5t-277 263t-100.5 372.5zM387 717q0 -93 35.5 -176.5t95 -143t141 -94.5t170.5 -35q181 0 308 130.5t127 318.5t-127 316 t-308 128q-183 0 -312.5 -128.5t-129.5 -315.5zM535 1632v221h555v-221h-555z" />
<glyph unicode="&#x14d;" horiz-adv-x="1296" d="M57 551q0 253 163 407t429 154q265 0 427.5 -154t162.5 -407q0 -252 -163 -407.5t-427 -155.5q-265 0 -428.5 155.5t-163.5 407.5zM373 1298v222h555v-222h-555zM375 547q0 -135 75.5 -219t198.5 -84q122 0 198.5 84t76.5 219t-76.5 219t-198.5 84q-123 0 -198.5 -84 t-75.5 -219z" />
<glyph unicode="&#x14e;" horiz-adv-x="1650" d="M55 717q0 206 100.5 372.5t277 260.5t392.5 94t392.5 -94.5t277 -261t100.5 -371.5q0 -204 -100.5 -371.5t-277 -263.5t-392.5 -96t-392.5 95.5t-277 263t-100.5 372.5zM387 717q0 -93 35.5 -176.5t95 -143t141 -94.5t170.5 -35q181 0 308 130.5t127 318.5t-127 316 t-308 128q-183 0 -312.5 -128.5t-129.5 -315.5zM492 1882h200q3 -55 36 -89t83 -34t83 34t36 89h200q-6 -142 -93.5 -228.5t-225.5 -86.5t-225.5 86.5t-93.5 228.5z" />
<glyph unicode="&#x14f;" horiz-adv-x="1296" d="M57 551q0 253 163 407t429 154q265 0 427.5 -154t162.5 -407q0 -252 -163 -407.5t-427 -155.5q-265 0 -428.5 155.5t-163.5 407.5zM330 1548h200q3 -55 36 -89t83 -34t83 34t36 89h201q-6 -142 -94 -228.5t-226 -86.5t-225.5 86.5t-93.5 228.5zM375 547q0 -135 75.5 -219 t198.5 -84q122 0 198.5 84t76.5 219t-76.5 219t-198.5 84q-123 0 -198.5 -84t-75.5 -219z" />
<glyph unicode="&#x150;" horiz-adv-x="1650" d="M55 717q0 206 100.5 372.5t277 260.5t392.5 94t392.5 -94.5t277 -261t100.5 -371.5q0 -204 -100.5 -371.5t-277 -263.5t-392.5 -96t-392.5 95.5t-277 263t-100.5 372.5zM387 717q0 -93 35.5 -176.5t95 -143t141 -94.5t170.5 -35q181 0 308 130.5t127 318.5t-127 316 t-308 128q-183 0 -312.5 -128.5t-129.5 -315.5zM473 1563l174 342l246 -97l-186 -245h-234zM852 1563l172 342l248 -97l-187 -245h-233z" />
<glyph unicode="&#x151;" horiz-adv-x="1296" d="M57 551q0 253 163 407t429 154q265 0 427.5 -154t162.5 -407q0 -252 -163 -407.5t-427 -155.5q-265 0 -428.5 155.5t-163.5 407.5zM309 1229l174 342l246 -96l-186 -246h-234zM375 547q0 -135 75.5 -219t198.5 -84q122 0 198.5 84t76.5 219t-76.5 219t-198.5 84 q-123 0 -198.5 -84t-75.5 -219zM688 1229l172 342l248 -96l-186 -246h-234z" />
<glyph unicode="&#x152;" horiz-adv-x="2269" d="M55 717q0 200 100 364.5t276 258.5t392 94h1327v-269h-768v-311h691v-268h-691v-316h791v-270h-1350q-214 0 -390 93t-277 257.5t-101 366.5zM387 715q0 -189 126 -315t312 -126l234 2v879h-234q-187 0 -312.5 -125.5t-125.5 -314.5z" />
<glyph unicode="&#x153;" horiz-adv-x="2101" d="M57 551q0 253 163 407t429 154q140 0 248.5 -53t177.5 -150q66 97 169.5 150t236.5 53q269 0 422 -173t141 -460h-821q22 -116 100 -181t193 -65q162 0 282 117l166 -168q-178 -194 -475 -194q-140 0 -246 52.5t-170 149.5q-69 -97 -177 -149.5t-247 -52.5 q-265 0 -428.5 155.5t-163.5 407.5zM375 547q0 -135 75.5 -219t198.5 -84q122 0 198.5 84t76.5 219t-76.5 219t-198.5 84q-123 0 -198.5 -84t-75.5 -219zM1221 639h510q-2 109 -70.5 179.5t-175.5 70.5q-104 0 -174.5 -69t-89.5 -181z" />
<glyph unicode="&#x154;" horiz-adv-x="1482" d="M158 0v1434h622q281 0 434.5 -130t153.5 -368q0 -165 -68.5 -283t-199.5 -180l305 -473h-367l-227 410h-31h-299v-410h-323zM481 680h299q135 0 208 62t73 184q0 118 -73 178.5t-208 60.5h-299v-485zM575 1567l218 334l292 -111l-260 -223h-250z" />
<glyph unicode="&#x155;" horiz-adv-x="851" d="M152 0v1102h315v-199q117 208 364 211v-297q-166 15 -265 -65t-99 -222v-530h-315zM283 1233l217 334l293 -111l-261 -223h-249z" />
<glyph unicode="&#x156;" horiz-adv-x="1482" d="M158 0v1434h622q281 0 434.5 -130t153.5 -368q0 -165 -68.5 -283t-199.5 -180l305 -473h-367l-227 410h-31h-299v-410h-323zM481 680h299q135 0 208 62t73 184q0 118 -73 178.5t-208 60.5h-299v-485zM569 -582l86 207q-63 45 -63 127q0 69 45 114.5t113 45.5 q64 0 108.5 -43t44.5 -115q0 -67 -43 -129l-137 -207h-154z" />
<glyph unicode="&#x157;" horiz-adv-x="851" d="M135 -582l86 207q-63 45 -63 127q0 69 44.5 114.5t112.5 45.5q64 0 109 -43t45 -115q0 -67 -43 -129l-137 -207h-154zM152 0v1102h315v-199q117 208 364 211v-297q-166 15 -265 -65t-99 -222v-530h-315z" />
<glyph unicode="&#x158;" horiz-adv-x="1482" d="M158 0v1434h622q281 0 434.5 -130t153.5 -368q0 -165 -68.5 -283t-199.5 -180l305 -473h-367l-227 410h-31h-299v-410h-323zM350 1886h254l127 -188l127 188h254l-240 -327h-282zM481 680h299q135 0 208 62t73 184q0 118 -73 178.5t-208 60.5h-299v-485z" />
<glyph unicode="&#x159;" horiz-adv-x="851" d="M57 1552h254l127 -188l127 188h254l-239 -327h-283zM152 0v1102h315v-199q117 208 364 211v-297q-166 15 -265 -65t-99 -222v-530h-315z" />
<glyph unicode="&#x15a;" horiz-adv-x="1304" d="M41 217l129 264q109 -97 250.5 -156t257.5 -59q100 0 156.5 35.5t56.5 101.5q0 43 -26 75.5t-70.5 53.5t-101.5 38.5t-120.5 35.5t-127 38.5t-120.5 53t-101.5 74.5t-70.5 106.5t-26 145.5q0 194 152 309t403 115q148 0 292 -42t253 -114l-125 -268q-113 67 -236.5 107 t-210.5 40q-84 0 -133 -29.5t-49 -86.5q0 -42 26 -74t70.5 -53t101.5 -39.5t120.5 -37t126.5 -40t120.5 -55t101.5 -76.5t69.5 -109t25.5 -149q0 -137 -75 -236t-200 -147.5t-286 -48.5q-174 0 -341.5 61t-291.5 166zM518 1567l217 334l293 -111l-260 -223h-250z" />
<glyph unicode="&#x15b;" horiz-adv-x="1021" d="M37 141l102 213q85 -65 187.5 -101t195.5 -36q63 0 101.5 21.5t38.5 64.5q0 31 -24.5 55t-65 38t-91.5 30.5t-105 31.5t-105 42t-91.5 60t-65 88t-24.5 124q0 110 59 189t156 117t219 38q236 0 430 -123l-108 -215q-190 107 -336 107q-58 0 -92.5 -20.5t-34.5 -61.5 q0 -29 25 -52t66 -37t93 -30.5t106.5 -32t106.5 -43t93 -62t65.5 -89.5t24.5 -125q0 -109 -60.5 -188t-161 -117.5t-227.5 -38.5q-135 0 -259.5 39.5t-217.5 113.5zM365 1233l217 334l292 -111l-260 -223h-249z" />
<glyph unicode="&#x15c;" horiz-adv-x="1304" d="M41 217l129 264q109 -97 250.5 -156t257.5 -59q100 0 156.5 35.5t56.5 101.5q0 43 -26 75.5t-70.5 53.5t-101.5 38.5t-120.5 35.5t-127 38.5t-120.5 53t-101.5 74.5t-70.5 106.5t-26 145.5q0 194 152 309t403 115q148 0 292 -42t253 -114l-125 -268q-113 67 -236.5 107 t-210.5 40q-84 0 -133 -29.5t-49 -86.5q0 -42 26 -74t70.5 -53t101.5 -39.5t120.5 -37t126.5 -40t120.5 -55t101.5 -76.5t69.5 -109t25.5 -149q0 -137 -75 -236t-200 -147.5t-286 -48.5q-174 0 -341.5 61t-291.5 166zM328 1583l223 303h262l223 -303h-231l-123 174 l-123 -174h-231z" />
<glyph unicode="&#x15d;" horiz-adv-x="1021" d="M37 141l102 213q85 -65 187.5 -101t195.5 -36q63 0 101.5 21.5t38.5 64.5q0 31 -24.5 55t-65 38t-91.5 30.5t-105 31.5t-105 42t-91.5 60t-65 88t-24.5 124q0 110 59 189t156 117t219 38q236 0 430 -123l-108 -215q-190 107 -336 107q-58 0 -92.5 -20.5t-34.5 -61.5 q0 -29 25 -52t66 -37t93 -30.5t106.5 -32t106.5 -43t93 -62t65.5 -89.5t24.5 -125q0 -109 -60.5 -188t-161 -117.5t-227.5 -38.5q-135 0 -259.5 39.5t-217.5 113.5zM174 1249l223 303h262l224 -303h-232l-123 174l-122 -174h-232z" />
<glyph unicode="&#x15e;" horiz-adv-x="1304" d="M41 217l129 264q109 -97 250.5 -156t257.5 -59q100 0 156.5 35.5t56.5 101.5q0 43 -26 75.5t-70.5 53.5t-101.5 38.5t-120.5 35.5t-127 38.5t-120.5 53t-101.5 74.5t-70.5 106.5t-26 145.5q0 194 152 309t403 115q148 0 292 -42t253 -114l-125 -268q-113 67 -236.5 107 t-210.5 40q-84 0 -133 -29.5t-49 -86.5q0 -42 26 -74t70.5 -53t101.5 -39.5t120.5 -37t126.5 -40t120.5 -55t101.5 -76.5t69.5 -109t25.5 -149q0 -178 -121 -288t-321 -136l-50 -100q65 -18 102.5 -61t37.5 -105q0 -94 -67.5 -150.5t-174.5 -56.5q-103 0 -190 61l59 138 q48 -41 106 -41q40 0 64.5 22.5t24.5 54.5t-25.5 53t-69.5 21q-23 0 -73 -8l77 166q-160 10 -310.5 70t-262.5 155z" />
<glyph unicode="&#x15f;" horiz-adv-x="1021" d="M37 141l102 213q85 -65 187.5 -101t195.5 -36q63 0 101.5 21.5t38.5 64.5q0 31 -24.5 55t-65 38t-91.5 30.5t-105 31.5t-105 42t-91.5 60t-65 88t-24.5 124q0 110 59 189t156 117t219 38q236 0 430 -123l-108 -215q-190 107 -336 107q-58 0 -92.5 -20.5t-34.5 -61.5 q0 -29 25 -52t66 -37t93 -30.5t106.5 -32t106.5 -43t93 -62t65.5 -89.5t24.5 -125q0 -136 -89.5 -222t-240.5 -112l-49 -100q64 -18 101.5 -61t37.5 -105q0 -94 -67.5 -150.5t-174.5 -56.5q-103 0 -190 61l59 138q48 -41 107 -41q40 0 64 22.5t24 54.5t-25 53t-69 21 q-24 0 -74 -8l76 164q-245 16 -416 151z" />
<glyph unicode="&#x160;" horiz-adv-x="1304" d="M41 217l129 264q109 -97 250.5 -156t257.5 -59q100 0 156.5 35.5t56.5 101.5q0 43 -26 75.5t-70.5 53.5t-101.5 38.5t-120.5 35.5t-127 38.5t-120.5 53t-101.5 74.5t-70.5 106.5t-26 145.5q0 194 152 309t403 115q148 0 292 -42t253 -114l-125 -268q-113 67 -236.5 107 t-210.5 40q-84 0 -133 -29.5t-49 -86.5q0 -42 26 -74t70.5 -53t101.5 -39.5t120.5 -37t126.5 -40t120.5 -55t101.5 -76.5t69.5 -109t25.5 -149q0 -137 -75 -236t-200 -147.5t-286 -48.5q-174 0 -341.5 61t-291.5 166zM293 1886h254l127 -188l127 188h254l-240 -327h-283z " />
<glyph unicode="&#x161;" horiz-adv-x="1021" d="M37 141l102 213q85 -65 187.5 -101t195.5 -36q63 0 101.5 21.5t38.5 64.5q0 31 -24.5 55t-65 38t-91.5 30.5t-105 31.5t-105 42t-91.5 60t-65 88t-24.5 124q0 110 59 189t156 117t219 38q236 0 430 -123l-108 -215q-190 107 -336 107q-58 0 -92.5 -20.5t-34.5 -61.5 q0 -29 25 -52t66 -37t93 -30.5t106.5 -32t106.5 -43t93 -62t65.5 -89.5t24.5 -125q0 -109 -60.5 -188t-161 -117.5t-227.5 -38.5q-135 0 -259.5 39.5t-217.5 113.5zM139 1552h254l127 -188l127 188h254l-239 -327h-283z" />
<glyph unicode="&#x162;" horiz-adv-x="1230" d="M16 1159v275h1198v-275h-438v-1159h-59l-51 -102q64 -18 101.5 -61t37.5 -105q0 -94 -67.5 -150.5t-174.5 -56.5q-103 0 -190 61l59 138q48 -41 107 -41q40 0 64 22.5t24 54.5t-25.5 53t-69.5 21q-23 0 -73 -8l80 174h-86v1159h-437z" />
<glyph unicode="&#x163;" horiz-adv-x="872" d="M47 836v217h154v303h313v-303h299v-219h-299v-455q0 -67 27.5 -98t79.5 -29q60 0 147 41l66 -232q-79 -48 -189 -67l-49 -96q64 -18 101.5 -61t37.5 -105q0 -94 -67 -150.5t-174 -56.5q-104 0 -191 61l59 138q48 -41 107 -41q40 0 64 22.5t24 54.5t-25 53t-69 21 q-24 0 -74 -8l78 166q-122 23 -194 108t-72 226v510h-154z" />
<glyph unicode="&#x164;" horiz-adv-x="1230" d="M16 1159v275h1198v-275h-438v-1159h-323v1159h-437zM248 1886h254l127 -188l127 188h254l-240 -327h-283z" />
<glyph unicode="&#x165;" horiz-adv-x="845" d="M47 836v217h154v303h313v-303h299v-219h-299v-455q0 -67 27.5 -98t79.5 -29q60 0 147 41l66 -232q-131 -75 -287 -75q-154 0 -250 88t-96 252v510h-154zM608 1190l86 207q-63 45 -63 127q0 70 44.5 114.5t112.5 44.5q65 0 109.5 -42.5t44.5 -116.5q0 -68 -43 -127 l-137 -207h-154z" />
<glyph unicode="&#x166;" horiz-adv-x="1230" d="M16 1159v275h1198v-275h-438v-1159h-323v1159h-437zM360 1632v221h555v-221h-555z" />
<glyph unicode="&#x167;" horiz-adv-x="872" d="M47 498v196h154v162h-154v197h154v303h313v-303h299v-197h-299v-162h299v-196h-299v-119q0 -67 27.5 -98t79.5 -29q60 0 147 41l66 -232q-131 -75 -287 -75q-154 0 -250 88t-96 252v172h-154z" />
<glyph unicode="&#x168;" horiz-adv-x="1556" d="M131 600v834h324v-834q0 -153 90 -242.5t237 -89.5q146 0 233 89t87 243v834h323v-834q0 -284 -173 -449t-470 -165q-299 0 -475 165.5t-176 448.5zM426 1608q0 309 205 309q51 0 97.5 -25.5t82 -51t59.5 -25.5q68 0 68 90h195q0 -306 -205 -306q-54 0 -100.5 25.5 t-80.5 50.5t-59 25q-67 0 -67 -92h-195z" />
<glyph unicode="&#x169;" horiz-adv-x="1351" d="M119 410v692h315v-602q0 -104 55.5 -164t151.5 -60q112 1 178 80t66 201v545h313v-1102h-313v195q-113 -207 -369 -207q-183 0 -290 113.5t-107 308.5zM313 1274q0 309 205 309q40 0 79 -16t63 -35t51 -35t47 -16q67 0 67 90h195q0 -305 -205 -305q-42 0 -81 15.5 t-62.5 34.5t-50 34.5t-46.5 15.5q-67 0 -67 -92h-195z" />
<glyph unicode="&#x16a;" horiz-adv-x="1556" d="M131 600v834h324v-834q0 -153 90 -242.5t237 -89.5q146 0 233 89t87 243v834h323v-834q0 -284 -173 -449t-470 -165q-299 0 -475 165.5t-176 448.5zM502 1632v221h555v-221h-555z" />
<glyph unicode="&#x16b;" horiz-adv-x="1351" d="M119 410v692h315v-602q0 -104 55.5 -164t151.5 -60q112 1 178 80t66 201v545h313v-1102h-313v195q-113 -207 -369 -207q-183 0 -290 113.5t-107 308.5zM389 1298v222h555v-222h-555z" />
<glyph unicode="&#x16c;" horiz-adv-x="1556" d="M131 600v834h324v-834q0 -153 90 -242.5t237 -89.5q146 0 233 89t87 243v834h323v-834q0 -284 -173 -449t-470 -165q-299 0 -475 165.5t-176 448.5zM459 1882h200q3 -55 36 -89t83 -34t83 34t36 89h201q-6 -142 -94 -228.5t-226 -86.5t-225.5 86.5t-93.5 228.5z" />
<glyph unicode="&#x16d;" horiz-adv-x="1351" d="M119 410v692h315v-602q0 -104 55.5 -164t151.5 -60q112 1 178 80t66 201v545h313v-1102h-313v195q-113 -207 -369 -207q-183 0 -290 113.5t-107 308.5zM346 1548h201q3 -55 36 -89t83 -34t82.5 34t35.5 89h201q-6 -142 -93.5 -228.5t-225.5 -86.5t-226 86.5t-94 228.5z " />
<glyph unicode="&#x16e;" horiz-adv-x="1556" d="M131 600v834h324v-834q0 -153 90 -242.5t237 -89.5q146 0 233 89t87 243v834h323v-834q0 -284 -173 -449t-470 -165q-299 0 -475 165.5t-176 448.5zM532 1751q0 100 72.5 172t173.5 72t173.5 -72t72.5 -172q0 -101 -72.5 -172.5t-173.5 -71.5t-173.5 71.5t-72.5 172.5z M662 1751q0 -47 33.5 -80t82.5 -33q50 0 84.5 33t34.5 80q0 46 -35 78.5t-84 32.5t-82.5 -32.5t-33.5 -78.5z" />
<glyph unicode="&#x16f;" horiz-adv-x="1351" d="M119 410v692h315v-602q0 -104 55.5 -164t151.5 -60q112 1 178 80t66 201v545h313v-1102h-313v195q-113 -207 -369 -207q-183 0 -290 113.5t-107 308.5zM420 1417q0 100 72.5 172t173.5 72t173 -72t72 -172q0 -101 -72 -172t-173 -71q-102 0 -174 71t-72 172zM549 1417 q0 -47 34 -79.5t83 -32.5q50 0 84 32.5t34 79.5q0 46 -34.5 78.5t-83.5 32.5t-83 -32.5t-34 -78.5z" />
<glyph unicode="&#x170;" horiz-adv-x="1556" d="M131 600v834h324v-834q0 -153 90 -242.5t237 -89.5q146 0 233 89t87 243v834h323v-834q0 -284 -173 -449t-470 -165q-299 0 -475 165.5t-176 448.5zM440 1563l174 342l246 -97l-186 -245h-234zM819 1563l172 342l248 -97l-186 -245h-234z" />
<glyph unicode="&#x171;" horiz-adv-x="1351" d="M119 410v692h315v-602q0 -104 55.5 -164t151.5 -60q112 1 178 80t66 201v545h313v-1102h-313v195q-113 -207 -369 -207q-183 0 -290 113.5t-107 308.5zM328 1229l174 342l246 -96l-187 -246h-233zM707 1229l172 342l247 -96l-186 -246h-233z" />
<glyph unicode="&#x172;" horiz-adv-x="1558" d="M133 600v834h322v-834q0 -152 90.5 -242t238.5 -90q146 0 232 89t86 243v834h323v-834q0 -220 -106.5 -371.5t-298.5 -210.5q-105 -148 -105 -215q0 -24 14 -37.5t36 -13.5q44 0 92 64l84 -99q-38 -64 -93.5 -97.5t-119.5 -33.5q-71 0 -122.5 40.5t-51.5 125.5 q0 102 90 236q-20 -2 -62 -2q-299 0 -474 165.5t-175 448.5z" />
<glyph unicode="&#x173;" horiz-adv-x="1343" d="M121 410v692h313v-602q0 -104 57.5 -164t155.5 -60q105 1 170.5 72t73.5 182v572h313v-1102h-74q-94 -122 -94 -197q0 -24 13.5 -37.5t35.5 -13.5q45 0 93 64l84 -99q-38 -64 -93.5 -97.5t-119.5 -33.5q-71 0 -123 40.5t-52 125.5q0 102 101 248h-84v188 q-113 -200 -373 -200q-183 0 -290 113.5t-107 308.5z" />
<glyph unicode="&#x174;" horiz-adv-x="2183" d="M0 1434h348l301 -1082l299 1082h318l303 -1082l299 1082h332l-476 -1434h-333l-289 1022l-295 -1022h-334zM705 1583l223 303h262l223 -303h-231l-123 174l-123 -174h-231z" />
<glyph unicode="&#x175;" horiz-adv-x="1890" d="M-6 1100l321 2l246 -789l238 789h309l242 -789l241 789h312l-402 -1102h-315l-238 727l-235 -727h-316zM592 1249l223 303h262l223 -303h-231l-123 174l-123 -174h-231z" />
<glyph unicode="&#x176;" horiz-adv-x="1363" d="M-6 1434h325l367 -643l358 643h326l-522 -971v-463h-324v455zM328 1583l223 303h262l223 -303h-231l-123 174l-123 -174h-231z" />
<glyph unicode="&#x177;" horiz-adv-x="1155" d="M-20 1102h325l289 -758l260 758h315l-483 -1225q-116 -289 -403 -289q-169 0 -299 107l133 227q71 -59 143 -59q100 0 146 98l30 62zM225 1249l224 303h262l223 -303h-232l-122 174l-123 -174h-232z" />
<glyph unicode="&#x178;" horiz-adv-x="1363" d="M-6 1434h325l367 -643l358 643h326l-522 -971v-463h-324v455zM342 1755q0 68 41.5 111t105.5 43q65 0 107.5 -43.5t42.5 -110.5q0 -66 -42.5 -108.5t-107.5 -42.5q-64 0 -105.5 42.5t-41.5 108.5zM727 1755q0 68 41.5 111t105.5 43q65 0 107.5 -43.5t42.5 -110.5 q0 -66 -42.5 -108.5t-107.5 -42.5q-64 0 -105.5 42.5t-41.5 108.5z" />
<glyph unicode="&#x179;" horiz-adv-x="1376" d="M63 0v219l803 944h-776v271h1210v-217l-800 -947h813l-2 -270h-1248zM551 1567l217 334l293 -111l-260 -223h-250z" />
<glyph unicode="&#x17a;" horiz-adv-x="1122" d="M78 0v199l567 653l-547 2v246h940v-199l-567 -653h586v-250zM397 1233l217 334l293 -111l-260 -223h-250z" />
<glyph unicode="&#x17b;" horiz-adv-x="1376" d="M63 0v219l803 944h-776v271h1210v-217l-800 -947h813l-2 -270h-1248zM545 1749q0 77 47.5 126.5t122.5 49.5t122.5 -49.5t47.5 -126.5t-47.5 -126.5t-122.5 -49.5t-122.5 49.5t-47.5 126.5z" />
<glyph unicode="&#x17c;" horiz-adv-x="1122" d="M78 0v199l567 653l-547 2v246h940v-199l-567 -653h586v-250zM391 1415q0 77 47.5 126.5t122.5 49.5t122.5 -49.5t47.5 -126.5t-47.5 -126.5t-122.5 -49.5t-122.5 49.5t-47.5 126.5z" />
<glyph unicode="&#x17d;" horiz-adv-x="1376" d="M63 0v219l803 944h-776v271h1210v-217l-800 -947h813l-2 -270h-1248zM326 1886h254l127 -188l127 188h253l-239 -327h-283z" />
<glyph unicode="&#x17e;" horiz-adv-x="1122" d="M78 0v199l567 653l-547 2v246h940v-199l-567 -653h586v-250zM172 1552h254l127 -188l127 188h254l-240 -327h-282z" />
<glyph unicode="&#x192;" horiz-adv-x="813" d="M-236 -334l82 228q52 -46 123 -50q60 -1 95.5 39t44.5 113l92 745h-146l25 211h145l29 230q20 164 135.5 261.5t288.5 96.5q78 -1 156.5 -22.5t132.5 -55.5l-109 -227q-54 45 -133 49q-66 1 -110.5 -39.5t-53.5 -109.5l-22 -183h262l-25 -211h-264l-96 -794 q-20 -166 -129.5 -263t-280.5 -96q-64 2 -131 23.5t-111 54.5z" />
<glyph unicode="&#x218;" horiz-adv-x="1304" d="M41 217l129 264q109 -97 250.5 -156t257.5 -59q100 0 156.5 35.5t56.5 101.5q0 43 -26 75.5t-70.5 53.5t-101.5 38.5t-120.5 35.5t-127 38.5t-120.5 53t-101.5 74.5t-70.5 106.5t-26 145.5q0 194 152 309t403 115q148 0 292 -42t253 -114l-125 -268q-113 67 -236.5 107 t-210.5 40q-84 0 -133 -29.5t-49 -86.5q0 -42 26 -74t70.5 -53t101.5 -39.5t120.5 -37t126.5 -40t120.5 -55t101.5 -76.5t69.5 -109t25.5 -149q0 -137 -75 -236t-200 -147.5t-286 -48.5q-174 0 -341.5 61t-291.5 166zM502 -582l86 207q-64 46 -64 127q0 69 45 114.5 t113 45.5q64 0 109 -43t45 -115q0 -67 -43 -129l-138 -207h-153z" />
<glyph unicode="&#x219;" horiz-adv-x="1021" d="M37 141l102 213q85 -65 187.5 -101t195.5 -36q63 0 101.5 21.5t38.5 64.5q0 31 -24.5 55t-65 38t-91.5 30.5t-105 31.5t-105 42t-91.5 60t-65 88t-24.5 124q0 110 59 189t156 117t219 38q236 0 430 -123l-108 -215q-190 107 -336 107q-58 0 -92.5 -20.5t-34.5 -61.5 q0 -29 25 -52t66 -37t93 -30.5t106.5 -32t106.5 -43t93 -62t65.5 -89.5t24.5 -125q0 -109 -60.5 -188t-161 -117.5t-227.5 -38.5q-135 0 -259.5 39.5t-217.5 113.5zM342 -582l86 207q-63 45 -63 127q0 69 44.5 114.5t112.5 45.5q64 0 109 -43t45 -115q0 -67 -43 -129 l-137 -207h-154z" />
<glyph unicode="&#x21a;" horiz-adv-x="1230" d="M16 1159v275h1198v-275h-438v-1159h-323v1159h-437zM422 -582l86 207q-64 46 -64 127q0 69 45 114.5t113 45.5q64 0 109 -43t45 -115q0 -67 -43 -129l-138 -207h-153z" />
<glyph unicode="&#x21b;" horiz-adv-x="872" d="M47 836v217h154v303h313v-303h299v-219h-299v-455q0 -67 27.5 -98t79.5 -29q60 0 147 41l66 -232q-131 -75 -287 -75q-154 0 -250 88t-96 252v510h-154zM354 -582l86 207q-63 45 -63 127q0 69 45 114.5t113 45.5q64 0 108.5 -43t44.5 -115q0 -67 -43 -129l-137 -207h-154 z" />
<glyph unicode="&#x237;" horiz-adv-x="608" d="M-184 -338l73 225q63 -38 138 -41q63 -1 96 39.5t33 118.5v1098h313v-1145q0 -173 -99.5 -271t-273.5 -96q-161 3 -280 72z" />
<glyph unicode="&#x2c6;" horiz-adv-x="716" d="M4 1253l223 303h262l224 -303h-232l-123 174l-122 -174h-232z" />
<glyph unicode="&#x2c7;" horiz-adv-x="716" d="M-23 1556h254l127 -188l127 188h254l-239 -327h-283z" />
<glyph unicode="&#x2c9;" horiz-adv-x="716" d="M82 1298v222h555v-222h-555z" />
<glyph unicode="&#x2d8;" horiz-adv-x="716" d="M39 1550h201q3 -55 35.5 -89t82.5 -34t83 34t36 89h201q-6 -142 -94 -228.5t-226 -86.5t-225.5 86.5t-93.5 228.5z" />
<glyph unicode="&#x2d9;" horiz-adv-x="716" d="M188 1415q0 77 47.5 126.5t122.5 49.5t122.5 -49.5t47.5 -126.5t-47.5 -126.5t-122.5 -49.5t-122.5 49.5t-47.5 126.5z" />
<glyph unicode="&#x2da;" horiz-adv-x="716" d="M113 1417q0 100 72 172t173 72t173.5 -72t72.5 -172q0 -101 -72 -172t-174 -71q-101 0 -173 71t-72 172zM242 1417q0 -47 33.5 -79.5t82.5 -32.5q50 0 84.5 32.5t34.5 79.5q0 46 -35 78.5t-84 32.5t-82.5 -32.5t-33.5 -78.5z" />
<glyph unicode="&#x2db;" horiz-adv-x="716" d="M168 -248q0 121 123 281h153q-114 -153 -114 -230q0 -24 13.5 -37.5t35.5 -13.5q48 0 92 64l84 -99q-38 -64 -93.5 -97.5t-119.5 -33.5q-71 0 -122.5 40.5t-51.5 125.5z" />
<glyph unicode="&#x2dc;" horiz-adv-x="716" d="M6 1274q0 309 205 309q40 0 79 -16t63 -35t51 -35t47 -16q67 0 67 90h195q0 -305 -205 -305q-42 0 -81 15.5t-62.5 34.5t-50 34.5t-46.5 15.5q-67 0 -67 -92h-195z" />
<glyph unicode="&#x2dd;" horiz-adv-x="716" d="M-41 1233l174 342l246 -96l-186 -246h-234zM338 1233l172 342l248 -96l-187 -246h-233z" />
<glyph unicode="&#x326;" horiz-adv-x="0" d="M61 -582l86 207q-63 45 -63 127q0 69 45 114.5t113 45.5q64 0 108.5 -43t44.5 -115q0 -67 -43 -129l-137 -207h-154z" />
<glyph unicode="&#x394;" horiz-adv-x="1556" d="M-6 0l622 1434h334l613 -1434h-1569zM428 246h690l-344 850z" />
<glyph unicode="&#x3a9;" horiz-adv-x="1771" d="M16 0v264h383q-109 88 -179 231.5t-70 280.5q0 192 94.5 346t263 241t377.5 87q210 0 379 -87t264.5 -241t95.5 -346q0 -136 -70.5 -279t-179.5 -233h381v-264h-702v246q123 78 202.5 220t79.5 282q0 186 -127.5 306t-322.5 120q-194 0 -321.5 -120.5t-127.5 -305.5 q0 -140 80.5 -282.5t204.5 -221.5v-244h-705z" />
<glyph unicode="&#x3c0;" horiz-adv-x="1490" d="M-29 784q-2 136 101.5 227t261.5 91h1132l2 -232h-272v-870h-260v870h-221l-97 -870h-260l95 870h-78q-69 0 -114 -40t-44 -101q0 -70 47 -143l-217 -80q-34 62 -55 137.5t-21 140.5z" />
<glyph unicode="&#x1e80;" horiz-adv-x="2183" d="M0 1434h348l301 -1082l299 1082h318l303 -1082l299 1082h332l-476 -1434h-333l-289 1022l-295 -1022h-334zM711 1792l293 109l219 -334h-252z" />
<glyph unicode="&#x1e81;" horiz-adv-x="1890" d="M-6 1100l321 2l246 -789l238 789h309l242 -789l241 789h312l-402 -1102h-315l-238 727l-235 -727h-316zM598 1458l293 109l219 -334h-252z" />
<glyph unicode="&#x1e82;" horiz-adv-x="2183" d="M0 1434h348l301 -1082l299 1082h318l303 -1082l299 1082h332l-476 -1434h-333l-289 1022l-295 -1022h-334zM895 1567l217 334l293 -111l-260 -223h-250z" />
<glyph unicode="&#x1e83;" horiz-adv-x="1890" d="M-6 1100l321 2l246 -789l238 789h309l242 -789l241 789h312l-402 -1102h-315l-238 727l-235 -727h-316zM782 1233l217 334l293 -111l-260 -223h-250z" />
<glyph unicode="&#x1e84;" horiz-adv-x="2183" d="M0 1434h348l301 -1082l299 1082h318l303 -1082l299 1082h332l-476 -1434h-333l-289 1022l-295 -1022h-334zM719 1755q0 68 41.5 111t105.5 43q65 0 107.5 -43.5t42.5 -110.5q0 -66 -42.5 -108.5t-107.5 -42.5q-64 0 -105.5 42.5t-41.5 108.5zM1104 1755q0 68 41.5 111 t105.5 43q65 0 107.5 -43.5t42.5 -110.5q0 -66 -42.5 -108.5t-107.5 -42.5q-64 0 -105.5 42.5t-41.5 108.5z" />
<glyph unicode="&#x1e85;" horiz-adv-x="1890" d="M-6 1100l321 2l246 -789l238 789h309l242 -789l241 789h312l-402 -1102h-315l-238 727l-235 -727h-316zM606 1421q0 67 41.5 110.5t106.5 43.5t107 -43.5t42 -110.5q0 -66 -42 -108.5t-107 -42.5t-106.5 42.5t-41.5 108.5zM991 1421q0 67 41.5 110.5t106.5 43.5 t107 -43.5t42 -110.5q0 -66 -42 -108.5t-107 -42.5t-106.5 42.5t-41.5 108.5z" />
<glyph unicode="&#x1ef2;" horiz-adv-x="1363" d="M-6 1434h325l367 -643l358 643h326l-522 -971v-463h-324v455zM334 1792l293 109l219 -334h-252z" />
<glyph unicode="&#x1ef3;" horiz-adv-x="1155" d="M-20 1102h325l289 -758l260 758h315l-483 -1225q-116 -289 -403 -289q-169 0 -299 107l133 227q71 -59 143 -59q100 0 146 98l30 62zM231 1458l293 109l219 -334h-251z" />
<glyph unicode="&#x2000;" horiz-adv-x="997" />
<glyph unicode="&#x2001;" horiz-adv-x="1995" />
<glyph unicode="&#x2002;" horiz-adv-x="997" />
<glyph unicode="&#x2003;" horiz-adv-x="1995" />
<glyph unicode="&#x2004;" horiz-adv-x="665" />
<glyph unicode="&#x2005;" horiz-adv-x="498" />
<glyph unicode="&#x2006;" horiz-adv-x="332" />
<glyph unicode="&#x2007;" horiz-adv-x="332" />
<glyph unicode="&#x2008;" horiz-adv-x="249" />
<glyph unicode="&#x2009;" horiz-adv-x="399" />
<glyph unicode="&#x200a;" horiz-adv-x="110" />
<glyph unicode="&#x2010;" horiz-adv-x="761" d="M117 522v209h528v-209h-528z" />
<glyph unicode="&#x2011;" horiz-adv-x="761" d="M117 522v209h528v-209h-528z" />
<glyph unicode="&#x2012;" horiz-adv-x="761" d="M117 522v209h528v-209h-528z" />
<glyph unicode="&#x2013;" horiz-adv-x="833" d="M0 449v208h834v-208h-834z" />
<glyph unicode="&#x2014;" horiz-adv-x="1355" d="M0 449v208h1356v-208h-1356z" />
<glyph unicode="&#x2018;" horiz-adv-x="475" d="M61 1106q0 67 43 129l138 207h153l-86 -209q62 -44 62 -125q0 -70 -44 -115t-112 -45q-64 0 -109 43t-45 115z" />
<glyph unicode="&#x2019;" horiz-adv-x="475" d="M61 942l86 207q-63 45 -63 127q0 69 45 114.5t113 45.5q64 0 108.5 -43t44.5 -117q0 -68 -43 -127l-137 -207h-154z" />
<glyph unicode="&#x201a;" horiz-adv-x="475" d="M61 -188l86 206q-63 45 -63 127q0 70 45 115t113 45q64 0 108.5 -43t44.5 -117q0 -68 -43 -127l-137 -206h-154z" />
<glyph unicode="&#x201c;" horiz-adv-x="741" d="M61 1108q0 68 43 127l138 207h153l-86 -207q64 -46 64 -127q0 -70 -45 -115t-113 -45q-64 0 -109 43t-45 117zM416 1108q0 68 43 127l137 207h154l-86 -207q63 -45 63 -127q0 -70 -45 -115t-113 -45q-64 0 -108.5 43t-44.5 117z" />
<glyph unicode="&#x201d;" horiz-adv-x="790" d="M61 942l86 207q-63 45 -63 127q0 70 45 115t113 45q64 0 108.5 -43t44.5 -117q0 -68 -43 -127l-137 -207h-154zM416 942l86 207q-64 46 -64 127q0 70 45 115t113 45q64 0 109 -43t45 -117q0 -68 -43 -127l-138 -207h-153z" />
<glyph unicode="&#x201e;" horiz-adv-x="829" d="M61 -188l86 206q-63 45 -63 127q0 70 45 115t113 45q64 0 108.5 -43t44.5 -117q0 -68 -43 -127l-137 -206h-154zM416 -188l86 206q-64 46 -64 127q0 70 45 115t113 45q64 0 109 -43t45 -117q0 -68 -43 -127l-138 -206h-153z" />
<glyph unicode="&#x2020;" horiz-adv-x="1148" d="M35 739v269h383v424h305v-424h393v-269h-393v-1124h-305v1124h-383z" />
<glyph unicode="&#x2021;" horiz-adv-x="1148" d="M35 70v268h383v401h-383v269h383v424h305v-424h393v-269h-393v-401h393v-268h-393v-455h-305v455h-383z" />
<glyph unicode="&#x2022;" horiz-adv-x="638" d="M82 561q0 106 66 174t169 68q104 0 171 -68t67 -174q0 -107 -67 -176.5t-171 -69.5q-103 0 -169 69.5t-66 176.5z" />
<glyph unicode="&#x2026;" horiz-adv-x="1343" d="M82 141q0 69 44 113.5t110 44.5t109.5 -44.5t43.5 -113.5t-43.5 -113t-109.5 -44t-110 44t-44 113zM518 141q0 69 44 113.5t110 44.5t109.5 -44.5t43.5 -113.5t-43.5 -113t-109.5 -44t-110 44t-44 113zM954 141q0 69 43.5 113.5t110.5 44.5q66 0 109 -44.5t43 -113.5 t-43 -113t-109 -44q-68 0 -111 44t-43 113z" />
<glyph unicode="&#x202f;" horiz-adv-x="399" />
<glyph unicode="&#x2030;" horiz-adv-x="2985" d="M70 1010q0 200 105 315t286 115q183 0 288 -115t105 -315q0 -201 -105 -318t-288 -117q-181 0 -286 117t-105 318zM272 1010q0 -121 50 -188.5t139 -67.5q91 0 140.5 67t49.5 189q0 119 -50 186.5t-140 67.5q-89 0 -139 -67.5t-50 -186.5zM358 0l1037 1434h295 l-1033 -1434h-299zM1208 426q0 200 105 316t286 116q183 0 288.5 -116t105.5 -316q0 -201 -105.5 -316.5t-288.5 -115.5q-182 0 -286.5 115.5t-104.5 316.5zM1411 426q0 -120 49.5 -188t138.5 -68q90 0 140.5 68t50.5 188t-50.5 188t-140.5 68q-89 0 -138.5 -68t-49.5 -188z M2132 426q0 200 105 316t286 116q183 0 288 -116t105 -316q0 -201 -105 -316.5t-288 -115.5q-182 0 -286.5 115.5t-104.5 316.5zM2335 426q0 -120 49.5 -188t138.5 -68q90 0 140.5 68t50.5 188t-50.5 188t-140.5 68q-89 0 -138.5 -68t-49.5 -188z" />
<glyph unicode="&#x2039;" horiz-adv-x="571" d="M18 543l244 370h258l-219 -370l219 -373h-258z" />
<glyph unicode="&#x203a;" horiz-adv-x="587" d="M98 170l219 373l-219 370h258l244 -370l-244 -373h-258z" />
<glyph unicode="&#x2044;" horiz-adv-x="215" d="M-565 0l1036 1434h295l-1032 -1434h-299z" />
<glyph unicode="&#x205f;" horiz-adv-x="498" />
<glyph unicode="&#x20ac;" horiz-adv-x="1605" d="M63 489v152h183q-4 50 -4 78q0 30 4 88h-183v151h218q76 219 272 352.5t453 133.5q156 0 307.5 -64t257.5 -174l-189 -229q-74 86 -174 136t-200 50q-117 0 -215 -55t-156 -150h473v-151h-530q-9 -41 -9 -84q0 -35 7 -82h532v-152h-475q58 -97 156 -152.5t217 -55.5 q96 0 195.5 45.5t178.5 122.5l189 -207q-114 -118 -268.5 -187t-311.5 -69q-255 0 -449.5 139t-265.5 364h-213z" />
<glyph unicode="&#x2113;" horiz-adv-x="964" d="M29 379l170 121l82 501q40 225 141.5 337t239.5 112q111 0 175 -71.5t64 -200.5q0 -86 -31.5 -174.5t-77.5 -160t-116 -149t-128 -130t-134 -115.5q-20 -123 8.5 -181.5t105.5 -58.5q71 0 131.5 44.5t124.5 121.5l99 -119q-172 -266 -424 -266q-270 0 -283 315l-98 -63z M453 690q114 106 192 237t78 247q0 47 -19 74.5t-51 27.5q-46 0 -83.5 -59t-59.5 -187z" />
<glyph unicode="&#x2122;" horiz-adv-x="1839" d="M-14 1243v191h700v-191h-237v-670h-230v670h-233zM782 573v861h256l228 -490l227 490h256v-861h-207v529l-199 -443h-155l-197 443v-529h-209z" />
<glyph unicode="&#x212e;" horiz-adv-x="1656" d="M143 653q0 168 92 310.5t250 225.5t344 83t344.5 -83t250.5 -225.5t92 -310.5v-14h-1113q-10 0 -10 -8v-336q0 -18 17 -39q79 -86 188.5 -134t232.5 -48q130 0 246 54t195 148h100q-94 -109 -238 -174t-305 -65q-186 0 -344 82.5t-250 224.5t-92 309zM393 682 q0 -10 10 -10h852q11 0 11 10v338q0 22 -19 41q-81 81 -189 127.5t-227 46.5q-122 0 -230 -47.5t-189 -132.5q-19 -19 -19 -41v-332z" />
<glyph unicode="&#x215b;" horiz-adv-x="1792" d="M25 1255v179h387v-852h-222v673h-165zM125 0l1036 1434h295l-1032 -1434h-299zM1006 238q0 72 46 130.5t124 86.5q-58 31 -91.5 80t-33.5 104q0 101 86 161t231 60q147 0 233.5 -62t86.5 -167q0 -53 -30.5 -99.5t-82.5 -76.5q72 -28 115 -85.5t43 -127.5 q0 -117 -98.5 -184.5t-264.5 -67.5q-167 0 -265.5 67t-98.5 181zM1219 260q0 -106 151 -106q73 0 112.5 27t39.5 79q0 51 -39.5 79t-114.5 28q-72 0 -110.5 -28t-38.5 -79zM1239 618q0 -44 34 -68t97 -24q62 0 95.5 24t33.5 68q0 46 -34 71.5t-95 25.5q-63 0 -97 -25.5 t-34 -71.5z" />
<glyph unicode="&#x215c;" horiz-adv-x="1914" d="M14 676l90 170q101 -107 222 -107q67 0 103 29t36 80q0 102 -139 102h-142v119l205 199h-332v164h586v-127l-223 -215l43 -9q100 -14 160.5 -74.5t60.5 -156.5q0 -124 -93 -201.5t-247 -77.5q-91 0 -180 28.5t-150 76.5zM248 0l1036 1434h295l-1032 -1434h-299zM1128 238 q0 72 46 130.5t124 86.5q-57 31 -90.5 80t-33.5 104q0 101 86 161t231 60q147 0 233 -61.5t86 -167.5q0 -53 -30 -99.5t-82 -76.5q72 -28 114.5 -85.5t42.5 -127.5q0 -117 -98 -184.5t-264 -67.5q-167 0 -266 67t-99 181zM1341 260q0 -106 152 -106q73 0 112.5 27t39.5 79 q0 51 -39.5 79t-114.5 28q-72 0 -111 -28t-39 -79zM1362 618q0 -44 34 -68t97 -24q62 0 95.5 24t33.5 68q0 46 -34 71.5t-95 25.5q-63 0 -97 -25.5t-34 -71.5z" />
<glyph unicode="&#x215d;" horiz-adv-x="1947" d="M35 678l88 172q105 -111 227 -111q66 0 102.5 30t36.5 85q0 47 -36.5 73.5t-102.5 26.5q-172 0 -241 -10v490h581v-172h-377v-150q30 6 80 6q154 0 245 -67.5t91 -182.5q0 -134 -96 -214.5t-256 -80.5q-87 0 -179.5 28.5t-162.5 76.5zM281 0l1036 1434h295l-1032 -1434 h-299zM1161 238q0 72 46 130.5t124 86.5q-58 31 -91.5 80t-33.5 104q0 101 86.5 161t231.5 60q147 0 233 -61.5t86 -167.5q0 -53 -30 -99.5t-82 -76.5q72 -28 114.5 -85.5t42.5 -127.5q0 -117 -98 -184.5t-264 -67.5q-167 0 -266 67t-99 181zM1374 260q0 -106 152 -106 q73 0 112 27t39 79q0 51 -39.5 79t-113.5 28q-72 0 -111 -28t-39 -79zM1395 618q0 -44 34 -68t97 -24q62 0 95.5 24t33.5 68q0 46 -34 71.5t-95 25.5q-63 0 -97 -25.5t-34 -71.5z" />
<glyph unicode="&#x215e;" horiz-adv-x="1886" d="M57 1139v295h693v-154l-330 -698h-238l322 680h-250v-123h-197zM221 0l1036 1434h295l-1032 -1434h-299zM1100 238q0 72 46 130.5t124 86.5q-58 31 -91.5 80t-33.5 104q0 101 86 161t231 60q147 0 233.5 -62t86.5 -167q0 -53 -30.5 -99.5t-82.5 -76.5q72 -28 115 -85.5 t43 -127.5q0 -117 -98.5 -184.5t-264.5 -67.5q-167 0 -265.5 67t-98.5 181zM1313 260q0 -106 151 -106q73 0 112.5 27t39.5 79q0 51 -39.5 79t-114.5 28q-72 0 -110.5 -28t-38.5 -79zM1333 618q0 -44 34 -68t97 -24q62 0 95.5 24t33.5 68q0 46 -34 71.5t-95 25.5 q-63 0 -97 -25.5t-34 -71.5z" />
<glyph unicode="&#x2202;" horiz-adv-x="1284" d="M61 475q0 211 128.5 337t342.5 126q129 0 219.5 -52.5t131.5 -142.5q12 212 -77.5 327.5t-264.5 115.5q-187 0 -322 -111l-125 238q96 62 221 98.5t244 36.5q290 0 462.5 -202t172.5 -537q0 -337 -161.5 -530t-444.5 -193q-239 0 -383 132t-144 357zM362 479 q0 -106 64 -164.5t176 -58.5q117 0 179.5 63t62.5 152q0 98 -66.5 159.5t-183.5 61.5q-109 0 -170.5 -56t-61.5 -157z" />
<glyph unicode="&#x220f;" horiz-adv-x="1523" d="M158 -397v1917h1208v-1917h-315v1659h-578v-1659h-315z" />
<glyph unicode="&#x2211;" horiz-adv-x="1259" d="M59 -47l562 668l-543 661v242h1151v-283h-776l512 -618l-514 -623h798v-283h-1190v236z" />
<glyph unicode="&#x2212;" horiz-adv-x="1036" d="M68 563v209h901v-209h-901z" />
<glyph unicode="&#x2215;" horiz-adv-x="708" d="M-63 -229l657 1892h266l-659 -1892h-264z" />
<glyph unicode="&#x2219;" horiz-adv-x="638" d="M82 561q0 106 66 174t169 68q104 0 171 -68t67 -174q0 -107 -67 -176.5t-171 -69.5q-103 0 -169 69.5t-66 176.5z" />
<glyph unicode="&#x221a;" horiz-adv-x="1437" d="M10 573v258h473l242 -823l426 1522h301l-559 -1849h-336l-291 892h-256z" />
<glyph unicode="&#x221e;" horiz-adv-x="1763" d="M57 612q0 188 116.5 311.5t293.5 123.5q76 0 139.5 -20t113 -59t85.5 -80.5t74 -99.5q37 58 72.5 99.5t85.5 80.5t115 59t144 20q177 0 293.5 -123.5t116.5 -309.5q0 -187 -116.5 -309.5t-293.5 -122.5q-76 0 -139.5 20t-113 59t-85 80t-73.5 99q-37 -58 -73 -99.5 t-86.5 -80.5t-115.5 -59.5t-143 -20.5q-177 0 -293.5 123t-116.5 309zM272 612q0 -91 55 -150t140 -59q55 0 101 16t83 48t65 65.5t60 83.5q-66 100 -137 153.5t-172 53.5q-85 0 -140 -60t-55 -151zM987 610q32 -48 60 -81.5t65.5 -64t83.5 -46t100 -15.5q85 0 141 60 t56 151t-56 150t-141 59q-104 0 -174 -55t-135 -158z" />
<glyph unicode="&#x222b;" horiz-adv-x="765" d="M-33 -227l39 211q75 -37 127 -37q91 0 129.5 55.5t38.5 185.5q0 115 -26.5 537.5t-26.5 525.5q0 264 82 376t276 112q81 0 180 -45l-32 -209q-59 22 -111 22q-88 0 -124 -51.5t-36 -175.5q0 -100 24.5 -526.5t24.5 -542.5q0 -264 -82.5 -377t-277.5 -113q-122 0 -205 52z " />
<glyph unicode="&#x2248;" horiz-adv-x="1036" d="M123 274q0 332 219 332q46 0 92 -16.5t77 -36.5t65 -36.5t57 -16.5q69 0 69 96h213q0 -332 -219 -332q-61 0 -117.5 27t-100 53.5t-72.5 26.5q-70 0 -70 -97h-213zM123 741q0 332 219 332q46 0 92 -16.5t77 -36.5t65 -36.5t57 -16.5q69 0 69 96h213q0 -334 -219 -334 q-61 0 -117.5 27.5t-100 54.5t-72.5 27q-70 0 -70 -97h-213z" />
<glyph unicode="&#x2260;" horiz-adv-x="1036" d="M68 344v209h286l72 229h-358v209h424l90 285h237l-90 -285h240v-209h-305l-72 -229h377v-209h-445l-92 -295h-237l92 295h-219z" />
<glyph unicode="&#x2264;" horiz-adv-x="1036" d="M68 14v209h901v-209h-901zM68 684v258l901 367v-226l-695 -270l695 -270v-226z" />
<glyph unicode="&#x2265;" horiz-adv-x="1036" d="M68 14v209h901v-209h-901zM68 332v223l694 272l-694 271v225l899 -369v-256z" />
<glyph unicode="&#x25ca;" horiz-adv-x="1058" d="M57 676l473 700l471 -700l-475 -707zM301 676l227 -334l230 334l-230 332z" />
<glyph unicode="&#x25fc;" horiz-adv-x="1105" d="M0 0v1106h1106v-1106h-1106z" />
<glyph horiz-adv-x="1564" d="M131 0v831q0 283 175 450t472 167q302 0 479 -167t177 -450v-831h-324v354h-655v-354h-324zM455 616h655v215q-2 154 -89 244t-239 90t-239.5 -90t-87.5 -244v-215z" />
<glyph horiz-adv-x="1564" d="M131 0v831q0 283 175 450t472 167q302 0 479 -167t177 -450v-831h-324v354h-655v-354h-324zM455 616h655v215q-2 154 -89 244t-239 90t-239.5 -90t-87.5 -244v-215zM618 1567l218 334l292 -111l-260 -223h-250z" />
<glyph horiz-adv-x="1564" d="M131 0v831q0 283 175 450t472 167q302 0 479 -167t177 -450v-831h-324v354h-655v-354h-324zM455 616h655v215q-2 154 -89 244t-239 90t-239.5 -90t-87.5 -244v-215zM463 1882h201q3 -55 35.5 -89t82.5 -34t83 34t36 89h201q-6 -142 -94 -228.5t-226 -86.5t-225.5 86.5 t-93.5 228.5z" />
<glyph horiz-adv-x="1564" d="M131 0v831q0 283 175 450t472 167q302 0 479 -167t177 -450v-831h-324v354h-655v-354h-324zM428 1583l223 303h262l224 -303h-232l-123 174l-123 -174h-231zM455 616h655v215q-2 154 -89 244t-239 90t-239.5 -90t-87.5 -244v-215z" />
<glyph horiz-adv-x="1564" d="M131 0v831q0 283 175 450t472 167q302 0 479 -167t177 -450v-831h-324v354h-655v-354h-324zM442 1755q0 67 41.5 110.5t106.5 43.5t107 -43.5t42 -110.5q0 -66 -42 -108.5t-107 -42.5t-106.5 42.5t-41.5 108.5zM455 616h655v215q-2 154 -89 244t-239 90t-239.5 -90 t-87.5 -244v-215zM827 1755q0 67 41.5 110.5t106.5 43.5t107 -43.5t42 -110.5q0 -66 -42 -108.5t-107 -42.5t-106.5 42.5t-41.5 108.5z" />
<glyph horiz-adv-x="1564" d="M131 0v831q0 283 175 450t472 167q302 0 479 -167t177 -450v-831h-324v354h-655v-354h-324zM434 1792l293 109l219 -334h-252zM455 616h655v215q-2 154 -89 244t-239 90t-239.5 -90t-87.5 -244v-215z" />
<glyph horiz-adv-x="1564" d="M131 0v831q0 283 175 450t472 167q302 0 479 -167t177 -450v-831h-324v354h-655v-354h-324zM455 616h655v215q-2 154 -89 244t-239 90t-239.5 -90t-87.5 -244v-215zM506 1632v221h555v-221h-555z" />
<glyph horiz-adv-x="1574" d="M131 0v831q0 283 175 450t472 167q302 0 479 -167t177 -450v-831h-78q-92 -130 -92 -197q0 -24 13.5 -37.5t35.5 -13.5q44 0 92 64l84 -99q-38 -64 -93.5 -97.5t-119.5 -33.5q-71 0 -122.5 40.5t-51.5 125.5q0 104 100 248h-92v354h-655v-354h-324zM455 616h655v215 q-2 154 -89 244t-239 90t-239.5 -90t-87.5 -244v-215z" />
<glyph horiz-adv-x="1564" d="M131 0v831q0 283 175 450t472 167q302 0 479 -167t177 -450v-831h-324v354h-655v-354h-324zM455 616h655v215q-2 154 -89 244t-239 90t-239.5 -90t-87.5 -244v-215zM537 1751q0 100 72 172t173 72t173.5 -72t72.5 -172q0 -101 -72.5 -172.5t-173.5 -71.5t-173 71.5 t-72 172.5zM666 1751q0 -47 33.5 -80t82.5 -33q50 0 84.5 33t34.5 80q0 46 -35 78.5t-84 32.5t-82.5 -32.5t-33.5 -78.5z" />
<glyph horiz-adv-x="1564" d="M131 0v831q0 283 175 450t472 167q302 0 479 -167t177 -450v-831h-324v354h-655v-354h-324zM430 1608q0 309 205 309q51 0 97.5 -25.5t82 -51t59.5 -25.5q68 0 68 90h195q0 -306 -205 -306q-54 0 -100.5 25.5t-80.5 50.5t-59 25q-67 0 -67 -92h-195zM455 616h655v215 q-2 154 -89 244t-239 90t-239.5 -90t-87.5 -244v-215z" />
<glyph horiz-adv-x="1230" d="M76 391q0 126 82 227.5t217 139.5q-100 34 -161.5 120.5t-61.5 194.5q0 167 148 271t386 104q121 0 250.5 -28t210.5 -72l-105 -246q-160 72 -327 72q-114 0 -186 -39.5t-72 -112.5q0 -66 56.5 -110t145.5 -44h322v-262h-322q-108 0 -178.5 -48t-70.5 -122q0 -80 78 -127 t198 -47q97 0 210.5 34t180.5 75l123 -246q-97 -61 -247 -100t-300 -39q-254 0 -415.5 112.5t-161.5 292.5z" />
<glyph horiz-adv-x="1230" d="M76 391q0 126 82 227.5t217 139.5q-100 34 -161.5 120.5t-61.5 194.5q0 167 148 271t386 104q121 0 250.5 -28t210.5 -72l-105 -246q-160 72 -327 72q-114 0 -186 -39.5t-72 -112.5q0 -66 56.5 -110t145.5 -44h322v-262h-322q-108 0 -178.5 -48t-70.5 -122q0 -80 78 -127 t198 -47q97 0 210.5 34t180.5 75l123 -246q-97 -61 -247 -100t-300 -39q-254 0 -415.5 112.5t-161.5 292.5zM453 1567l217 334l293 -111l-261 -223h-249z" />
<glyph horiz-adv-x="1230" d="M76 391q0 126 82 227.5t217 139.5q-100 34 -161.5 120.5t-61.5 194.5q0 167 148 271t386 104q121 0 250.5 -28t210.5 -72l-105 -246q-160 72 -327 72q-114 0 -186 -39.5t-72 -112.5q0 -66 56.5 -110t145.5 -44h322v-262h-322q-108 0 -178.5 -48t-70.5 -122q0 -80 78 -127 t198 -47q97 0 210.5 34t180.5 75l123 -246q-97 -61 -247 -100t-300 -39q-254 0 -415.5 112.5t-161.5 292.5zM297 1882h201q3 -55 35.5 -89t82.5 -34t83 34t36 89h201q-6 -142 -94 -228.5t-226 -86.5t-225.5 86.5t-93.5 228.5z" />
<glyph horiz-adv-x="1230" d="M76 391q0 126 82 227.5t217 139.5q-100 34 -161.5 120.5t-61.5 194.5q0 167 148 271t386 104q121 0 250.5 -28t210.5 -72l-105 -246q-160 72 -327 72q-114 0 -186 -39.5t-72 -112.5q0 -66 56.5 -110t145.5 -44h322v-262h-322q-108 0 -178.5 -48t-70.5 -122q0 -80 78 -127 t198 -47q97 0 210.5 34t180.5 75l123 -246q-97 -61 -247 -100t-300 -39q-254 0 -415.5 112.5t-161.5 292.5zM227 1886h254l127 -188l127 188h254l-239 -327h-283z" />
<glyph horiz-adv-x="1230" d="M76 391q0 126 82 227.5t217 139.5q-100 34 -161.5 120.5t-61.5 194.5q0 167 148 271t386 104q121 0 250.5 -28t210.5 -72l-105 -246q-160 72 -327 72q-114 0 -186 -39.5t-72 -112.5q0 -66 56.5 -110t145.5 -44h322v-262h-322q-108 0 -178.5 -48t-70.5 -122q0 -80 78 -127 t198 -47q97 0 210.5 34t180.5 75l123 -246q-97 -61 -247 -100t-300 -39q-254 0 -415.5 112.5t-161.5 292.5zM262 1583l223 303h263l223 -303h-232l-123 174l-122 -174h-232z" />
<glyph horiz-adv-x="1230" d="M76 391q0 126 82 227.5t217 139.5q-100 34 -161.5 120.5t-61.5 194.5q0 167 148 271t386 104q121 0 250.5 -28t210.5 -72l-105 -246q-160 72 -327 72q-114 0 -186 -39.5t-72 -112.5q0 -66 56.5 -110t145.5 -44h322v-262h-322q-108 0 -178.5 -48t-70.5 -122q0 -80 78 -127 t198 -47q97 0 210.5 34t180.5 75l123 -246q-97 -61 -247 -100t-300 -39q-254 0 -415.5 112.5t-161.5 292.5zM276 1755q0 67 41.5 110.5t106.5 43.5t107 -43.5t42 -110.5q0 -66 -42 -108.5t-107 -42.5t-106.5 42.5t-41.5 108.5zM662 1755q0 68 41.5 111t105.5 43 q65 0 107 -43.5t42 -110.5q0 -66 -42 -108.5t-107 -42.5q-64 0 -105.5 42.5t-41.5 108.5z" />
<glyph horiz-adv-x="1230" d="M76 391q0 126 82 227.5t217 139.5q-100 34 -161.5 120.5t-61.5 194.5q0 167 148 271t386 104q121 0 250.5 -28t210.5 -72l-105 -246q-160 72 -327 72q-114 0 -186 -39.5t-72 -112.5q0 -66 56.5 -110t145.5 -44h322v-262h-322q-108 0 -178.5 -48t-70.5 -122q0 -80 78 -127 t198 -47q97 0 210.5 34t180.5 75l123 -246q-97 -61 -247 -100t-300 -39q-254 0 -415.5 112.5t-161.5 292.5zM446 1749q0 77 47.5 126.5t122.5 49.5t122.5 -49.5t47.5 -126.5t-47.5 -126.5t-122.5 -49.5t-122.5 49.5t-47.5 126.5z" />
<glyph horiz-adv-x="1230" d="M76 391q0 126 82 227.5t217 139.5q-100 34 -161.5 120.5t-61.5 194.5q0 167 148 271t386 104q121 0 250.5 -28t210.5 -72l-105 -246q-160 72 -327 72q-114 0 -186 -39.5t-72 -112.5q0 -66 56.5 -110t145.5 -44h322v-262h-322q-108 0 -178.5 -48t-70.5 -122q0 -80 78 -127 t198 -47q97 0 210.5 34t180.5 75l123 -246q-97 -61 -247 -100t-300 -39q-254 0 -415.5 112.5t-161.5 292.5zM268 1792l293 109l219 -334h-252z" />
<glyph horiz-adv-x="1230" d="M76 391q0 126 82 227.5t217 139.5q-100 34 -161.5 120.5t-61.5 194.5q0 167 148 271t386 104q121 0 250.5 -28t210.5 -72l-105 -246q-160 72 -327 72q-114 0 -186 -39.5t-72 -112.5q0 -66 56.5 -110t145.5 -44h322v-262h-322q-108 0 -178.5 -48t-70.5 -122q0 -80 78 -127 t198 -47q97 0 210.5 34t180.5 75l123 -246q-97 -61 -247 -100t-300 -39q-254 0 -415.5 112.5t-161.5 292.5zM340 1632v221h555v-221h-555z" />
<glyph horiz-adv-x="1230" d="M76 391q0 126 82 227.5t217 139.5q-100 34 -161.5 120.5t-61.5 194.5q0 167 148 271t386 104q121 0 250.5 -28t210.5 -72l-105 -246q-160 72 -327 72q-114 0 -186 -39.5t-72 -112.5q0 -66 56.5 -110t145.5 -44h322v-262h-322q-108 0 -178.5 -48t-70.5 -122q0 -80 78 -127 t198 -47q97 0 210.5 34t180.5 75l123 -246q-83 -52 -196 -86q-121 -157 -121 -236q0 -24 13.5 -37.5t35.5 -13.5q48 0 92 64l84 -99q-38 -64 -93.5 -97.5t-119.5 -33.5q-71 0 -122.5 40.5t-51.5 125.5q0 101 96 246q-79 -12 -164 -12q-254 0 -415.5 112.5t-161.5 292.5z" />
<glyph horiz-adv-x="1124" d="M131 0v961q0 223 139.5 355t372.5 132q131 0 261 -25t222 -67l-75 -279q-90 38 -193.5 63t-185.5 25q-97 0 -156 -57.5t-59 -153.5v-161h544v-269h-544v-524h-326z" />
<glyph horiz-adv-x="1527" d="M55 717q0 153 60 288t163.5 231t248 152t307.5 56q159 0 314.5 -56.5t266.5 -152.5l-184 -231q-80 74 -184.5 116.5t-208.5 42.5q-191 0 -321 -128.5t-130 -317.5q0 -191 125 -320t309 -129q85 0 164 37t135 101v333h281v-739h-240v119q-180 -133 -377 -133 q-204 0 -371 95.5t-262.5 263t-95.5 372.5z" />
<glyph horiz-adv-x="1527" d="M55 717q0 153 60 288t163.5 231t248 152t307.5 56q159 0 314.5 -56.5t266.5 -152.5l-184 -231q-80 74 -184.5 116.5t-208.5 42.5q-191 0 -321 -128.5t-130 -317.5q0 -191 125 -320t309 -129q85 0 164 37t135 101v333h281v-739h-240v119q-180 -133 -377 -133 q-204 0 -371 95.5t-262.5 263t-95.5 372.5zM449 1882h200q3 -55 36 -89t83 -34t83 34t36 89h200q-6 -142 -93.5 -228.5t-225.5 -86.5t-225.5 86.5t-93.5 228.5z" />
<glyph horiz-adv-x="1527" d="M55 717q0 153 60 288t163.5 231t248 152t307.5 56q159 0 314.5 -56.5t266.5 -152.5l-184 -231q-80 74 -184.5 116.5t-208.5 42.5q-191 0 -321 -128.5t-130 -317.5q0 -191 125 -320t309 -129q85 0 164 37t135 101v333h281v-739h-240v119q-180 -133 -377 -133 q-204 0 -371 95.5t-262.5 263t-95.5 372.5zM414 1583l223 303h262l223 -303h-231l-123 174l-123 -174h-231z" />
<glyph horiz-adv-x="1527" d="M55 717q0 153 60 288t163.5 231t248 152t307.5 56q159 0 314.5 -56.5t266.5 -152.5l-184 -231q-80 74 -184.5 116.5t-208.5 42.5q-191 0 -321 -128.5t-130 -317.5q0 -191 125 -320t309 -129q85 0 164 37t135 101v333h281v-739h-240v119q-180 -133 -377 -133 q-204 0 -371 95.5t-262.5 263t-95.5 372.5zM600 -582l86 207q-63 45 -63 127q0 69 44.5 114.5t112.5 45.5q64 0 109 -43t45 -115q0 -67 -43 -129l-137 -207h-154z" />
<glyph horiz-adv-x="1527" d="M55 717q0 153 60 288t163.5 231t248 152t307.5 56q159 0 314.5 -56.5t266.5 -152.5l-184 -231q-80 74 -184.5 116.5t-208.5 42.5q-191 0 -321 -128.5t-130 -317.5q0 -191 125 -320t309 -129q85 0 164 37t135 101v333h281v-739h-240v119q-180 -133 -377 -133 q-204 0 -371 95.5t-262.5 263t-95.5 372.5zM598 1749q0 77 47.5 126.5t122.5 49.5t122.5 -49.5t47.5 -126.5t-47.5 -126.5t-122.5 -49.5t-122.5 49.5t-47.5 126.5z" />
<glyph horiz-adv-x="1019" d="M96 0v270h252v895h-252v269h828v-269h-252v-895h252v-270h-828z" />
<glyph horiz-adv-x="2093" d="M96 0v270h252v895h-252v269h828v-269h-252v-895h252v-270h-828zM1012 4l149 229q73 -77 153.5 -118t149.5 -41q81 0 126.5 48.5t45.5 139.5v897h-493v275h819v-1180q0 -224 -128.5 -348.5t-352.5 -124.5q-278 0 -469 223z" />
<glyph horiz-adv-x="1019" d="M96 0v270h252v895h-252v269h828v-269h-252v-895h252v-270h-828zM346 1567l217 334l293 -111l-260 -223h-250z" />
<glyph horiz-adv-x="1019" d="M96 0v270h252v895h-252v269h828v-269h-252v-895h252v-270h-828zM190 1882h201q3 -55 36 -89t83 -34t83 34t36 89h200q-6 -142 -93.5 -228.5t-225.5 -86.5t-226 86.5t-94 228.5z" />
<glyph horiz-adv-x="1019" d="M96 0v270h252v895h-252v269h828v-269h-252v-895h252v-270h-828zM156 1583l223 303h262l223 -303h-231l-123 174l-123 -174h-231z" />
<glyph horiz-adv-x="1019" d="M96 0v270h252v895h-252v269h828v-269h-252v-895h252v-270h-828zM170 1755q0 68 41.5 111t105.5 43q65 0 107.5 -43.5t42.5 -110.5q0 -66 -42.5 -108.5t-107.5 -42.5q-64 0 -105.5 42.5t-41.5 108.5zM555 1755q0 68 41.5 111t105.5 43q65 0 107.5 -43.5t42.5 -110.5 q0 -66 -42.5 -108.5t-107.5 -42.5q-64 0 -105.5 42.5t-41.5 108.5z" />
<glyph horiz-adv-x="1019" d="M96 0v270h252v895h-252v269h828v-269h-252v-895h252v-270h-828zM340 1749q0 77 47.5 126.5t122.5 49.5t122.5 -49.5t47.5 -126.5t-47.5 -126.5t-122.5 -49.5t-122.5 49.5t-47.5 126.5z" />
<glyph horiz-adv-x="1019" d="M96 0v270h252v895h-252v269h828v-269h-252v-895h252v-270h-828zM162 1792l293 109l219 -334h-252z" />
<glyph horiz-adv-x="1019" d="M96 0v270h252v895h-252v269h828v-269h-252v-895h252v-270h-828zM233 1632v221h555v-221h-555z" />
<glyph horiz-adv-x="1019" d="M96 0v270h252v895h-252v269h828v-269h-252v-895h252v-270h-142q-90 -131 -90 -197q0 -24 13.5 -37.5t35.5 -13.5q49 0 93 64l84 -99q-38 -64 -93.5 -97.5t-119.5 -33.5q-71 0 -123 40.5t-52 125.5q0 107 99 248h-533z" />
<glyph horiz-adv-x="1019" d="M96 0v270h252v895h-252v269h828v-269h-252v-895h252v-270h-828zM158 1608q0 309 204 309q40 0 79 -16t63 -35t51 -35t47 -16q68 0 68 90h194q0 -306 -205 -306q-54 0 -100 25.5t-80 50.5t-59 25q-68 0 -68 -92h-194z" />
<glyph horiz-adv-x="1073" d="M-8 4l149 229q73 -77 153.5 -118t149.5 -41q81 0 126.5 48.5t45.5 139.5v897h-493v275h819v-1180q0 -224 -128.5 -348.5t-352.5 -124.5q-278 0 -469 223z" />
<glyph horiz-adv-x="2422" d="M158 0v1434h323v-230q71 108 184.5 168.5t254.5 61.5q149 0 262 -80t166 -219q67 141 189.5 219.5t285.5 79.5q206 0 337.5 -145.5t131.5 -379.5v-909h-328v829q0 136 -72.5 218.5t-193.5 82.5q-136 -1 -224 -103t-88 -255v-772h-327v829q0 136 -72.5 218.5t-193.5 82.5 q-136 -1 -224 -103t-88 -255v-772h-323z" />
<glyph d="M158 0v1434h323v-236q74 112 193 173.5t270 62.5q220 0 357 -144.5t137 -380.5v-909h-328v831q0 133 -79.5 216t-207.5 83q-151 -1 -246.5 -102.5t-95.5 -255.5v-772h-323z" />
<glyph d="M158 0v1434h323v-236q74 112 193 173.5t270 62.5q220 0 357 -144.5t137 -380.5v-909h-328v831q0 133 -79.5 216t-207.5 83q-151 -1 -246.5 -102.5t-95.5 -255.5v-772h-323zM635 1567l217 334l293 -111l-260 -223h-250z" />
<glyph d="M158 0v1434h323v-236q74 112 193 173.5t270 62.5q220 0 357 -144.5t137 -380.5v-909h-328v831q0 133 -79.5 216t-207.5 83q-151 -1 -246.5 -102.5t-95.5 -255.5v-772h-323zM412 1886h254l127 -188l127 188h254l-240 -327h-283z" />
<glyph d="M158 0v1434h323v-236q74 112 193 173.5t270 62.5q220 0 357 -144.5t137 -380.5v-909h-328v831q0 133 -79.5 216t-207.5 83q-151 -1 -246.5 -102.5t-95.5 -255.5v-772h-323zM618 -582l87 207q-64 46 -64 127q0 69 45 114.5t113 45.5q64 0 108.5 -43t44.5 -115 q0 -67 -43 -129l-137 -207h-154z" />
<glyph d="M158 0v1434h323v-236q74 112 193 173.5t270 62.5q220 0 357 -144.5t137 -380.5v-909q-4 -202 -134 -318t-346 -116q-224 0 -380 131l124 250q122 -88 242 -88q78 0 122 45.5t44 130.5v796q0 133 -79.5 216t-207.5 83q-151 -1 -246.5 -102.5t-95.5 -255.5v-772h-323z" />
<glyph d="M158 0v1434h323v-236q74 112 193 173.5t270 62.5q220 0 357 -144.5t137 -380.5v-909h-328v831q0 133 -79.5 216t-207.5 83q-151 -1 -246.5 -102.5t-95.5 -255.5v-772h-323zM446 1608q0 309 205 309q40 0 79 -16t63 -35t51 -35t47 -16q67 0 67 90h195q0 -306 -205 -306 q-54 0 -100 25.5t-80 50.5t-59 25q-68 0 -68 -92h-195z" />
<glyph horiz-adv-x="1650" d="M55 717q0 206 100.5 372.5t277 260.5t392.5 94t392.5 -94.5t277 -261t100.5 -371.5q0 -187 -85 -344.5t-236 -257.5t-342 -123v-242h-234v244q-186 27 -332.5 127t-228.5 255.5t-82 340.5zM387 717q0 -151 87.5 -268.5t223.5 -159.5v295h234v-303q145 36 238.5 156.5 t93.5 279.5q0 188 -127 316t-308 128q-183 0 -312.5 -128.5t-129.5 -315.5z" />
<glyph horiz-adv-x="1380" d="M43 1290q285 158 639 158q352 0 641 -160l-96 -260q-178 91 -381 121v-1149h-324v1149q-202 -27 -383 -121z" />
<glyph horiz-adv-x="1380" d="M43 1290q285 158 639 158q352 0 641 -160l-96 -260q-178 91 -381 121v-1149h-324v1149q-202 -27 -383 -121zM414 1632v221h555v-221h-555z" />
<glyph horiz-adv-x="1380" d="M43 1290q285 158 639 158q352 0 641 -160l-96 -260q-178 91 -381 121v-1149h-324v1149q-202 -27 -383 -121zM301 1886h254l127 -188l127 188h254l-240 -327h-282z" />
<glyph horiz-adv-x="1380" d="M43 1290q285 158 639 158q352 0 641 -160l-96 -260q-178 91 -381 121v-1149h-62l-51 -102q64 -18 101.5 -61t37.5 -105q0 -94 -67 -150.5t-174 -56.5q-104 0 -191 61l60 138q48 -41 106 -41q40 0 64 22.5t24 54.5t-25 53t-69 21q-24 0 -74 -8l80 174h-84v1149 q-202 -27 -383 -121z" />
<glyph horiz-adv-x="1380" d="M43 1290q285 158 639 158q352 0 641 -160l-96 -260q-178 91 -381 121v-1149h-324v1149q-202 -27 -383 -121zM492 -582l86 207q-64 46 -64 127q0 69 45 114.5t113 45.5q64 0 108.5 -43t44.5 -115q0 -67 -43 -129l-137 -207h-153z" />
<glyph d="M133 524v910h328v-832q0 -133 79.5 -216t207.5 -83q151 1 246.5 103t95.5 256v772h323v-1434h-323v236q-74 -112 -193 -173.5t-270 -62.5q-220 0 -357 144t-137 380z" />
<glyph d="M133 524v910h328v-832q0 -133 79.5 -216t207.5 -83q151 1 246.5 103t95.5 256v772h323v-1434h-323v236q-74 -112 -193 -173.5t-270 -62.5q-220 0 -357 144t-137 380zM629 1567l217 334l293 -111l-260 -223h-250z" />
<glyph d="M133 524v910h328v-832q0 -133 79.5 -216t207.5 -83q151 1 246.5 103t95.5 256v772h323v-1434h-323v236q-74 -112 -193 -173.5t-270 -62.5q-220 0 -357 144t-137 380zM473 1882h201q3 -55 36 -89t83 -34t82.5 34t35.5 89h201q-6 -142 -93.5 -228.5t-225.5 -86.5t-226 86.5 t-94 228.5z" />
<glyph d="M133 524v910h328v-832q0 -133 79.5 -216t207.5 -83q151 1 246.5 103t95.5 256v772h323v-1434h-323v236q-74 -112 -193 -173.5t-270 -62.5q-220 0 -357 144t-137 380zM438 1583l224 303h262l223 -303h-232l-122 174l-123 -174h-232z" />
<glyph d="M133 524v910h328v-832q0 -133 79.5 -216t207.5 -83q151 1 246.5 103t95.5 256v772h323v-1434h-323v236q-74 -112 -193 -173.5t-270 -62.5q-220 0 -357 144t-137 380zM453 1755q0 68 41.5 111t105.5 43q65 0 107.5 -43.5t42.5 -110.5q0 -66 -42.5 -108.5t-107.5 -42.5 q-64 0 -105.5 42.5t-41.5 108.5zM838 1755q0 68 41.5 111t105.5 43q65 0 107.5 -43.5t42.5 -110.5q0 -66 -42.5 -108.5t-107.5 -42.5q-64 0 -105.5 42.5t-41.5 108.5z" />
<glyph d="M133 524v910h328v-832q0 -133 79.5 -216t207.5 -83q151 1 246.5 103t95.5 256v772h323v-1434h-323v236q-74 -112 -193 -173.5t-270 -62.5q-220 0 -357 144t-137 380zM444 1792l293 109l219 -334h-251z" />
<glyph d="M133 524v910h328v-832q0 -133 79.5 -216t207.5 -83q151 1 246.5 103t95.5 256v772h323v-1434h-323v236q-74 -112 -193 -173.5t-270 -62.5q-220 0 -357 144t-137 380zM455 1563l174 342l245 -97l-186 -245h-233zM834 1563l172 342l247 -97l-186 -245h-233z" />
<glyph d="M133 524v910h328v-832q0 -133 79.5 -216t207.5 -83q151 1 246.5 103t95.5 256v772h323v-1434h-323v236q-74 -112 -193 -173.5t-270 -62.5q-220 0 -357 144t-137 380zM516 1632v221h555v-221h-555z" />
<glyph d="M133 524v910h328v-832q0 -133 79.5 -216t207.5 -83q151 1 246.5 103t95.5 256v772h323v-1434h-86q-90 -131 -90 -197q0 -24 13.5 -37.5t35.5 -13.5q48 0 92 64l84 -99q-38 -64 -93.5 -97.5t-119.5 -33.5q-71 0 -122.5 40.5t-51.5 125.5q0 107 99 248h-84v236 q-74 -112 -193 -173.5t-270 -62.5q-220 0 -357 144t-137 380z" />
<glyph d="M133 524v910h328v-832q0 -133 79.5 -216t207.5 -83q151 1 246.5 103t95.5 256v772h323v-1434h-323v236q-74 -112 -193 -173.5t-270 -62.5q-220 0 -357 144t-137 380zM547 1751q0 100 72.5 172t173.5 72t173 -72t72 -172q0 -101 -72 -172.5t-173 -71.5t-173.5 71.5 t-72.5 172.5zM676 1751q0 -47 34 -80t83 -33t83.5 33t34.5 80q0 46 -34.5 78.5t-83.5 32.5t-83 -32.5t-34 -78.5z" />
<glyph d="M133 524v910h328v-832q0 -133 79.5 -216t207.5 -83q151 1 246.5 103t95.5 256v772h323v-1434h-323v236q-74 -112 -193 -173.5t-270 -62.5q-220 0 -357 144t-137 380zM440 1608q0 309 205 309q40 0 79 -16t63 -35t51 -35t47 -16q67 0 67 90h195q0 -306 -205 -306 q-54 0 -100.5 25.5t-80.5 50.5t-59 25q-67 0 -67 -92h-195z" />
<glyph horiz-adv-x="2398" d="M131 553v881h324v-881q0 -126 81 -205.5t209 -79.5q130 0 210.5 79t82.5 206v881h324v-881q0 -126 83 -205.5t214 -79.5q127 0 205 79t78 206v881h323v-881q0 -249 -155.5 -408t-401.5 -159q-166 0 -304.5 73.5t-203.5 192.5q-64 -119 -201 -192.5t-305 -73.5 q-247 0 -405 159t-158 408z" />
<glyph horiz-adv-x="2398" d="M131 553v881h324v-881q0 -126 81 -205.5t209 -79.5q130 0 210.5 79t82.5 206v881h324v-881q0 -126 83 -205.5t214 -79.5q127 0 205 79t78 206v881h323v-881q0 -249 -155.5 -408t-401.5 -159q-166 0 -304.5 73.5t-203.5 192.5q-64 -119 -201 -192.5t-305 -73.5 q-247 0 -405 159t-158 408zM1034 1567l217 334l293 -111l-260 -223h-250z" />
<glyph horiz-adv-x="2398" d="M131 553v881h324v-881q0 -126 81 -205.5t209 -79.5q130 0 210.5 79t82.5 206v881h324v-881q0 -126 83 -205.5t214 -79.5q127 0 205 79t78 206v881h323v-881q0 -249 -155.5 -408t-401.5 -159q-166 0 -304.5 73.5t-203.5 192.5q-64 -119 -201 -192.5t-305 -73.5 q-247 0 -405 159t-158 408zM844 1583l223 303h262l223 -303h-231l-123 174l-123 -174h-231z" />
<glyph horiz-adv-x="2398" d="M131 553v881h324v-881q0 -126 81 -205.5t209 -79.5q130 0 210.5 79t82.5 206v881h324v-881q0 -126 83 -205.5t214 -79.5q127 0 205 79t78 206v881h323v-881q0 -249 -155.5 -408t-401.5 -159q-166 0 -304.5 73.5t-203.5 192.5q-64 -119 -201 -192.5t-305 -73.5 q-247 0 -405 159t-158 408zM858 1755q0 67 41.5 110.5t106.5 43.5t107 -43.5t42 -110.5q0 -66 -42 -108.5t-107 -42.5t-106.5 42.5t-41.5 108.5zM1243 1755q0 67 41.5 110.5t106.5 43.5t107 -43.5t42 -110.5q0 -66 -42 -108.5t-107 -42.5t-106.5 42.5t-41.5 108.5z" />
<glyph horiz-adv-x="2398" d="M131 553v881h324v-881q0 -126 81 -205.5t209 -79.5q130 0 210.5 79t82.5 206v881h324v-881q0 -126 83 -205.5t214 -79.5q127 0 205 79t78 206v881h323v-881q0 -249 -155.5 -408t-401.5 -159q-166 0 -304.5 73.5t-203.5 192.5q-64 -119 -201 -192.5t-305 -73.5 q-247 0 -405 159t-158 408zM850 1792l293 109l219 -334h-252z" />
<glyph horiz-adv-x="1517" d="M131 860v574h324v-543q0 -126 81.5 -205.5t211.5 -79.5q140 2 228.5 98.5t88.5 249.5v480h321v-1063q0 -264 -176 -427t-462 -163q-169 0 -334 60t-267 157l138 225q80 -71 197 -115.5t225 -44.5q158 0 258 88t100 228v160q-68 -106 -175.5 -164.5t-240.5 -59.5 q-230 0 -374 151t-144 394z" />
<glyph horiz-adv-x="1517" d="M131 860v574h324v-543q0 -126 81.5 -205.5t211.5 -79.5q140 2 228.5 98.5t88.5 249.5v480h321v-1063q0 -264 -176 -427t-462 -163q-169 0 -334 60t-267 157l138 225q80 -71 197 -115.5t225 -44.5q158 0 258 88t100 228v160q-68 -106 -175.5 -164.5t-240.5 -59.5 q-230 0 -374 151t-144 394zM596 1567l217 334l293 -111l-260 -223h-250z" />
<glyph horiz-adv-x="1517" d="M131 860v574h324v-543q0 -126 81.5 -205.5t211.5 -79.5q140 2 228.5 98.5t88.5 249.5v480h321v-1063q0 -264 -176 -427t-462 -163q-169 0 -334 60t-267 157l138 225q80 -71 197 -115.5t225 -44.5q158 0 258 88t100 228v160q-68 -106 -175.5 -164.5t-240.5 -59.5 q-230 0 -374 151t-144 394zM406 1583l223 303h262l223 -303h-231l-123 174l-123 -174h-231z" />
<glyph horiz-adv-x="1517" d="M131 860v574h324v-543q0 -126 81.5 -205.5t211.5 -79.5q140 2 228.5 98.5t88.5 249.5v480h321v-1063q0 -264 -176 -427t-462 -163q-169 0 -334 60t-267 157l138 225q80 -71 197 -115.5t225 -44.5q158 0 258 88t100 228v160q-68 -106 -175.5 -164.5t-240.5 -59.5 q-230 0 -374 151t-144 394zM420 1755q0 68 41.5 111t105.5 43q65 0 107.5 -43.5t42.5 -110.5q0 -66 -42.5 -108.5t-107.5 -42.5q-64 0 -105.5 42.5t-41.5 108.5zM805 1755q0 68 41.5 111t105.5 43q65 0 107.5 -43.5t42.5 -110.5q0 -66 -42.5 -108.5t-107.5 -42.5 q-64 0 -105.5 42.5t-41.5 108.5z" />
<glyph horiz-adv-x="1517" d="M131 860v574h324v-543q0 -126 81.5 -205.5t211.5 -79.5q140 2 228.5 98.5t88.5 249.5v480h321v-1063q0 -264 -176 -427t-462 -163q-169 0 -334 60t-267 157l138 225q80 -71 197 -115.5t225 -44.5q158 0 258 88t100 228v160q-68 -106 -175.5 -164.5t-240.5 -59.5 q-230 0 -374 151t-144 394zM412 1792l293 109l219 -334h-252z" />
<glyph horiz-adv-x="1376" d="M63 0v219l324 381h-8v227h98v11h113l276 325h-776v271h1210v-217l-321 -379h6v-228h-115v-10h-92l-278 -330h813l-2 -270h-1248z" />
<glyph horiz-adv-x="1376" d="M63 0v219l324 381h-8v227h98v11h113l276 325h-776v271h1210v-217l-321 -379h6v-228h-115v-10h-92l-278 -330h813l-2 -270h-1248zM524 1567l217 334l293 -111l-260 -223h-250z" />
<glyph horiz-adv-x="1376" d="M63 0v219l324 381h-8v227h98v11h113l276 325h-776v271h1210v-217l-321 -379h6v-228h-115v-10h-92l-278 -330h813l-2 -270h-1248zM299 1886h254l127 -188l127 188h254l-240 -327h-282z" />
<glyph horiz-adv-x="1376" d="M63 0v219l324 381h-8v227h98v11h113l276 325h-776v271h1210v-217l-321 -379h6v-228h-115v-10h-92l-278 -330h813l-2 -270h-1248zM518 1749q0 77 47.5 126.5t122.5 49.5t122.5 -49.5t47.5 -126.5t-47.5 -126.5t-122.5 -49.5t-122.5 49.5t-47.5 126.5z" />
<glyph horiz-adv-x="1390" d="M57 555q0 251 140 404.5t370 154.5q233 0 357 -172v160h313v-1102h-313v158q-122 -170 -346 -170q-235 0 -378 156t-143 411zM373 547q2 -136 78 -220.5t200 -84.5q112 0 186.5 73.5t86.5 194.5v74q-12 121 -86.5 194.5t-186.5 73.5q-122 0 -199 -85.5t-79 -219.5z" />
<glyph horiz-adv-x="1390" d="M57 555q0 251 140 404.5t370 154.5q233 0 357 -172v160h313v-1102h-313v158q-122 -170 -346 -170q-235 0 -378 156t-143 411zM373 547q2 -136 78 -220.5t200 -84.5q112 0 186.5 73.5t86.5 194.5v74q-12 121 -86.5 194.5t-186.5 73.5q-122 0 -199 -85.5t-79 -219.5z M520 1233l217 334l293 -111l-260 -223h-250z" />
<glyph horiz-adv-x="1390" d="M57 555q0 251 140 404.5t370 154.5q233 0 357 -172v160h313v-1102h-313v158q-122 -170 -346 -170q-235 0 -378 156t-143 411zM365 1548h200q3 -55 36 -89t83 -34t83 34t36 89h201q-6 -142 -94 -228.5t-226 -86.5t-225.5 86.5t-93.5 228.5zM373 547q2 -136 78 -220.5 t200 -84.5q112 0 186.5 73.5t86.5 194.5v74q-12 121 -86.5 194.5t-186.5 73.5q-122 0 -199 -85.5t-79 -219.5z" />
<glyph horiz-adv-x="1390" d="M57 555q0 251 140 404.5t370 154.5q233 0 357 -172v160h313v-1102h-313v158q-122 -170 -346 -170q-235 0 -378 156t-143 411zM330 1249l223 303h262l223 -303h-231l-123 174l-123 -174h-231zM373 547q2 -136 78 -220.5t200 -84.5q112 0 186.5 73.5t86.5 194.5v74 q-12 121 -86.5 194.5t-186.5 73.5q-122 0 -199 -85.5t-79 -219.5z" />
<glyph horiz-adv-x="1390" d="M57 555q0 251 140 404.5t370 154.5q233 0 357 -172v160h313v-1102h-313v158q-122 -170 -346 -170q-235 0 -378 156t-143 411zM344 1421q0 67 41.5 110.5t106.5 43.5t107 -43.5t42 -110.5q0 -66 -42 -108.5t-107 -42.5t-106.5 42.5t-41.5 108.5zM373 547q2 -136 78 -220.5 t200 -84.5q112 0 186.5 73.5t86.5 194.5v74q-12 121 -86.5 194.5t-186.5 73.5q-122 0 -199 -85.5t-79 -219.5zM729 1421q0 67 41.5 110.5t106.5 43.5t107 -43.5t42 -110.5q0 -66 -42 -108.5t-107 -42.5t-106.5 42.5t-41.5 108.5z" />
<glyph horiz-adv-x="1390" d="M57 555q0 251 140 404.5t370 154.5q233 0 357 -172v160h313v-1102h-313v158q-122 -170 -346 -170q-235 0 -378 156t-143 411zM336 1458l293 109l219 -334h-252zM373 547q2 -136 78 -220.5t200 -84.5q112 0 186.5 73.5t86.5 194.5v74q-12 121 -86.5 194.5t-186.5 73.5 q-122 0 -199 -85.5t-79 -219.5z" />
<glyph horiz-adv-x="1390" d="M57 555q0 251 140 404.5t370 154.5q233 0 357 -172v160h313v-1102h-313v158q-122 -170 -346 -170q-235 0 -378 156t-143 411zM373 547q2 -136 78 -220.5t200 -84.5q112 0 186.5 73.5t86.5 194.5v74q-12 121 -86.5 194.5t-186.5 73.5q-122 0 -199 -85.5t-79 -219.5z M408 1298v222h555v-222h-555z" />
<glyph horiz-adv-x="1390" d="M57 555q0 251 140 404.5t370 154.5q233 0 357 -172v160h313v-1102h-76q-90 -131 -90 -197q0 -24 13.5 -37.5t35.5 -13.5q48 0 92 64l84 -99q-38 -64 -93.5 -97.5t-119.5 -33.5q-71 0 -122.5 40.5t-51.5 125.5q0 107 99 248h-84v158q-122 -170 -346 -170q-235 0 -378 156 t-143 411zM373 547q2 -136 78 -220.5t200 -84.5q112 0 186.5 73.5t86.5 194.5v74q-12 121 -86.5 194.5t-186.5 73.5q-122 0 -199 -85.5t-79 -219.5z" />
<glyph horiz-adv-x="1390" d="M57 555q0 251 140 404.5t370 154.5q233 0 357 -172v160h313v-1102h-313v158q-122 -170 -346 -170q-235 0 -378 156t-143 411zM373 547q2 -136 78 -220.5t200 -84.5q112 0 186.5 73.5t86.5 194.5v74q-12 121 -86.5 194.5t-186.5 73.5q-122 0 -199 -85.5t-79 -219.5z M438 1417q0 100 72.5 172t173.5 72t173.5 -72t72.5 -172q0 -101 -72 -172t-174 -71t-174 71t-72 172zM567 1417q0 -47 34 -79.5t83 -32.5q50 0 84.5 32.5t34.5 79.5q0 46 -35 78.5t-84 32.5t-83 -32.5t-34 -78.5z" />
<glyph horiz-adv-x="1390" d="M57 555q0 251 140 404.5t370 154.5q233 0 357 -172v160h313v-1102h-313v158q-122 -170 -346 -170q-235 0 -378 156t-143 411zM332 1274q0 309 205 309q51 0 97.5 -25.5t82 -51t59.5 -25.5q68 0 68 90h194q0 -305 -204 -305q-42 0 -81 15.5t-62.5 34.5t-50 34.5 t-46.5 15.5q-68 0 -68 -92h-194zM373 547q2 -136 78 -220.5t200 -84.5q112 0 186.5 73.5t86.5 194.5v74q-12 121 -86.5 194.5t-186.5 73.5q-122 0 -199 -85.5t-79 -219.5z" />
<glyph horiz-adv-x="1968" d="M66 332q0 154 109 241.5t310 88.5h308v18q-2 90 -61 138t-173 48q-153 0 -328 -96l-98 217q133 66 247 96.5t253 30.5q251 0 375 -133q147 131 374 131q237 1 380.5 -137.5t152.5 -376.5l-762 -199q36 -79 104 -122.5t158 -43.5q161 0 293 144l180 -164 q-188 -225 -493 -225q-156 0 -278 61.5t-193 173.5q-137 -237 -461 -237q-183 0 -290 95.5t-107 250.5zM360 350q0 -63 47 -101t128 -38q97 0 169 46.5t89 119.5v98h-250q-93 0 -138 -30t-45 -95zM1120 588l492 131q-52 160 -226 160q-120 0 -191 -76.5t-75 -214.5z" />
<glyph horiz-adv-x="1239" d="M57 549q0 165 69 292t197.5 198.5t299.5 72.5q240 2 386.5 -135t155.5 -373l-762 -201q36 -80 104.5 -125t158.5 -45q163 0 292 144l181 -164q-191 -225 -496 -225q-263 0 -424.5 154.5t-161.5 406.5zM373 592l483 131q-52 156 -217 156q-120 0 -190 -74.5t-76 -212.5z " />
<glyph horiz-adv-x="1239" d="M57 549q0 165 69 292t197.5 198.5t299.5 72.5q240 2 386.5 -135t155.5 -373l-762 -201q36 -80 104.5 -125t158.5 -45q163 0 292 144l181 -164q-191 -225 -496 -225q-263 0 -424.5 154.5t-161.5 406.5zM373 592l483 131q-52 156 -217 156q-120 0 -190 -74.5t-76 -212.5z M459 1233l217 334l293 -111l-260 -223h-250z" />
<glyph horiz-adv-x="1239" d="M57 549q0 165 69 292t197.5 198.5t299.5 72.5q240 2 386.5 -135t155.5 -373l-762 -201q36 -80 104.5 -125t158.5 -45q163 0 292 144l181 -164q-191 -225 -496 -225q-263 0 -424.5 154.5t-161.5 406.5zM303 1548h201q3 -55 36 -89t83 -34t82.5 34t35.5 89h201 q-6 -142 -93.5 -228.5t-225.5 -86.5t-226 86.5t-94 228.5zM373 592l483 131q-52 156 -217 156q-120 0 -190 -74.5t-76 -212.5z" />
<glyph horiz-adv-x="1239" d="M57 549q0 165 69 292t197.5 198.5t299.5 72.5q240 2 386.5 -135t155.5 -373l-762 -201q36 -80 104.5 -125t158.5 -45q163 0 292 144l181 -164q-191 -225 -496 -225q-263 0 -424.5 154.5t-161.5 406.5zM233 1552h254l127 -188l127 188h254l-239 -327h-283zM373 592 l483 131q-52 156 -217 156q-120 0 -190 -74.5t-76 -212.5z" />
<glyph horiz-adv-x="1239" d="M57 549q0 165 69 292t197.5 198.5t299.5 72.5q240 2 386.5 -135t155.5 -373l-762 -201q36 -80 104.5 -125t158.5 -45q163 0 292 144l181 -164q-191 -225 -496 -225q-263 0 -424.5 154.5t-161.5 406.5zM268 1249l224 303h262l223 -303h-232l-122 174l-123 -174h-232z M373 592l483 131q-52 156 -217 156q-120 0 -190 -74.5t-76 -212.5z" />
<glyph horiz-adv-x="1239" d="M57 549q0 165 69 292t197.5 198.5t299.5 72.5q240 2 386.5 -135t155.5 -373l-762 -201q36 -80 104.5 -125t158.5 -45q163 0 292 144l181 -164q-191 -225 -496 -225q-263 0 -424.5 154.5t-161.5 406.5zM283 1421q0 68 41.5 111t105.5 43q65 0 107.5 -43.5t42.5 -110.5 q0 -66 -42.5 -108.5t-107.5 -42.5q-64 0 -105.5 42.5t-41.5 108.5zM373 592l483 131q-52 156 -217 156q-120 0 -190 -74.5t-76 -212.5zM668 1421q0 68 41.5 111t105.5 43q65 0 107.5 -43.5t42.5 -110.5q0 -66 -42.5 -108.5t-107.5 -42.5q-64 0 -105.5 42.5t-41.5 108.5z" />
<glyph horiz-adv-x="1239" d="M57 549q0 165 69 292t197.5 198.5t299.5 72.5q240 2 386.5 -135t155.5 -373l-762 -201q36 -80 104.5 -125t158.5 -45q163 0 292 144l181 -164q-191 -225 -496 -225q-263 0 -424.5 154.5t-161.5 406.5zM373 592l483 131q-52 156 -217 156q-120 0 -190 -74.5t-76 -212.5z M453 1415q0 77 47.5 126.5t122.5 49.5t122.5 -49.5t47.5 -126.5t-47.5 -126.5t-122.5 -49.5t-122.5 49.5t-47.5 126.5z" />
<glyph horiz-adv-x="1239" d="M57 549q0 165 69 292t197.5 198.5t299.5 72.5q240 2 386.5 -135t155.5 -373l-762 -201q36 -80 104.5 -125t158.5 -45q163 0 292 144l181 -164q-191 -225 -496 -225q-263 0 -424.5 154.5t-161.5 406.5zM274 1458l293 109l219 -334h-251zM373 592l483 131q-52 156 -217 156 q-120 0 -190 -74.5t-76 -212.5z" />
<glyph horiz-adv-x="1239" d="M57 549q0 165 69 292t197.5 198.5t299.5 72.5q240 2 386.5 -135t155.5 -373l-762 -201q36 -80 104.5 -125t158.5 -45q163 0 292 144l181 -164q-191 -225 -496 -225q-263 0 -424.5 154.5t-161.5 406.5zM346 1298v222h555v-222h-555zM373 592l483 131q-52 156 -217 156 q-120 0 -190 -74.5t-76 -212.5z" />
<glyph horiz-adv-x="1239" d="M57 549q0 165 69 292t197.5 198.5t299.5 72.5q240 2 386.5 -135t155.5 -373l-762 -201q36 -80 104.5 -125t158.5 -45q165 0 284 119l164 -172q-219 -256 -219 -377q0 -24 13.5 -37.5t35.5 -13.5q46 0 90 64l84 -99q-78 -131 -211 -131q-71 0 -122.5 40.5t-51.5 125.5 q0 130 119 289q-101 -53 -209 -53q-263 0 -424.5 154.5t-161.5 406.5zM373 592l483 131q-52 156 -217 156q-120 0 -190 -74.5t-76 -212.5z" />
<glyph horiz-adv-x="698" d="M131 0v1157q0 177 116 277t290 100q169 0 288 -78l-112 -229q-62 47 -138 47q-58 0 -94.5 -33t-36.5 -96v-92h261v-219h-261v-834h-313z" />
<glyph horiz-adv-x="1320" d="M57 590q0 233 131.5 377t346.5 145q220 0 335 -162v152h312v-1000q0 -235 -160.5 -374.5t-429.5 -137.5q-153 2 -287 68.5t-205 181.5l152 183q61 -81 145 -128.5t181 -48.5q132 -1 212 66t80 180v127q-115 -162 -327 -162q-218 0 -352 147t-134 386zM352 582 q2 -127 73 -206t187 -79q115 0 185.5 79t72.5 206q-2 128 -72.5 206t-185.5 78t-186.5 -79t-73.5 -205z" />
<glyph horiz-adv-x="1320" d="M57 590q0 233 131.5 377t346.5 145q220 0 335 -162v152h312v-1000q0 -235 -160.5 -374.5t-429.5 -137.5q-153 2 -287 68.5t-205 181.5l152 183q61 -81 145 -128.5t181 -48.5q132 -1 212 66t80 180v127q-115 -162 -327 -162q-218 0 -352 147t-134 386zM330 1548h200 q3 -55 36 -89t83 -34t83 34t36 89h201q-6 -142 -94 -228.5t-226 -86.5t-225.5 86.5t-93.5 228.5zM352 582q2 -127 73 -206t187 -79q115 0 185.5 79t72.5 206q-2 128 -72.5 206t-185.5 78t-186.5 -79t-73.5 -205z" />
<glyph horiz-adv-x="1320" d="M57 590q0 233 131.5 377t346.5 145q220 0 335 -162v152h312v-1000q0 -235 -160.5 -374.5t-429.5 -137.5q-153 2 -287 68.5t-205 181.5l152 183q61 -81 145 -128.5t181 -48.5q132 -1 212 66t80 180v127q-115 -162 -327 -162q-218 0 -352 147t-134 386zM295 1249l223 303 h262l224 -303h-232l-123 174l-123 -174h-231zM352 582q2 -127 73 -206t187 -79q115 0 185.5 79t72.5 206q-2 128 -72.5 206t-185.5 78t-186.5 -79t-73.5 -205z" />
<glyph horiz-adv-x="1454" d="M57 590q0 233 131.5 377t346.5 145q220 0 335 -162v152h312v-1000q0 -235 -160.5 -374.5t-429.5 -137.5q-153 2 -287 68.5t-205 181.5l152 183q61 -81 145 -128.5t181 -48.5q132 -1 212 66t80 180v127q-115 -162 -327 -162q-218 0 -352 147t-134 386zM352 582 q2 -127 73 -206t187 -79q115 0 185.5 79t72.5 206q-2 128 -72.5 206t-185.5 78t-186.5 -79t-73.5 -205zM485 1348q0 67 43 129l138 204h153l-86 -206q62 -47 62 -127q0 -69 -44 -113.5t-112 -44.5q-64 0 -109 43t-45 115z" />
<glyph horiz-adv-x="1320" d="M57 590q0 233 131.5 377t346.5 145q220 0 335 -162v152h312v-1000q0 -235 -160.5 -374.5t-429.5 -137.5q-153 2 -287 68.5t-205 181.5l152 183q61 -81 145 -128.5t181 -48.5q132 -1 212 66t80 180v127q-115 -162 -327 -162q-218 0 -352 147t-134 386zM352 582 q2 -127 73 -206t187 -79q115 0 185.5 79t72.5 206q-2 128 -72.5 206t-185.5 78t-186.5 -79t-73.5 -205zM479 1415q0 77 47.5 126.5t122.5 49.5t122.5 -49.5t47.5 -126.5t-47.5 -126.5t-122.5 -49.5t-122.5 49.5t-47.5 126.5z" />
<glyph horiz-adv-x="679" d="M133 365v1155h313v-1135q0 -59 27 -89t72 -30q39 0 106 31l31 -262q-104 -49 -209 -49q-147 0 -243.5 98t-96.5 281z" />
<glyph horiz-adv-x="2105" d="M57 551q0 253 163 407t429 154q286 0 426 -205q66 97 171.5 150.5t244.5 54.5q239 2 385.5 -135.5t155.5 -372.5l-762 -201q36 -80 104 -125t158 -45q164 0 293 144l180 -164q-191 -225 -494 -225q-144 0 -254.5 54.5t-179.5 154.5q-67 -100 -176.5 -154.5t-251.5 -54.5 q-265 0 -428.5 155.5t-163.5 407.5zM373 547q0 -135 76.5 -219t199.5 -84q122 0 198.5 84t76.5 219t-76.5 219t-198.5 84q-123 0 -199.5 -84t-76.5 -219zM1239 592l483 131q-52 156 -217 156q-120 0 -190 -74.5t-76 -212.5z" />
<glyph horiz-adv-x="798" d="M127 350v1006h313v-303h301v-219h-301v-431q0 -77 29 -115t82 -36q59 0 143 41l66 -232q-131 -75 -281 -75q-157 0 -254.5 96t-97.5 268z" />
<glyph horiz-adv-x="798" d="M127 350v1006h313v-303h299v-197h-299v-162h299v-196h-299v-95q0 -77 29 -115t82 -36q59 0 143 41l66 -232q-131 -75 -281 -75q-157 0 -254.5 96t-97.5 268z" />
<glyph horiz-adv-x="798" d="M127 350v1006h313v-303h301v-219h-301v-431q0 -77 29 -115t82 -36q59 0 143 41l66 -232q-131 -75 -281 -75q-157 0 -254.5 96t-97.5 268zM608 1190l86 207q-63 45 -63 127q0 70 44.5 114.5t112.5 44.5q65 0 109.5 -42.5t44.5 -116.5q0 -68 -43 -127l-137 -207h-154z" />
<glyph horiz-adv-x="798" d="M127 350v1006h313v-303h301v-219h-301v-431q0 -77 29 -115t82 -36q59 0 143 41l66 -232q-106 -59 -221 -71l-45 -92q64 -18 101.5 -61t37.5 -105q0 -94 -67.5 -150.5t-174.5 -56.5q-103 0 -190 61l59 138q48 -41 107 -41q40 0 64 22.5t24 54.5t-25.5 53t-69.5 21 q-23 0 -73 -8l82 174q-112 30 -177 120.5t-65 229.5z" />
<glyph horiz-adv-x="798" d="M127 350v1006h313v-303h301v-219h-301v-431q0 -77 29 -115t82 -36q59 0 143 41l66 -232q-131 -75 -281 -75q-157 0 -254.5 96t-97.5 268zM252 -582l86 207q-64 46 -64 127q0 69 45 114.5t113 45.5q64 0 109 -43t45 -115q0 -67 -43 -129l-137 -207h-154z" />
<glyph horiz-adv-x="1998" d="M117 469v633h313v-619q0 -95 57.5 -153t151.5 -58q93 0 149 57.5t56 153.5v619h311v-619q0 -95 59 -153t156 -58q90 0 145.5 58t55.5 153v619h313v-633q0 -218 -128 -350.5t-339 -132.5q-127 0 -242.5 62t-173.5 163q-55 -101 -170 -163t-243 -62q-211 0 -341 132.5 t-130 350.5z" />
<glyph horiz-adv-x="1998" d="M117 469v633h313v-619q0 -95 57.5 -153t151.5 -58q93 0 149 57.5t56 153.5v619h311v-619q0 -95 59 -153t156 -58q90 0 145.5 58t55.5 153v619h313v-633q0 -218 -128 -350.5t-339 -132.5q-127 0 -242.5 62t-173.5 163q-55 -101 -170 -163t-243 -62q-211 0 -341 132.5 t-130 350.5zM836 1233l217 334l293 -111l-261 -223h-249z" />
<glyph horiz-adv-x="1998" d="M117 469v633h313v-619q0 -95 57.5 -153t151.5 -58q93 0 149 57.5t56 153.5v619h311v-619q0 -95 59 -153t156 -58q90 0 145.5 58t55.5 153v619h313v-633q0 -218 -128 -350.5t-339 -132.5q-127 0 -242.5 62t-173.5 163q-55 -101 -170 -163t-243 -62q-211 0 -341 132.5 t-130 350.5zM645 1249l223 303h262l224 -303h-232l-123 174l-122 -174h-232z" />
<glyph horiz-adv-x="1998" d="M117 469v633h313v-619q0 -95 57.5 -153t151.5 -58q93 0 149 57.5t56 153.5v619h311v-619q0 -95 59 -153t156 -58q90 0 145.5 58t55.5 153v619h313v-633q0 -218 -128 -350.5t-339 -132.5q-127 0 -242.5 62t-173.5 163q-55 -101 -170 -163t-243 -62q-211 0 -341 132.5 t-130 350.5zM659 1421q0 67 41.5 110.5t106.5 43.5t107 -43.5t42 -110.5q0 -66 -42 -108.5t-107 -42.5t-106.5 42.5t-41.5 108.5zM1044 1421q0 67 41.5 110.5t106.5 43.5t107 -43.5t42 -110.5q0 -66 -42 -108.5t-107 -42.5t-106.5 42.5t-41.5 108.5z" />
<glyph horiz-adv-x="1998" d="M117 469v633h313v-619q0 -95 57.5 -153t151.5 -58q93 0 149 57.5t56 153.5v619h311v-619q0 -95 59 -153t156 -58q90 0 145.5 58t55.5 153v619h313v-633q0 -218 -128 -350.5t-339 -132.5q-127 0 -242.5 62t-173.5 163q-55 -101 -170 -163t-243 -62q-211 0 -341 132.5 t-130 350.5zM651 1458l293 109l219 -334h-252z" />
<glyph horiz-adv-x="1355" d="M121 514v588h315v-496q0 -104 57.5 -164.5t157.5 -60.5q118 1 186 80t68 213v428h312v-987q0 -235 -157.5 -380.5t-412.5 -144.5q-125 2 -259 44.5t-226 109.5l80 223q77 -53 179 -86.5t191 -34.5q133 0 213 75t80 200v170q-120 -198 -385 -201q-184 0 -291.5 115 t-107.5 309z" />
<glyph horiz-adv-x="1355" d="M121 514v588h315v-496q0 -104 57.5 -164.5t157.5 -60.5q118 1 186 80t68 213v428h312v-987q0 -235 -157.5 -380.5t-412.5 -144.5q-125 2 -259 44.5t-226 109.5l80 223q77 -53 179 -86.5t191 -34.5q133 0 213 75t80 200v170q-120 -198 -385 -201q-184 0 -291.5 115 t-107.5 309zM504 1233l217 334l293 -111l-260 -223h-250z" />
<glyph horiz-adv-x="1355" d="M121 514v588h315v-496q0 -104 57.5 -164.5t157.5 -60.5q118 1 186 80t68 213v428h312v-987q0 -235 -157.5 -380.5t-412.5 -144.5q-125 2 -259 44.5t-226 109.5l80 223q77 -53 179 -86.5t191 -34.5q133 0 213 75t80 200v170q-120 -198 -385 -201q-184 0 -291.5 115 t-107.5 309zM313 1249l224 303h262l223 -303h-231l-123 174l-123 -174h-232z" />
<glyph horiz-adv-x="1355" d="M121 514v588h315v-496q0 -104 57.5 -164.5t157.5 -60.5q118 1 186 80t68 213v428h312v-987q0 -235 -157.5 -380.5t-412.5 -144.5q-125 2 -259 44.5t-226 109.5l80 223q77 -53 179 -86.5t191 -34.5q133 0 213 75t80 200v170q-120 -198 -385 -201q-184 0 -291.5 115 t-107.5 309zM328 1421q0 68 41.5 111t105.5 43q65 0 107.5 -43.5t42.5 -110.5q0 -66 -42.5 -108.5t-107.5 -42.5q-64 0 -105.5 42.5t-41.5 108.5zM713 1421q0 68 41.5 111t105.5 43q65 0 107.5 -43.5t42.5 -110.5q0 -66 -42.5 -108.5t-107.5 -42.5q-64 0 -105.5 42.5 t-41.5 108.5z" />
<glyph horiz-adv-x="1355" d="M121 514v588h315v-496q0 -104 57.5 -164.5t157.5 -60.5q118 1 186 80t68 213v428h312v-987q0 -235 -157.5 -380.5t-412.5 -144.5q-125 2 -259 44.5t-226 109.5l80 223q77 -53 179 -86.5t191 -34.5q133 0 213 75t80 200v170q-120 -198 -385 -201q-184 0 -291.5 115 t-107.5 309zM319 1458l293 109l219 -334h-251z" />
<glyph horiz-adv-x="1122" d="M78 0v199l231 266h-157v194h325l168 193l-547 2v246h940v-199l-223 -258h150v-194h-320l-174 -201h586v-250z" />
<glyph horiz-adv-x="1122" d="M78 0v199l231 266h-157v194h325l168 193l-547 2v246h940v-199l-223 -258h150v-194h-320l-174 -201h586v-250zM397 1233l217 334l293 -111l-260 -223h-250z" />
<glyph horiz-adv-x="1122" d="M78 0v199l231 266h-157v194h325l168 193l-547 2v246h940v-199l-223 -258h150v-194h-320l-174 -201h586v-250zM172 1552h254l127 -188l127 188h254l-240 -327h-282z" />
<glyph horiz-adv-x="1122" d="M78 0v199l231 266h-157v194h325l168 193l-547 2v246h940v-199l-223 -258h150v-194h-320l-174 -201h586v-250zM391 1415q0 77 47.5 126.5t122.5 49.5t122.5 -49.5t47.5 -126.5t-47.5 -126.5t-122.5 -49.5t-122.5 49.5t-47.5 126.5z" />
<glyph horiz-adv-x="1314" d="M131 0v1157q0 120 57 207.5t147.5 128.5t201.5 41q122 0 213 -43l-13 -262q-84 43 -162 43q-60 2 -95.5 -30t-35.5 -97v-92h261v-219h-261v-834h-313zM836 1415q0 76 48 126t122 50q75 0 123.5 -49.5t48.5 -126.5t-48.5 -126.5t-123.5 -49.5q-74 0 -122 50t-48 126z M850 0v1102h313v-1102h-313z" />
<glyph horiz-adv-x="1464" d="M63 801v219h148v141q0 179 134.5 275.5t381.5 95.5q239 0 368.5 -107.5t129.5 -302.5v-942q0 -59 26.5 -89t71.5 -30q40 0 107 31l30 -262q-104 -49 -209 -49q-147 0 -243.5 98t-96.5 281v950q0 78 -51 120.5t-149 43.5q-90 1 -138.5 -34t-48.5 -101v-119h213v-219h-213 v-801h-313v801h-148z" />
<glyph horiz-adv-x="1431" d="M90 616q0 280 173 451.5t454 171.5q280 0 452 -171.5t172 -451.5q0 -281 -172 -453.5t-452 -172.5q-281 0 -454 172.5t-173 453.5zM422 616q0 -172 81 -272t214 -100t213 100t80 272q0 169 -80 269t-213 100t-214 -100t-81 -269z" />
<glyph horiz-adv-x="827" d="M18 954v275h594v-1229h-323v954h-271z" />
<glyph horiz-adv-x="1124" d="M51 1059q256 188 522 188q191 0 314 -89.5t123 -235.5q0 -173 -242 -412l-258 -240h537v-270h-959v217l459 459q123 120 123 196q0 48 -38.5 75.5t-107.5 27.5q-77 0 -168.5 -42t-181.5 -116z" />
<glyph horiz-adv-x="1130" d="M0 -51l131 258q77 -83 171.5 -126.5t191.5 -43.5q117 0 181 54t64 149q0 96 -63.5 145t-183.5 49h-220v180l336 351h-538v262h921v-195l-375 -387l70 -10q169 -24 270 -126.5t101 -264.5q0 -206 -147 -334.5t-392 -128.5q-141 0 -280.5 46t-237.5 122z" />
<glyph horiz-adv-x="1273" d="M57 119v229l465 881h312l-439 -848h344v315h301v-315h199v-262h-199v-324h-301v324h-682z" />
<glyph horiz-adv-x="1206" d="M37 -43l129 256q83 -83 179.5 -126.5t193.5 -43.5q117 0 182 55.5t65 155.5q0 91 -65 140.5t-182 49.5q-235 0 -385 -10v795h917l2 -271h-622v-251l149 2q241 0 387 -120.5t146 -314.5q0 -223 -152.5 -357t-405.5 -134q-135 0 -281 47.5t-257 126.5z" />
<glyph horiz-adv-x="1284" d="M88 694q0 343 176.5 548.5t472.5 205.5q116 0 239 -31.5t212 -83.5l-123 -237q-134 92 -307 92q-181 0 -271.5 -110.5t-85.5 -305.5q54 80 145.5 124t213.5 44q212 0 336.5 -126t124.5 -337q0 -226 -143 -358.5t-382 -132.5q-283 0 -445.5 189t-162.5 519zM440 473 q-2 -90 61 -153.5t181 -63.5q110 0 174 58.5t64 164.5q0 100 -61 156.5t-169 56.5q-117 0 -184.5 -62t-65.5 -157z" />
<glyph horiz-adv-x="1202" d="M70 758v471h1093v-232l-545 -1202h-342l529 1163h-449l-2 -200h-284z" />
<glyph horiz-adv-x="1304" d="M76 399q0 124 75.5 223t204.5 146q-96 50 -151 131t-55 176q0 171 136 272t365 101q230 0 367 -103t137 -278q0 -95 -51 -175t-139 -124q122 -47 193 -145t71 -220q0 -192 -156.5 -304.5t-419.5 -112.5q-266 0 -421.5 111.5t-155.5 301.5zM383 434q0 -98 69.5 -150.5 t200.5 -52.5q128 0 199.5 52.5t71.5 148.5q0 95 -71 147t-202 52q-129 0 -198.5 -51.5t-69.5 -145.5zM422 1049q0 -83 60.5 -129t170.5 -46q109 0 168.5 46t59.5 129q0 85 -59.5 130.5t-168.5 45.5q-110 0 -170.5 -45.5t-60.5 -130.5z" />
<glyph horiz-adv-x="1284" d="M72 752q0 226 142.5 358.5t381.5 132.5q283 0 445.5 -189t162.5 -519q0 -343 -176.5 -548.5t-472.5 -205.5q-116 0 -239 31.5t-212 83.5l123 237q134 -92 308 -92q180 0 270.5 110.5t85.5 305.5q-54 -80 -145.5 -124t-213.5 -44q-212 0 -336 126t-124 337zM373 750 q0 -100 60.5 -156.5t168.5 -56.5q117 0 184.5 62t65.5 157q2 90 -61 153.5t-181 63.5q-110 0 -173.5 -58.5t-63.5 -164.5z" />
<glyph horiz-adv-x="923" d="M70 426q0 200 105 316t286 116q183 0 288 -116t105 -316q0 -201 -105 -316.5t-288 -115.5q-182 0 -286.5 115.5t-104.5 316.5zM272 426q0 -120 50 -188t139 -68q90 0 140 67.5t50 188.5t-50 188.5t-140 67.5q-89 0 -139 -68t-50 -188z" />
<glyph horiz-adv-x="552" d="M25 674v178h387v-852h-222v674h-165z" />
<glyph horiz-adv-x="792" d="M43 731q178 129 363 129q132 0 216.5 -61.5t84.5 -161.5q0 -125 -168 -283l-185 -182h379v-172h-663v143l317 320q86 86 86 143q0 35 -26.5 54.5t-75.5 19.5q-110 0 -242 -109z" />
<glyph horiz-adv-x="739" d="M14 94l90 170q97 -106 222 -106q68 0 103.5 28t35.5 80q0 50 -36 76.5t-103 26.5h-142v118l205 199h-332v164h586v-129l-223 -213l43 -8q100 -14 160.5 -75t60.5 -157q0 -124 -93 -201t-247 -77q-92 0 -181 28t-149 76z" />
<glyph horiz-adv-x="833" d="M51 184v150l281 518h213l-269 -508h195v188h209v-188h121v-160h-121v-184h-209v184h-420z" />
<glyph horiz-adv-x="784" d="M35 96l88 172q101 -110 227 -110q66 0 102.5 29.5t36.5 84.5q0 47 -36.5 74t-102.5 27q-140 0 -241 -11v490h581v-172h-377v-150q35 7 80 7q154 0 245 -67.5t91 -182.5q0 -134 -96.5 -215.5t-255.5 -81.5q-87 0 -179.5 29t-162.5 77z" />
<glyph horiz-adv-x="833" d="M70 414q0 203 111 324.5t298 121.5q75 0 152.5 -18.5t132.5 -50.5l-84 -158q-79 55 -188 55q-106 0 -159.5 -59.5t-47.5 -169.5q27 47 82 73.5t131 26.5q129 0 206.5 -75t77.5 -199q0 -135 -90 -215t-241 -80q-178 0 -279.5 113.5t-101.5 310.5zM309 283q0 -49 33.5 -81 t99.5 -32q62 0 97.5 30.5t35.5 86.5q0 52 -33.5 81t-95.5 29q-65 0 -101 -31t-36 -83z" />
<glyph horiz-adv-x="786" d="M57 557v295h693v-154l-330 -698h-238l322 680h-250v-123h-197z" />
<glyph horiz-adv-x="845" d="M59 238q0 72 46 130.5t124 86.5q-58 31 -91.5 80t-33.5 104q0 101 86.5 161t231.5 60q147 0 233 -61.5t86 -167.5q0 -53 -30 -99.5t-82 -76.5q72 -28 114.5 -85.5t42.5 -127.5q0 -117 -98 -184.5t-264 -67.5q-167 0 -266 67t-99 181zM272 260q0 -106 152 -106 q73 0 112 27t39 79q0 51 -39.5 79t-113.5 28q-72 0 -111 -28t-39 -79zM293 618q0 -44 34 -68t97 -24q62 0 95.5 24t33.5 68q0 46 -34 71.5t-95 25.5q-63 0 -97 -25.5t-34 -71.5z" />
<glyph horiz-adv-x="837" d="M55 567q0 135 90.5 214t241.5 79q178 0 279.5 -113t101.5 -309q0 -203 -111.5 -325.5t-298.5 -122.5q-74 0 -151.5 19.5t-134.5 51.5l86 156q77 -53 188 -53q106 0 159.5 58.5t47.5 168.5q-28 -45 -82.5 -72.5t-130.5 -27.5q-130 0 -207.5 75.5t-77.5 200.5zM264 565 q0 -53 33 -81.5t94 -28.5q65 0 101 31t36 83q0 49 -33.5 81t-99.5 32q-62 0 -96.5 -30.5t-34.5 -86.5z" />
<glyph horiz-adv-x="923" d="M70 1010q0 200 105 315t286 115q183 0 288 -115t105 -315q0 -201 -105 -318t-288 -117q-181 0 -286 117t-105 318zM272 1010q0 -121 50 -188.5t139 -67.5q91 0 140.5 67t49.5 189q0 119 -50 186.5t-140 67.5q-89 0 -139 -67.5t-50 -186.5z" />
<glyph horiz-adv-x="552" d="M25 1255v179h387v-852h-222v673h-165z" />
<glyph horiz-adv-x="792" d="M43 1315q179 127 363 127q132 0 216.5 -61.5t84.5 -161.5q0 -125 -168 -283l-185 -180h379v-174h-663v143l317 322q86 86 86 141q0 35 -26.5 54.5t-75.5 19.5q-54 0 -118 -29t-124 -80z" />
<glyph horiz-adv-x="739" d="M14 676l90 170q101 -107 222 -107q67 0 103 29t36 80q0 102 -139 102h-142v119l205 199h-332v164h586v-127l-223 -215l43 -9q100 -14 160.5 -74.5t60.5 -156.5q0 -124 -93 -201.5t-247 -77.5q-91 0 -180 28.5t-150 76.5z" />
<glyph horiz-adv-x="833" d="M51 766v149l281 519h213l-269 -506h195v186h209v-186h121v-162h-121v-184h-209v184h-420z" />
<glyph horiz-adv-x="784" d="M35 678l88 172q105 -111 227 -111q66 0 102.5 30t36.5 85q0 47 -36.5 73.5t-102.5 26.5q-172 0 -241 -10v490h581v-172h-377v-150q30 6 80 6q154 0 245 -67.5t91 -182.5q0 -134 -96 -214.5t-256 -80.5q-87 0 -179.5 28.5t-162.5 76.5z" />
<glyph horiz-adv-x="833" d="M70 995q0 203 111 325t298 122q74 0 152 -19t133 -51l-84 -158q-80 56 -188 56q-106 0 -159.5 -60t-47.5 -170q27 47 82 75t131 28q129 0 206.5 -76t77.5 -201q0 -135 -90 -215t-241 -80q-178 0 -279.5 113.5t-101.5 310.5zM309 864q0 -49 33.5 -80.5t99.5 -31.5 q62 0 97.5 30t35.5 86q0 54 -33.5 82.5t-95.5 28.5q-65 0 -101 -31.5t-36 -83.5z" />
<glyph horiz-adv-x="786" d="M57 1139v295h693v-154l-330 -698h-238l322 680h-250v-123h-197z" />
<glyph horiz-adv-x="845" d="M59 819q0 72 46 131t124 88q-57 29 -91 78.5t-34 104.5q0 101 86.5 161t231.5 60q146 0 232.5 -62t86.5 -168q0 -53 -30 -99.5t-82 -74.5q72 -29 114.5 -87t42.5 -128q0 -117 -98 -184.5t-264 -67.5q-167 0 -266 67t-99 181zM272 842q0 -52 39 -79.5t113 -27.5 q73 0 112 27.5t39 79.5q0 51 -39 78.5t-114 27.5q-72 0 -111 -27.5t-39 -78.5zM293 1200q0 -43 34 -66.5t97 -23.5q61 0 95 23.5t34 66.5q0 46 -34 71t-95 25q-63 0 -97 -25t-34 -71z" />
<glyph horiz-adv-x="837" d="M55 1149q0 135 90.5 214t241.5 79q178 0 279.5 -112.5t101.5 -309.5q0 -203 -111.5 -326t-298.5 -123q-74 0 -151 19.5t-135 52.5l86 158q77 -56 188 -56q106 0 159.5 59t47.5 169q-28 -45 -82.5 -73t-130.5 -28q-130 0 -207.5 76t-77.5 201zM264 1147q0 -53 33 -82 t94 -29q65 0 101 31.5t36 83.5q0 49 -33.5 81t-99.5 32q-62 0 -96.5 -30.5t-34.5 -86.5z" />
</font>
</defs>
</svg>
